<svg width="158" height="158" viewBox="0 0 158 158" fill="none" xmlns="http://www.w3.org/2000/svg">
<rect width="158" height="158" rx="16" fill="white"/>
<path d="M140.41 78.5C137.814 78.5 135.517 80 134.518 82.3H23.4816C22.3833 80.1 20.1865 78.5 17.5903 78.5C13.9956 78.5 11 81.4 11 85.1C11 88.8 13.8957 91.7 17.5903 91.7C20.1865 91.7 22.4831 90.2 23.4816 87.9H134.518C135.617 90.1 137.814 91.7 140.41 91.7C144.004 91.7 147 88.8 147 85.1C147 81.4 144.104 78.5 140.41 78.5Z" fill="#00E5B3"/>
<path d="M22.9824 52.6V25.9C22.9824 24.5 24.0808 23.4 25.4787 23.4H52.0397V22H25.4787C23.282 22 21.5845 23.8 21.5845 25.9V52.6H22.9824V52.6Z" fill="#00CCCC"/>
<path d="M105.96 23.4H132.521C133.919 23.4 135.018 24.5 135.018 25.9V52.6H136.416V25.9C136.416 23.7 134.618 22 132.521 22H105.96V23.4Z" fill="#00CCCC"/>
<path d="M52.0397 135.6H25.4787C24.0808 135.6 22.9824 134.5 22.9824 133.1V106.6H21.5845V133.1C21.5845 135.3 23.3818 137 25.4787 137H52.0397V135.6Z" fill="#00CCCC"/>
<path d="M135.018 106.6V133.1C135.018 134.5 133.919 135.6 132.521 135.6H105.96V137H132.521C134.718 137 136.416 135.2 136.416 133.1V106.6H135.018Z" fill="#00CCCC"/>
<path d="M103.164 74.7H93.4785V82.3H103.164V74.7Z" fill="#00E5B3"/>
<path d="M83.7931 74.7H64.5215V82.3H83.7931V74.7Z" fill="#00E5B3"/>
<path d="M83.8928 45.7H74.207V65H83.8928V45.7Z" fill="#00E5B3"/>
<path d="M122.436 74.7H112.75V82.3H122.436V74.7Z" fill="#00E5B3"/>
<path d="M83.8928 87.9H74.207V94H83.8928V87.9Z" fill="black"/>
<path d="M64.5214 36H35.564V65H64.5214V36ZM54.9355 55.4H45.2497V45.7H54.9355V55.4Z" fill="#00E5B3"/>
<path d="M112.75 87.9H103.064V94H112.75V87.9Z" fill="black"/>
<path d="M122.436 94H112.75V113.3H122.436V94Z" fill="black"/>
<path d="M93.4787 94V103.6H74.207V122.9H83.7929V113.3H103.065V94H93.4787Z" fill="black"/>
<path d="M45.2497 74.7H35.564V82.3H45.2497V74.7Z" fill="#00E5B3"/>
<path d="M35.564 122.9H64.5214V94H35.564V122.9ZM45.2497 103.6H54.9355V113.3H45.2497V103.6Z" fill="black"/>
<path d="M112.75 113.3H103.064V123H112.75V113.3Z" fill="black"/>
<path d="M108.956 36C101.167 36 94.7769 42.4 94.7769 50.2C94.7769 58 101.167 64.4 108.956 64.4C116.745 64.4 123.135 58 123.135 50.2C123.135 42.4 116.844 36 108.956 36ZM116.046 52.5C116.046 54.4 114.448 56 112.551 56C110.654 56 109.056 54.4 109.056 52.5V48C109.056 47.5 108.656 47 108.057 47C107.558 47 107.059 47.4 107.059 48V52.5C107.059 54.4 105.461 56 103.564 56C101.667 56 100.069 54.4 100.069 52.5C100.069 51.8 100.668 51.3 101.267 51.3C101.966 51.3 102.466 51.9 102.466 52.5C102.466 53 102.865 53.5 103.464 53.5C103.963 53.5 104.463 53.1 104.463 52.5V48C104.463 46.1 106.06 44.5 107.957 44.5C109.855 44.5 111.452 46.1 111.452 48V52.5C111.452 53 111.852 53.5 112.451 53.5C112.95 53.5 113.449 53.1 113.449 52.5V45.8C113.449 45.1 114.049 44.6 114.648 44.6C115.247 44.6 115.846 45.2 115.846 45.8V52.5H116.046Z" fill="#00E5B3"/>
</svg>
