<svg width="360" height="171" viewBox="0 0 360 171" fill="none" xmlns="http://www.w3.org/2000/svg">
<g clip-path="url(#clip0_8_640)">
<path d="M0 -132H360V186C360 199.255 349.255 210 336 210H24C10.7452 210 0 199.255 0 186V-132Z" fill="#1A2138"/>
<g clip-path="url(#clip1_8_640)">
<path opacity="0.3" fill-rule="evenodd" clip-rule="evenodd" d="M215.375 137.012L213.856 183.713L212.306 183.47L213.612 150.078L209.298 144.548L200.152 145.216L199.332 168.339H198.36L199.484 132.151L196.628 128.809L184.17 129.325L182.772 190.58L194.501 190.124V190.549L197.357 190.003L206.837 189.638L206.806 189.881L207.019 189.638L227.346 188.848L229.777 143.788L228.258 137.012H215.375Z" fill="#00CCCC"/>
<path opacity="0.3" fill-rule="evenodd" clip-rule="evenodd" d="M259.311 180.675L282.737 179.976L282.099 152.6L277.845 151.172L264.841 152.022L263.747 175.236H262.471L263.747 147.13L260.982 146.462V137.134L257.974 136.192L257.852 134.886L254.814 133.397L247.491 134.247V136.648L245.668 136.739L245.85 145.945L242.994 146.462L242.903 181.161L259.311 180.675Z" fill="#00CCCC"/>
<path opacity="0.3" fill-rule="evenodd" clip-rule="evenodd" d="M28.8156 137.408L27.4787 178.609L26.1114 178.427L27.266 148.954L23.4679 144.062L15.9934 144.609L16.5099 165.058H13.8361L14.8388 133.154L12.3169 130.207L1.34818 130.663L0.132812 184.686L10.4331 184.291V184.656L12.955 184.169L21.2803 183.866V184.048L21.4626 183.835L39.3589 183.136L41.4858 143.424L40.1489 137.408H28.8156Z" fill="#00CCCC"/>
<path fill-rule="evenodd" clip-rule="evenodd" d="M131.879 113.312H131.818L130.329 113.373V113.312H130.147V113.373L108.209 114.011H108.179L106.994 114.041L107.116 128.626L103.956 124.524L99.1245 124.645V124.554L95.0834 122.458L94.8707 122.336L94.9315 121.09L95.2961 115.014L93.5946 112.947L81.2282 113.525L81.4409 122.275L78.2202 125.253L73.5106 125.375L73.9664 155.333L70.9279 150.928L48.717 151.93L49.112 142.572L49.1728 141.752L50.1451 118.538L45.2532 110.76L38.8725 110.942L35.3479 111.033L32.9172 111.094L15.9932 111.55V181.312L17.2997 181.282H19.2139V181.312H19.2747L21.5839 181.282H27.448H27.4784H29.4534L38.2952 181.251H39.7537H42.944H47.4713L47.9878 169.675L49.4766 170.131L49.6286 174.567L49.7197 178.091L49.7501 178.152L49.8109 181.039H50.9351H52.0593H52.0897H52.1201L61.053 181.099H61.9646L68.9226 181.13L74.331 181.19V181.099L74.3613 180.492V181.16L102.011 181.464L108.149 181.555L108.301 175.691L108.452 181.555H110.245H111.035L111.248 171.619H111.369H111.764V175.417V181.555H128.111H130.42L131.879 113.312Z" fill="#101321"/>
<path fill-rule="evenodd" clip-rule="evenodd" d="M139.232 123.461L133.702 115.865L131.879 113.312L130.421 181.556L137.47 181.464L139.84 124.312L139.232 123.461Z" fill="#101321"/>
<path fill-rule="evenodd" clip-rule="evenodd" d="M341.379 113.678L324.029 114.164V115.562L324.819 116.23V116.26V118.357V117.202H296.592V118.357L298.294 120.302L298.415 120.332L298.719 120.362L299.144 131.331L295.711 128.809L290.485 128.839L291.093 124.738L293.28 124.646L293.371 124.191L291.153 124.282L291.214 123.917L293.371 123.856L293.463 123.401L291.275 123.492L291.336 123.188V123.097L293.402 122.975L293.493 122.58L291.396 122.732L291.639 121.122H291.366L291.153 122.732L289.33 122.884L289.209 123.249L291.093 123.127L291.032 123.522L289.209 123.613L289.118 123.978L290.971 123.917L290.941 124.16V124.282L289.209 124.343L289.057 124.768L290.88 124.738L290.303 128.839L288.996 128.87L280.823 128.931L280.883 126.044L281.096 125.953V125.406L279.364 124.768L273.591 124.89V125.588L273.834 125.892L274.017 128.961L268.669 128.991L269.368 162.262L264.354 160.773V160.834L239.166 161.229L239.743 139.808L234.061 136.8L234.092 136.101L234.183 135.615L234.791 135.402L235.094 134.248L227.741 130.723L213.734 131.392L213.977 132.941L214.463 133.245L214.494 133.792L214.524 138.228L211 138.35L209.359 136.679L205.743 137.043V161.624V163.447V171.712V183.258H206.928L211 183.227L212.701 183.258V183.197H213.005L216.256 183.167L219.386 183.136L230.962 183.045L238.133 182.984H239.834H239.956H264.354H270.067V183.075L287.112 182.923L292.338 182.893V182.863H295.62H301.089V180.645L301.18 182.893H325.761H331.018H331.534H331.686H335.818H340.589L349.309 182.954V182.346L349.552 176.512L349.461 176.543L349.552 174.051L350.433 173.504L349.552 172.957V157.279L349.856 127.229V126.925H350.889V126.348L341.379 113.678Z" fill="#101321"/>
<path fill-rule="evenodd" clip-rule="evenodd" d="M361.614 172.015C361.614 172.015 356.661 167.944 355.416 174.021C355.416 174.021 355.264 166.637 353.866 166.181C352.499 165.726 351.344 176.117 351.344 176.117C351.344 176.117 350.797 163.568 346.969 162.505C342.168 161.168 339.98 183.531 339.98 183.531L361.614 183.835V172.015Z" fill="#093A3A"/>
<path fill-rule="evenodd" clip-rule="evenodd" d="M-2.99707 169.828C-2.99707 169.828 0.70981 159.163 6.51321 158.738C12.347 158.312 13.6839 172.836 13.6839 172.836C13.6839 172.836 15.0816 168.795 17.1477 168.916C19.2442 169.038 20.7938 181.374 20.7938 181.374L-2.99707 181.313V169.828Z" fill="#093A3A"/>
<path fill-rule="evenodd" clip-rule="evenodd" d="M38.6592 181.496C38.6592 181.496 38.72 175.237 39.3884 174.234C40.0569 173.201 41.0899 177.029 41.0899 177.029C41.0899 177.029 42.4268 160.956 49.476 161.047C56.5251 161.138 54.2159 181.131 54.2159 181.131C54.2159 181.131 55.4921 179.612 56.0694 179.612C56.6467 179.612 57.1632 181.253 57.1632 181.253L38.6592 181.496Z" fill="#093A3A"/>
<path fill-rule="evenodd" clip-rule="evenodd" d="M205.743 167.549C205.743 167.549 202.948 175.722 201.337 175.874C199.727 176.026 201.793 163.386 196.202 160.651C190.612 157.917 188.758 172.045 188.758 172.045C188.758 172.045 180.099 170.192 175.511 172.258C170.953 174.324 166.638 182.194 166.638 182.194C166.638 182.194 166.031 175.722 164.967 175.205C163.904 174.659 162.992 182.133 162.992 182.133C162.992 182.133 158.739 166.121 153.968 165.817C149.198 165.513 147.587 176.603 147.587 176.603C147.587 176.603 146.706 153.724 143.85 150.503C140.964 147.282 137.53 182.163 137.53 182.163L205.773 182.71L205.743 167.549Z" fill="#093A3A"/>
<path fill-rule="evenodd" clip-rule="evenodd" d="M335.088 163.112V164.206H333.964L334.086 161.958H333.387L332.901 155.638L332.84 155.182L331.29 154.392C331.625 152.721 332.597 147.434 331.534 147.13V147.1C331.503 147.1 331.473 147.1 331.473 147.13C330.349 146.917 324.211 147.252 317.344 147.799V147.768C317.314 147.768 317.283 147.799 317.253 147.799C314.093 148.042 310.811 148.345 307.803 148.649V148.619C307.743 148.619 307.712 148.649 307.682 148.68C301.544 149.318 296.592 149.956 296.349 150.381C296.136 150.776 296.014 151.627 295.954 152.569V152.599C295.862 153.784 295.893 155.121 295.893 155.82L291.487 156.124C291.487 156.124 290.849 158.889 290.454 160.043C290.363 160.317 290.241 160.56 290.12 160.833H290.089V160.894C290.059 160.985 289.998 161.076 289.968 161.168C286.595 149.318 286.231 136.647 286.231 136.647L279.576 133.184L277.51 133.427L275.809 133.609C276.173 130.996 276.872 124.858 275.596 124.555V124.524C275.566 124.524 275.566 124.555 275.535 124.555C274.138 124.342 266.055 125.193 257.062 126.408L257.031 126.378C257.001 126.378 256.971 126.408 256.94 126.438C252.838 126.985 248.524 127.593 244.574 128.201V128.17C244.513 128.201 244.483 128.201 244.422 128.231C236.431 129.477 229.959 130.692 229.685 131.239C229.412 131.756 229.321 132.88 229.29 134.126V134.156C229.26 136.101 229.412 138.288 229.473 138.866L225.918 139.261V140.111L225.28 144.608L225.067 146.097L223.396 157.795L222.606 162.292H222.758L222.636 163.112H222.15V164.206H221.026L221.147 161.958H220.145L220.084 164.206H219.324L219.446 162.839L184.534 163.112V164.206H183.41L183.532 161.958H182.529L182.468 164.206H181.709L181.83 162.839L146.919 163.112V164.206H145.794L145.916 161.958H144.913L144.853 164.206H143.971L144.093 162.839L133.762 162.93C133.215 160.894 132.76 158.706 132.395 156.337L131.605 156.276C131.605 156.276 131.787 154.665 131.878 152.873V152.842C131.909 152.447 131.909 152.022 131.939 151.627C131.97 150.138 131.909 148.74 131.605 148.133C131.575 148.072 131.514 148.011 131.453 147.95V147.92H131.423C130.663 147.282 127.929 146.462 124.86 145.793H124.829C122.915 145.398 120.879 145.034 119.117 144.851C119.026 144.821 118.965 144.79 118.965 144.79V144.821C116.595 144.578 114.742 144.578 114.408 145.094C113.83 145.975 114.742 154.301 114.833 154.939L113.921 154.878C113.921 154.878 113.891 155.03 113.83 155.273C113.891 155.03 113.921 154.878 113.921 154.878L107.632 155.121L107.024 155.152L102.861 155.303L102.345 155.334H101.92C101.92 155.334 101.92 155.334 101.92 155.364L86.454 155.972L86.3021 155.911C86.3021 155.942 86.2717 155.942 86.2717 155.972L84.2359 156.063C84.2967 155.425 84.3575 154.574 84.4182 153.663V153.632C84.4486 153.237 84.4486 152.812 84.479 152.417C84.5094 151.475 84.479 150.563 84.3878 149.865C84.3271 149.47 84.2663 149.135 84.1448 148.923C84.1144 148.862 84.084 148.832 83.9929 148.771C83.9929 148.74 83.9929 148.74 83.9929 148.71H83.9321C83.1421 148.224 80.4379 147.799 77.2172 147.495C77.1868 147.464 77.1564 147.464 77.1564 147.464L77.126 147.495C74.361 147.221 71.2315 147.069 68.588 147.009C68.5576 146.978 68.5576 146.978 68.5576 146.978L68.5273 147.009C65.3673 146.948 62.9366 147.069 62.7846 147.404C62.5416 147.981 62.6935 150.989 62.9062 153.541H62.8758C62.8758 153.541 62.8758 153.572 62.9062 153.602C62.9973 155.03 63.1189 156.306 63.1796 156.914L60.05 157.035C58.8954 159.162 57.5889 161.168 56.1305 163.021L44.1591 163.112L44.0679 129.72H43.9768L43.7337 66.6421V66.0345L43.7641 65.9737C43.8552 65.6698 43.9464 65.3964 44.0375 65.1229C44.0679 65.0318 44.0983 64.9406 44.1287 64.8495C44.1895 64.6672 44.2502 64.4849 44.311 64.3026C44.3414 64.2114 44.3718 64.0899 44.4325 63.9987C44.4933 63.8164 44.5541 63.6645 44.6148 63.5126C44.6452 63.4214 44.706 63.3303 44.7364 63.2087C44.7971 63.0568 44.8883 62.8745 44.9491 62.7226C44.9795 62.6314 45.0402 62.5403 45.0706 62.4491C45.1618 62.2668 45.2225 62.1149 45.3137 61.9326C45.3441 61.8718 45.3744 61.811 45.4048 61.7503C45.5264 61.5072 45.6479 61.2945 45.7694 61.0514C45.891 60.8387 46.0125 60.6261 46.134 60.4134C46.1644 60.3526 46.1948 60.2918 46.2556 60.2311C46.3467 60.0791 46.4379 59.9272 46.529 59.8057C46.5594 59.7449 46.6202 59.6841 46.6506 59.593C46.7417 59.4715 46.8329 59.3195 46.924 59.198C46.9544 59.1372 47.0152 59.0765 47.0456 59.0157C47.1367 58.8942 47.2279 58.7726 47.319 58.6207C47.3494 58.5599 47.4102 58.4992 47.4406 58.4688C47.471 58.408 47.5317 58.3776 47.5621 58.3169C50.479 60.9299 56.8901 61.7199 63.8177 59.9576C72.5076 57.7699 78.6452 52.3919 77.521 47.9862C76.3968 43.5805 68.4665 41.7878 59.7766 43.9755C51.0867 46.1631 44.9491 51.5412 46.0733 55.9469C46.2252 56.5242 46.4987 57.0711 46.8633 57.5572C46.681 57.8003 46.4683 58.0434 46.286 58.2561C46.2556 58.2865 46.2252 58.3169 46.2252 58.3472C45.6783 59.0461 45.1921 59.7753 44.7971 60.4438C44.7668 60.5045 44.706 60.5957 44.6756 60.6564C44.5844 60.8084 44.5237 60.9299 44.4325 61.0818C43.9768 61.8718 43.6122 62.601 43.3083 63.2695C43.2475 63.4214 43.1564 63.5733 43.0956 63.7253C43.0652 63.786 43.0349 63.8468 43.0349 63.8772C43.0045 63.8164 42.9741 63.7556 42.9437 63.6949C42.9133 63.6341 42.8829 63.5429 42.8525 63.4822C42.5487 62.8441 42.1841 62.1149 41.7587 61.3249C41.4549 60.8084 41.1206 60.2311 40.756 59.6841C40.7257 59.6538 40.7257 59.6234 40.6953 59.6234C40.118 58.7726 39.4495 57.8915 38.6899 57.0407C38.8114 56.7369 38.9026 56.433 38.933 56.1292C39.5103 52.1792 33.6765 48.047 25.8981 46.862C18.1198 45.7074 11.3441 47.9862 10.7364 51.9362C10.1591 55.8861 15.9929 60.0184 23.7712 61.2034C30.2735 62.1757 36.0769 60.7476 38.143 57.9522C38.143 57.9522 38.143 57.9522 38.1734 57.9826C38.2038 58.013 38.2038 58.0434 38.2341 58.0738C38.3557 58.2257 38.4772 58.3776 38.5987 58.5295C38.6291 58.5903 38.6899 58.6511 38.7203 58.7118C38.8418 58.8638 38.933 59.0157 39.0241 59.1676C39.0545 59.2284 39.1153 59.2891 39.1457 59.3499C39.4191 59.7753 39.6926 60.2007 39.966 60.6564C39.9964 60.7172 40.0268 60.778 40.0876 60.8387C40.1787 61.0211 40.2699 61.173 40.361 61.3553C40.3914 61.416 40.4522 61.5072 40.4826 61.568C40.5737 61.7503 40.6649 61.963 40.7864 62.1453C40.8168 62.206 40.8472 62.2668 40.8776 62.3276C40.9991 62.5707 41.1206 62.8441 41.2422 63.1176C41.2726 63.1783 41.303 63.2391 41.303 63.2999C41.3941 63.5126 41.4853 63.7253 41.5764 63.9379C41.6068 64.0291 41.6372 64.1202 41.6676 64.2114C41.7587 64.4241 41.8195 64.6368 41.8803 64.8495C41.9106 64.9406 41.941 65.0318 41.9714 65.1229C42.0626 65.4268 42.1537 65.7306 42.2449 66.0345L42.2752 66.0952L41.9714 129.902L41.8195 163.173L33.8284 163.234V164.328H32.7042L32.8257 162.079H31.8534L31.7927 164.328H30.8811L31.0027 162.96L-3.93923 163.112L-4 179.368H-3.27078L-3.33155 179.793L-2.99732 181.069V183.804V184.169V184.715V193.679L-4 193.891H-2.99732V201.913V206.926V209.874H34.9526H54.3682H60.05H61.2958H198.876H207.444H210.999H214.463H215.466H361.614V208.841V205.042V197.051V195.532V194.621V189.06V188.665V187.997V186.69V184.867V182.133V179.55H368.693L370 162.808L335.088 163.112ZM341.196 179.155V163.295L347.151 163.264V179.125H341.196V179.155ZM347.455 163.264L353.137 163.234L353.836 179.125H347.455V163.264ZM335.818 163.325L340.892 163.295V179.125H335.605L335.818 163.325ZM335.058 164.51L334.997 178H334.572L334.207 173.078L333.964 170.07L333.752 167.153L333.903 164.479H335.058V164.51ZM71.5049 152.326L71.7176 148.163C71.7176 148.163 71.7176 148.163 71.7176 148.133C73.4799 148.224 75.3637 148.406 77.0956 148.589L77.126 148.619V148.589C77.6729 148.649 78.2198 148.71 78.7364 148.771L78.6756 150.624L78.5237 156.185L71.2618 156.488L71.5049 152.326ZM142.878 178.304H144.336L144.306 179.125H142.786L142.878 178.304ZM218.2 178.304H219.659V178.669L218.2 178.426V178.304ZM296.622 152.842H296.652C296.652 152.842 296.652 152.812 296.622 152.782C296.744 151.961 296.926 151.232 297.23 150.958C297.442 150.776 299.721 150.472 303.003 150.108V151.171L303.063 155.364L299.509 155.607L296.47 155.82C296.44 155.121 296.47 153.906 296.622 152.842ZM322.449 150.412L322.297 154.088L312.999 154.696L313.364 151.141L313.576 149.075C314.731 148.984 315.916 148.892 317.04 148.801C317.04 148.801 317.04 148.801 317.04 148.832L317.071 148.801C318.954 148.649 320.808 148.528 322.509 148.406L322.449 150.412ZM303.671 151.657L303.762 149.986C304.795 149.865 305.92 149.774 307.074 149.652L307.105 149.622C308.836 149.439 310.69 149.287 312.574 149.135L312.513 150.381L312.331 154.696L310.447 154.817H310.386C310.386 154.817 310.386 154.817 310.386 154.848L307.803 155.03L304.036 155.273L303.489 155.303L303.671 151.657ZM183.562 179.216L183.592 178.304H184.413V179.216H183.562ZM196.536 179.155H189.457L189.639 176.36C192.434 176.086 194.561 175.934 195.534 175.995C195.351 175.995 195.139 175.965 194.926 175.965C195.169 175.965 195.351 175.995 195.534 175.995C195.625 175.995 195.685 176.026 195.746 176.026C195.989 176.086 196.263 176.208 196.506 176.451V179.155H196.536ZM189.335 179.155H185.021L185.051 176.876C186.601 176.694 188.059 176.512 189.366 176.39L189.183 179.155H189.335ZM184.413 178H183.623L183.653 177.028C183.927 176.998 184.17 176.967 184.413 176.937V178ZM178.883 179.155H174.872L174.903 178.213C176.24 178.031 177.546 177.849 178.853 177.666L178.883 179.155ZM174.72 179.155H170.041V178.912C171.56 178.699 173.08 178.456 174.599 178.244L174.568 179.155H174.72ZM169.737 179.155H168.461C168.887 179.094 169.312 179.034 169.737 178.973V179.155ZM196.84 179.155V176.785C197.296 177.332 197.721 178.152 198.086 179.155H196.84ZM220.357 178.79L220.114 178.76L220.145 178.335H220.418L220.357 178.79ZM207.718 178.79V163.295H207.414V178.79L205.682 178.882L204.132 178.942C203.889 178.183 203.676 177.454 203.433 176.816L202.826 163.264L212.913 163.203L212.245 178.578L207.718 178.79ZM203.069 175.934C202.522 174.628 201.975 173.747 201.428 173.443C200.729 173.048 199.119 172.926 196.84 173.017V163.295L202.522 163.264L203.069 175.934ZM196.536 172.987C194.683 173.048 192.404 173.261 189.852 173.534L190.581 163.295H196.536V172.987ZM170.041 176.603V163.295H169.737V176.664C168.4 176.907 167.063 177.15 165.787 177.393L165.18 163.264L175.267 163.203L174.72 175.782C173.171 176.056 171.591 176.329 170.041 176.603ZM165.483 177.454C163.265 177.879 161.139 178.304 159.194 178.699V163.264L164.876 163.234L165.483 177.454ZM158.89 178.76C158.282 178.882 157.675 179.003 157.097 179.155H152.996H151.841L152.935 163.325L158.89 163.295V178.76ZM146.767 179.125H144.822L144.883 178.304H146.797L146.767 179.125ZM46.2556 172.227V163.295L51.9374 163.264L52.1198 167.366C50.2663 169.128 48.2913 170.739 46.2556 172.227ZM33.798 178.912H31.8534L31.8838 178.304H33.798V178.912ZM31.3673 178.912H29.7265L29.7873 178.183V178.335H31.3977L31.3673 178.912ZM329.741 153.572L326.976 153.754L322.844 154.027L323.178 150.776L323.421 148.315C326.794 148.102 329.437 147.981 330.44 148.042H330.47C330.652 148.042 330.774 148.072 330.835 148.102V148.133H330.865C331.382 148.558 330.956 152.447 330.774 154.118L329.741 153.572ZM271.646 134.065L264.627 134.855L264.87 129.902L265.022 126.651C269.428 126.135 272.892 125.8 274.198 125.831H274.229C274.472 125.831 274.654 125.861 274.715 125.891V125.922H274.745C275.444 126.438 275.171 131.421 275.019 133.7L271.646 134.065ZM230.172 138.805C230.141 138.227 230.02 136.161 230.172 134.429H230.202C230.202 134.429 230.202 134.399 230.172 134.369C230.263 133.275 230.445 132.303 230.84 131.908C231.083 131.664 234.061 131.087 238.345 130.388L238.436 131.786L238.831 137.832L235.337 138.227L230.172 138.805ZM241.809 137.468L239.378 137.741V132.394V130.206C240.715 129.993 242.173 129.781 243.723 129.538L243.753 129.507C246.002 129.173 248.433 128.808 250.863 128.474V130.115L250.924 136.404L241.809 137.468ZM251.987 131.057L252.139 128.322C253.659 128.11 255.178 127.897 256.697 127.715C256.697 127.715 256.697 127.715 256.697 127.745L256.727 127.715C259.219 127.38 261.619 127.076 263.837 126.833L263.868 129.507L263.928 134.976L251.714 136.374L251.987 131.057ZM222.12 164.51V166.515L220.479 178H220.175L220.965 164.51H222.12ZM220.054 164.51L219.689 178H218.231L219.264 164.51H220.054ZM217.349 178.335L212.579 178.547L213.248 163.203H213.096L218.595 163.173L217.349 178.335ZM190.277 163.325L189.548 173.595C188.12 173.747 186.631 173.959 185.051 174.172L185.203 163.355L190.277 163.325ZM184.474 164.51L184.443 174.263C183.896 174.354 183.319 174.415 182.742 174.506L183.319 164.51H184.474ZM182.377 164.51L182.104 174.597C181.678 174.658 181.253 174.719 180.797 174.78L181.587 164.51H182.377ZM179.946 174.932C178.336 175.175 176.665 175.448 175.024 175.722L175.571 163.203H175.419L180.919 163.173L179.946 174.932ZM152.631 163.325L151.537 179.155H151.659H147.374L147.587 163.355L152.631 163.325ZM146.828 164.51L146.767 178H144.883L145.673 164.51H146.828ZM144.731 164.51L144.366 178H142.908L143.941 164.51H144.731ZM141.966 179.125H141.51C140.173 177.454 138.776 175.387 137.5 172.896L137.925 163.203H137.773L143.273 163.173L141.966 179.125ZM137.621 163.203L137.226 172.349C135.95 169.766 134.765 166.758 133.823 163.234L137.621 163.203ZM121.305 150.533L121.517 146.37C122.307 146.492 123.128 146.614 123.948 146.796V146.826C123.948 146.826 123.979 146.826 124.039 146.796C124.829 146.948 125.589 147.1 126.318 147.282L126.257 149.044L126.075 155.82L121.001 155.395L121.305 150.533ZM126.926 151.627L127.23 147.495C127.23 147.495 127.23 147.495 127.26 147.495C129.022 147.95 130.329 148.406 130.542 148.771V148.801C130.845 149.409 130.937 151.141 130.937 152.782V152.812C130.937 154.544 130.876 156.154 130.876 156.154L131.514 156.215L126.592 155.82L126.926 151.627ZM115.38 151.202V151.171C115.471 148.984 115.744 146.583 116.534 146.158C116.747 146.036 117.203 146.006 117.811 146.006C118.54 146.006 119.542 146.097 120.606 146.249V148.102L120.545 155.364L115.38 154.939C115.38 154.939 115.289 153.146 115.38 151.202ZM80.7721 156.124H80.6506L79.1314 156.185L79.3441 153.237L79.6783 148.892C81.6229 149.166 82.9902 149.409 83.0509 149.5V149.53C83.3548 150.138 83.4459 151.87 83.4459 153.511V153.541C83.4459 154.453 83.4459 155.334 83.4156 155.972L80.7721 156.124ZM63.7569 153.48C63.7569 153.48 63.7873 153.48 63.7873 153.45L63.7569 153.389C63.8177 151.171 64.0912 148.771 64.9419 148.406C65.1242 148.315 65.3977 148.254 65.7015 148.194C65.7015 148.194 65.7015 148.194 65.7319 148.194C66.4915 148.072 67.5246 148.011 68.7096 148.011L68.7399 148.042C68.7399 148.042 68.7399 148.042 68.7399 148.011C69.4084 148.011 70.1072 148.042 70.8365 148.072V149.865L70.7757 156.488L66.5523 156.671L63.7873 156.792C63.7265 156.154 63.6962 154.878 63.7569 153.48ZM52.3932 167.093L52.2109 163.264L55.857 163.234C54.7632 164.601 53.6086 165.877 52.3932 167.093ZM45.9517 163.295V172.44C45.3744 172.866 44.7668 173.261 44.1591 173.656L44.1287 163.295H45.9517ZM41.7891 175.114C40.8776 175.661 39.966 176.147 39.0545 176.633L39.9964 163.295H41.8499L41.7891 175.114ZM39.6926 163.325L38.7507 176.816C37.3226 177.575 35.8642 178.244 34.4361 178.882L34.6488 163.325H39.6926ZM33.8588 164.51L33.798 178H31.9142L32.7042 164.51H33.8588ZM31.7927 164.51L31.4281 178H29.8177L30.8811 164.358V164.51H31.7927ZM28.8758 178.912H24.1358L24.8043 163.234H24.6524L30.1519 163.203L28.8758 178.912ZM19.3047 178.882V163.295H19.0009V178.882H15.1117L14.4129 163.264L24.5004 163.203L23.832 178.882H19.3047ZM14.8079 178.882H8.45755V163.295L14.1394 163.264L14.8079 178.882ZM8.15371 178.851H3.41376L2.19839 163.325L8.15371 163.295V178.851ZM-3.39231 179.155L-3.17962 163.325L1.89455 163.295L3.10992 178.821H-3.17962L-3.21001 179.155H-3.39231ZM334.693 179.52L334.602 178.304H334.997V179.52H334.693ZM358.302 179.155V163.295H357.998V179.155H354.109L353.41 163.264L363.498 163.203L362.829 179.155H362.981H358.302ZM367.873 179.155H363.133L363.802 163.203H363.65L369.149 163.173L367.873 179.155Z" fill="#0D0F18"/>
</g>
<path d="M251.083 50.3375C251.356 50.3375 251.578 50.1159 251.578 49.8426C251.578 49.5692 251.356 49.3477 251.083 49.3477C250.809 49.3477 250.588 49.5692 250.588 49.8426C250.588 50.1159 250.809 50.3375 251.083 50.3375Z" fill="#5095FF"/>
<path d="M294.389 9.75353C294.663 9.75353 294.884 9.53194 294.884 9.2586C294.884 8.98526 294.663 8.76367 294.389 8.76367C294.116 8.76367 293.895 8.98526 293.895 9.2586C293.895 9.53194 294.116 9.75353 294.389 9.75353Z" fill="#50FFFF"/>
<path d="M8.81524 8.7633C9.08858 8.7633 9.31017 8.54171 9.31017 8.26837C9.31017 7.99502 9.08858 7.77344 8.81524 7.77344C8.5419 7.77344 8.32031 7.99502 8.32031 8.26837C8.32031 8.54171 8.5419 8.7633 8.81524 8.7633Z" fill="#50FFFF"/>
<path d="M70.5574 31.2828C70.8308 31.2828 71.0524 31.0612 71.0524 30.7879C71.0524 30.5146 70.8308 30.293 70.5574 30.293C70.2841 30.293 70.0625 30.5146 70.0625 30.7879C70.0625 31.0612 70.2841 31.2828 70.5574 31.2828Z" fill="#5095FF"/>
<path d="M26.7565 28.189C27.0298 28.189 27.2514 27.9674 27.2514 27.694C27.2514 27.4207 27.0298 27.1991 26.7565 27.1991C26.4831 27.1991 26.2615 27.4207 26.2615 27.694C26.2615 27.9674 26.4831 28.189 26.7565 28.189Z" fill="#50FFFF"/>
<path d="M219.903 36.232C220.176 36.232 220.398 36.0105 220.398 35.7371C220.398 35.4638 220.176 35.2422 219.903 35.2422C219.63 35.2422 219.408 35.4638 219.408 35.7371C219.408 36.0105 219.63 36.232 219.903 36.232Z" fill="#50FFFF"/>
<path d="M27.2508 83.8688C27.5241 83.8688 27.7457 83.6472 27.7457 83.3738C27.7457 83.1005 27.5241 82.8789 27.2508 82.8789C26.9774 82.8789 26.7559 83.1005 26.7559 83.3738C26.7559 83.6472 26.9774 83.8688 27.2508 83.8688Z" fill="#50FFFF"/>
<path d="M91.4686 100.697C91.7419 100.697 91.9635 100.475 91.9635 100.202C91.9635 99.9286 91.7419 99.707 91.4686 99.707C91.1952 99.707 90.9736 99.9286 90.9736 100.202C90.9736 100.475 91.1952 100.697 91.4686 100.697Z" fill="#50FFFF"/>
<path d="M348.585 68.65C348.858 68.65 349.08 68.4284 349.08 68.1551C349.08 67.8817 348.858 67.6602 348.585 67.6602C348.311 67.6602 348.09 67.8817 348.09 68.1551C348.09 68.4284 348.311 68.65 348.585 68.65Z" fill="#50FFFF"/>
</g>
<defs>
<clipPath id="clip0_8_640">
<path d="M0 -132H360V186C360 199.255 349.255 210 336 210H24C10.7452 210 0 199.255 0 186V-132Z" fill="white"/>
</clipPath>
<clipPath id="clip1_8_640">
<rect width="374" height="166.901" fill="white" transform="translate(-4 42.9727)"/>
</clipPath>
</defs>
</svg>
