<svg width="24" height="25" viewBox="0 0 24 25" fill="none" xmlns="http://www.w3.org/2000/svg">
<g clip-path="url(#clip0_8_512)">
<path d="M1.55776e-05 23.5611V19.9063C0.182161 19.3255 0.537063 18.913 1.11041 18.6708C1.41086 18.5437 1.55232 18.2589 1.54543 17.9272C1.53855 17.5873 1.36955 17.3463 1.07098 17.1779C0.849402 17.0527 0.602785 16.9344 0.443173 16.7479C0.252891 16.5251 0.143979 16.2328 -0.000610352 15.9711C-0.000610352 14.7531 -0.000610352 13.535 -0.000610352 12.3163C0.0131601 12.2982 0.0331898 12.2825 0.0394491 12.2619C0.296706 11.425 0.860042 11.005 1.73196 11.005C6.94783 11.005 12.1637 11.005 17.3796 11.005C17.4622 11.005 17.5454 11.005 17.65 11.005V11.3342C17.65 15.7458 17.65 20.1573 17.65 24.5695C17.65 24.6709 17.6581 24.7717 17.6619 24.8731H1.31196C0.976465 24.751 0.630952 24.6271 0.41751 24.3254C0.251013 24.0894 0.137094 23.8171 1.55776e-05 23.5611ZM4.96363 15.6776H15.5005V14.3062H4.96363V15.6776ZM4.96363 18.4936H15.4949V17.131H4.96363V18.4936ZM15.503 19.9595H4.96802V21.3216H15.503V19.9595Z" fill="#515A67"/>
<path d="M19.0226 24.8724C19.0282 24.7716 19.0382 24.6708 19.0382 24.5701C19.0389 20.1604 19.0389 15.7513 19.0389 11.3417V11.0187C19.1296 11.0131 19.2041 11.0049 19.2786 11.0049C20.2932 11.0043 21.3079 11.0024 22.3225 11.0049C23.2889 11.0068 23.9875 11.7072 23.9887 12.673C23.99 13.6489 23.9887 14.624 23.9887 15.5999C23.9893 16.3322 23.6501 16.8411 22.9878 17.1459C22.4508 17.3932 22.268 17.9746 22.6004 18.4209C22.6974 18.5518 22.8495 18.6582 22.9985 18.7301C23.6532 19.0475 23.9918 19.5539 23.99 20.2862C23.9868 21.2464 23.99 22.2059 23.9893 23.1661C23.9893 24.0036 23.5537 24.5882 22.755 24.8273C22.7275 24.8355 22.7037 24.8567 22.678 24.8724H19.0232H19.0226Z" fill="#515A67"/>
<path d="M9.57922 4.03842C9.63931 3.97458 9.69001 3.91762 9.74447 3.86316C10.55 3.05697 11.355 2.25077 12.1618 1.44583C12.9254 0.683445 13.8794 0.680941 14.6411 1.43957C15.3046 2.10055 15.9637 2.76654 16.6291 3.42564C17.1624 3.95392 17.2988 4.56796 17.0353 5.26587C16.8995 5.62641 16.9527 5.94876 17.2224 6.21228C17.4847 6.46891 17.8021 6.5171 18.1526 6.38316C18.8511 6.11651 19.4645 6.25672 19.9922 6.78876C20.6738 7.4754 21.3598 8.15829 22.0446 8.84243C22.2518 9.04961 22.4045 9.28684 22.4777 9.59793H22.2299C19.9427 9.59793 17.6562 9.59605 15.3691 9.60168C15.1894 9.60168 15.068 9.54535 14.9434 9.42016C13.2152 7.68258 11.4814 5.95001 9.74948 4.21619C9.69502 4.16173 9.64307 4.10477 9.57985 4.0378L9.57922 4.03842Z" fill="#515A67"/>
<path d="M8.59341 5.12878C10.0581 6.58782 11.5641 8.08755 13.0682 9.58603H4.13617C5.60835 8.11384 7.10996 6.61224 8.59341 5.12878Z" fill="#515A67"/>
</g>
<defs>
<clipPath id="clip0_8_512">
<rect width="23.9894" height="24" fill="white" transform="translate(0 0.872437)"/>
</clipPath>
</defs>
</svg>
