<svg width="170" height="50" viewBox="0 0 170 50" fill="none" xmlns="http://www.w3.org/2000/svg">
<g clip-path="url(#clip0_8_282)">
<path d="M73.0001 14C72.6001 14 72.3001 14.2 72.0001 14.5C71.7001 14.8 71.6001 15.2 71.6001 15.5V28.2C71.6001 31.5 69.2001 34.2 66.1001 34.2C63.0001 34.2 60.5001 31.5 60.5001 28.2C60.5001 28 60.5001 27.8 60.4001 27.6C60.3001 27.4 60.2001 27.2 60.1001 27.1C60.0001 27 59.8001 26.8 59.6001 26.8C59.4001 26.7 59.2001 26.7 59.0001 26.7C58.8001 26.7 58.6001 26.7 58.4001 26.8C58.2001 26.9 58.1001 27 57.9001 27.1C57.8001 27.2 57.7001 27.4 57.6001 27.6C57.6001 27.9 57.6001 28.1 57.6001 28.3C57.6001 33.3 61.3001 37 66.0001 37C70.8001 37 74.4001 33 74.4001 28V15.5C74.4001 15.1 74.3001 14.7 74.0001 14.4C73.8001 14.2 73.4001 14 73.0001 14Z" fill="white"/>
<path d="M98.5001 15.9004C98.5001 15.5004 98.4001 15.2004 98.2001 14.8004C98.0001 14.5004 97.7001 14.2004 97.3001 14.1004C97.0001 14.0004 96.6001 13.9004 96.2001 14.0004C95.8001 14.1004 95.5001 14.3004 95.2001 14.5004C94.9001 14.7004 94.8001 15.1004 94.7001 15.5004C94.6001 15.9004 94.7001 16.3004 94.8001 16.6004C94.9001 16.9004 95.2001 17.2004 95.5001 17.5004C95.8001 17.7004 96.2001 17.8004 96.6001 17.8004C97.1001 17.8004 97.6001 17.6004 98.0001 17.2004C98.3001 16.9004 98.5001 16.4004 98.5001 15.9004Z" fill="white"/>
<path d="M84.6004 19.9004C82.9004 19.9004 81.3004 20.4004 79.9004 21.3004C78.5004 22.2004 77.4004 23.6004 76.8004 25.1004C76.2004 26.7004 76.0004 28.4004 76.3004 30.0004C76.6004 31.7004 77.4004 33.2004 78.6004 34.4004C79.8004 35.6004 81.3004 36.4004 83.0004 36.7004C84.7004 37.0004 86.4004 36.9004 87.9004 36.2004C89.5004 35.6004 90.8004 34.5004 91.7004 33.1004C92.6004 31.7004 93.1004 30.1004 93.1004 28.4004C93.1004 26.1004 92.2004 24.0004 90.6004 22.4004C89.0004 20.8004 86.8004 19.9004 84.6004 19.9004ZM84.6004 34.2004C83.5004 34.2004 82.3004 33.9004 81.4004 33.2004C80.5004 32.6004 79.7004 31.7004 79.3004 30.6004C78.9004 29.5004 78.7004 28.4004 79.0004 27.3004C79.2004 26.2004 79.8004 25.2004 80.6004 24.3004C81.4004 23.4004 82.4004 22.9004 83.6004 22.7004C84.7004 22.5004 85.9004 22.6004 86.9004 23.0004C88.0004 23.4004 88.9004 24.2004 89.5004 25.1004C90.1004 26.0004 90.5004 27.2004 90.5004 28.3004C90.5004 29.8004 89.9004 31.3004 88.8004 32.4004C87.6004 33.6004 86.1004 34.2004 84.6004 34.2004Z" fill="white"/>
<path d="M127.9 19.9004H127.8C127.5 19.9004 127.2 19.9004 127 20.0004C125.5 20.2004 124.1 20.9004 122.9 21.9004V21.4004C122.9 21.0004 122.7 20.7004 122.5 20.5004C122.2 20.3004 121.9 20.1004 121.5 20.1004C121.1 20.1004 120.8 20.2004 120.5 20.5004C120.2 20.7004 120.1 21.1004 120.1 21.4004V31.5004V32.5004C120.1 32.9004 119.9 33.4004 119.6 33.7004C119.3 34.0004 118.9 34.2004 118.4 34.2004C118 34.2004 117.6 34.0004 117.3 33.7004C117 33.4004 116.8 33.0004 116.8 32.6004V27.5004C116.8 25.5004 116 23.6004 114.6 22.2004C113.2 20.8004 111.3 20.0004 109.3 20.0004H109.2C108.9 20.0004 108.6 20.0004 108.4 20.1004C106.9 20.3004 105.5 21.0004 104.4 22.0004V21.5004C104.4 21.1004 104.2 20.8004 104 20.5004C103.7 20.2004 103.4 20.1004 103 20.1004C102.6 20.1004 102.3 20.3004 102 20.5004C101.7 20.8004 101.6 21.1004 101.6 21.5004V32.6004C101.6 33.0004 101.4 33.4004 101.1 33.7004C100.8 34.0004 100.4 34.1004 100 34.1004C99.6005 34.1004 99.2005 33.9004 98.9005 33.7004C98.6005 33.4004 98.4005 33.0004 98.4005 32.6004V19.9004H95.5005V32.8004C95.5005 33.9004 96.0005 35.0004 96.8005 35.8004C97.6005 36.6004 98.7005 37.0004 99.8005 37.0004C102 37.0004 104.5 35.2004 104.6 33.0004V27.9004C104.6 27.7004 104.6 27.5004 104.6 27.3004C104.6 26.2004 105 25.2004 105.7 24.4004C106.4 23.6004 107.4 23.0004 108.4 22.8004C108.7 22.7004 109 22.7004 109.3 22.7004C110.6 22.7004 111.8 23.2004 112.7 24.1004C113.6 25.0004 114.1 26.2004 114.1 27.5004V32.5004C114.1 32.6004 114.1 32.7004 114.1 32.8004C114.1 32.8004 114.1 32.8004 114.1 32.9004C114.2 34.0004 114.7 35.1004 115.5 35.8004C116.3 36.6004 117.4 37.0004 118.5 37.0004C119.3 36.9004 120 36.7004 120.6 36.4004C121.3 36.0004 121.8 35.6004 122.3 35.0004C122.8 34.3004 123 33.4004 123 32.5004V28.0004C123 27.8004 123 27.6004 123 27.4004C123 26.3004 123.4 25.3004 124.1 24.5004C124.8 23.7004 125.7 23.1004 126.8 22.9004C127.1 22.8004 127.4 22.8004 127.7 22.8004C128.7 22.8004 129.6 23.1004 130.4 23.7004C131.2 24.3004 131.8 25.0004 132.2 26.0004C132.4 26.5004 132.5 27.1004 132.5 27.7004V37.3004H135.4V27.7004C135.4 25.7004 134.6 23.8004 133.2 22.4004C131.8 20.7004 129.9 19.9004 127.9 19.9004Z" fill="white"/>
<path d="M151.9 19.9004C151.3 19.9004 150.7 20.2004 150.2 20.7004C149.8 21.2004 149.5 21.8004 149.5 22.4004V28.5004C149.5 29.0004 149.5 29.5004 149.3 29.9004C149.1 30.4004 148.9 30.8004 148.6 31.1004C148.3 31.5004 147.9 31.7004 147.4 31.9004C147 32.1004 146.5 32.2004 146 32.2004C145.5 32.2004 145 32.1004 144.6 31.9004C144.2 31.7004 143.8 31.4004 143.4 31.1004C143.1 30.7004 142.8 30.3004 142.7 29.9004C142.5 29.4004 142.5 29.0004 142.5 28.5004V22.4004C142.5 21.8004 142.2 21.2004 141.8 20.7004C141.4 20.3004 140.7 20.0004 140.1 20.0004C139.5 20.0004 138.9 20.3004 138.4 20.7004C138 21.1004 137.7 21.8004 137.7 22.4004V28.5004C137.7 29.6004 137.9 30.7004 138.3 31.7004C138.7 32.7004 139.3 33.7004 140.1 34.5004C140.9 35.3004 141.8 35.9004 142.8 36.3004C143.8 36.7004 144.9 37.0004 146 37.0004C147.1 37.0004 148.2 36.8004 149.2 36.3004C150.2 35.9004 151.1 35.2004 151.9 34.5004C152.7 33.7004 153.3 32.8004 153.7 31.7004C154.1 30.7004 154.3 29.6004 154.3 28.5004V22.4004C154.3 21.8004 154 21.1004 153.6 20.7004C153.2 20.3004 152.6 20.0004 151.9 19.9004Z" fill="white"/>
<path d="M163.5 26.6998C161.9 26.3998 160.7 26.0998 160.7 25.0998C160.7 24.3998 161.2 23.6998 162.6 23.6998C163.5 23.6998 164.4 23.9998 165.2 24.3998C165.8 24.6998 166.4 24.8998 167 24.8998C167.5 24.8998 167.9 24.6998 168.3 24.3998C168.6 24.0998 168.8 23.5998 168.8 23.0998C168.8 21.1998 166.3 19.7998 162.6 19.7998C159 19.7998 156.2 22.0998 156.2 24.9998C156.2 28.8998 159.6 29.5998 162.1 30.0998C163.6 30.3998 164.7 30.6998 164.7 31.5998C164.7 32.1998 164.3 32.8998 162.3 32.8998C161.4 32.8998 160.5 32.5998 159.7 32.1998C159.2 31.8998 158.7 31.6998 158.1 31.6998C157.8 31.6998 157.6 31.6998 157.4 31.7998C157.2 31.8998 156.9 31.9998 156.8 32.1998C156.6 32.3998 156.5 32.5998 156.4 32.7998C156.3 32.9998 156.3 33.2998 156.3 33.4998C156.3 35.3998 158.9 36.6998 162.6 36.6998C166.7 36.6998 169.6 34.4998 169.6 31.2998C169.4 27.9998 166.1 27.1998 163.5 26.6998Z" fill="white"/>
<path d="M25.1001 0.5C11.6001 0.5 0.600098 11.5 0.600098 25C0.600098 38.5 11.6001 49.5 25.1001 49.5C38.6001 49.5 49.6001 38.5 49.6001 25C49.6001 11.5 38.6001 0.5 25.1001 0.5ZM37.3001 28.9C37.3001 32.2 34.6001 34.9 31.3001 34.9C28.0001 34.9 25.3001 32.2 25.3001 28.9V21.1C25.3001 20.2 24.5001 19.4 23.6001 19.4C22.7001 19.4 21.9001 20.2 21.9001 21.1V28.9C21.9001 32.2 19.2001 34.9 15.9001 34.9C12.6001 34.9 9.9001 32.2 9.9001 28.9C9.9001 27.7 10.9001 26.8 12.0001 26.8C13.2001 26.8 14.1001 27.8 14.1001 28.9C14.1001 29.8 14.9001 30.6 15.8001 30.6C16.7001 30.6 17.5001 29.8 17.5001 28.9V21.1C17.5001 17.8 20.2001 15.1 23.5001 15.1C26.8001 15.1 29.5001 17.8 29.5001 21.1V28.9C29.5001 29.8 30.3001 30.6 31.2001 30.6C32.1001 30.6 32.9001 29.8 32.9001 28.9V17.3C32.9001 16.1 33.9001 15.2 35.0001 15.2C36.1001 15.2 37.1001 16.2 37.1001 17.3V28.9H37.3001Z" fill="#00E5B3"/>
</g>
<defs>
<clipPath id="clip0_8_282">
<rect width="168.8" height="49" fill="white" transform="translate(0.600098 0.5)"/>
</clipPath>
</defs>
</svg>
