<svg width="120" height="35" viewBox="0 0 120 35" fill="none" xmlns="http://www.w3.org/2000/svg">
<g opacity="0.15">
<path d="M44.1926 7.92811C44.1797 7.9539 44.1668 7.97969 44.1539 8.00548C44.1539 8.01837 44.141 8.03771 44.1152 8.0635C43.9347 8.19244 43.7606 8.28914 43.593 8.35361C43.4254 8.41808 43.2513 8.50189 43.0708 8.60504C42.9677 8.6824 42.8903 8.73397 42.8387 8.75976C42.8001 8.79844 42.7549 8.83068 42.7034 8.85647C42.6647 8.86936 42.626 8.8887 42.5873 8.91449C42.4326 8.99185 42.2972 9.08855 42.1812 9.2046C42.1167 9.25617 42.0522 9.29485 41.9878 9.32064C41.9233 9.34643 41.8459 9.34643 41.7557 9.32064C41.7428 9.30775 41.7105 9.31419 41.659 9.33998C41.6203 9.36577 41.5752 9.39156 41.5236 9.41734C41.4849 9.43024 41.4398 9.44313 41.3882 9.45603C41.2593 9.46892 41.1625 9.54628 41.0981 9.68811C40.982 9.89441 40.8918 10.0491 40.8273 10.1523C40.7628 10.2554 40.6661 10.4102 40.5372 10.6165C40.4469 10.7583 40.3567 10.9001 40.2664 11.042C40.1891 11.1838 40.1117 11.3321 40.0343 11.4868C39.9441 11.6673 39.8667 11.8285 39.8023 11.9703C39.7378 12.1121 39.6604 12.2733 39.5702 12.4538C39.5057 12.5828 39.4348 12.7053 39.3574 12.8213C39.293 12.9373 39.2285 13.0598 39.164 13.1888C39.1511 13.2146 39.1447 13.2339 39.1447 13.2468C39.1447 13.2597 39.1318 13.279 39.106 13.3048C39.0802 13.2532 39.0609 13.221 39.048 13.2081H39.0093C38.9835 13.2597 38.9513 13.3113 38.9126 13.3628C38.8739 13.4144 38.8288 13.466 38.7772 13.5176C38.6741 13.6207 38.5838 13.7239 38.5064 13.827C38.4291 13.9302 38.371 14.0527 38.3324 14.1945C38.3195 14.2074 38.3066 14.2267 38.2937 14.2525C38.2034 14.2525 38.1132 14.2525 38.0229 14.2525C37.9327 14.2525 37.8682 14.3041 37.8295 14.4072C37.7135 14.4072 37.6168 14.3492 37.5394 14.2332C37.4491 14.13 37.3395 14.0849 37.2106 14.0978C37.1204 13.9946 37.0881 13.8657 37.1139 13.711C37.1397 13.6465 37.1655 13.5756 37.1913 13.4982C37.2042 13.4209 37.2235 13.3499 37.2493 13.2855C37.3009 13.105 37.3589 12.9631 37.4234 12.86C37.4749 12.7439 37.5458 12.5957 37.6361 12.4151C37.7393 12.196 37.8295 11.9961 37.9069 11.8156C37.9842 11.6351 38.0809 11.4352 38.197 11.216C38.2357 11.1258 38.2743 11.042 38.313 10.9646C38.3517 10.8872 38.4033 10.8099 38.4678 10.7325C38.7772 10.2168 39.048 9.75258 39.2801 9.33998C39.525 8.91449 39.7958 8.43742 40.0924 7.90877C40.2342 7.66379 40.3631 7.41881 40.4792 7.17383C40.5952 6.92885 40.7242 6.67742 40.866 6.41954C40.9949 6.17456 41.1239 5.93603 41.2528 5.70394C41.3946 5.47185 41.5365 5.23976 41.6783 5.00767C41.7299 4.9432 41.775 4.87229 41.8137 4.79493C41.8653 4.71756 41.9168 4.6402 41.9684 4.56284C42.0329 4.4339 42.0909 4.3243 42.1425 4.23405C42.2069 4.1309 42.265 4.04064 42.3165 3.96328C42.381 3.87302 42.4455 3.78277 42.5099 3.69251C42.5744 3.58936 42.6453 3.47976 42.7227 3.36372C42.7485 3.33793 42.7227 3.31214 42.6453 3.28636C42.568 3.26057 42.5357 3.23478 42.5486 3.20899C42.4971 3.15742 42.4971 3.0994 42.5486 3.03493C42.6131 2.97046 42.6324 2.89954 42.6067 2.82218C42.6453 2.79639 42.7162 2.75771 42.8194 2.70613C42.742 2.66745 42.6905 2.64167 42.6647 2.62877C42.6518 2.61588 42.6324 2.59009 42.6067 2.55141C42.6195 2.53852 42.6711 2.51273 42.7614 2.47405C42.8645 2.43537 42.929 2.41603 42.9548 2.41603C43.0708 2.41603 43.1353 2.41603 43.1482 2.41603C43.174 2.40313 43.2384 2.36445 43.3416 2.29998C43.5737 2.19683 43.8187 2.10013 44.0765 2.00987C44.3473 1.91961 44.6052 1.84225 44.8502 1.77778C44.992 1.7391 45.1274 1.69397 45.2563 1.6424C45.3982 1.59082 45.54 1.55214 45.6818 1.52635C45.7979 1.50057 45.9139 1.47478 46.0299 1.44899C46.146 1.4232 46.262 1.39742 46.3781 1.37163C46.5973 1.34584 46.8165 1.31361 47.0357 1.27493C47.2678 1.22335 47.4934 1.19756 47.7126 1.19756C47.9963 1.17178 48.2735 1.19112 48.5442 1.25559C48.9182 1.35874 49.2212 1.5457 49.4532 1.81646C49.6982 2.07434 49.8594 2.39024 49.9368 2.76416C49.9626 2.8802 49.9626 2.99625 49.9368 3.11229C49.911 3.21544 49.8787 3.31859 49.8401 3.42174C49.7885 3.52489 49.7369 3.62159 49.6853 3.71185C49.6338 3.78921 49.5757 3.87302 49.5113 3.96328C49.3436 4.16958 49.1631 4.36943 48.9697 4.56284C48.7892 4.75625 48.5894 4.93031 48.3702 5.08504C48.3444 5.13661 48.2735 5.18174 48.1574 5.22042C48.0285 5.2591 47.9189 5.31712 47.8286 5.39449C47.6868 5.49764 47.5385 5.61368 47.3838 5.74262C47.242 5.87156 47.1001 5.96826 46.9583 6.03273C46.9583 6.03273 46.9325 6.04562 46.8809 6.07141C46.7391 6.17456 46.5908 6.2906 46.4361 6.41954C46.2814 6.54848 46.1331 6.67097 45.9913 6.78701C45.9655 6.8128 45.9268 6.83859 45.8752 6.86438C45.8365 6.87727 45.7979 6.89661 45.7592 6.9224C45.6431 7.01266 45.5206 7.09002 45.3917 7.15449C45.2757 7.21896 45.1532 7.30277 45.0242 7.40592C44.9598 7.45749 44.8953 7.50262 44.8308 7.5413C44.7664 7.57998 44.7019 7.61866 44.6374 7.65734C44.5472 7.69603 44.4634 7.73471 44.386 7.77339C44.3215 7.81207 44.2571 7.86364 44.1926 7.92811ZM48.4669 2.43537C48.2864 2.39668 48.1252 2.37734 47.9834 2.37734C47.8028 2.40313 47.6288 2.43537 47.4612 2.47405C47.2935 2.49983 47.1195 2.53207 46.939 2.57075C46.8358 2.59654 46.7262 2.62233 46.6102 2.64811C46.4941 2.6739 46.3781 2.69969 46.262 2.72548C46.0428 2.77705 45.7979 2.84152 45.5271 2.91888C45.2563 2.99625 45.0307 3.0865 44.8502 3.18965C44.747 3.25412 44.6826 3.33148 44.6568 3.42174C44.6568 3.46042 44.6439 3.4991 44.6181 3.53778C44.6052 3.57646 44.5858 3.61515 44.5601 3.65383C44.4956 3.78277 44.4247 3.89881 44.3473 4.00196C44.2828 4.09222 44.2248 4.20181 44.1732 4.33075C44.083 4.51126 43.9992 4.68533 43.9218 4.85295C43.8445 5.00767 43.7478 5.1624 43.6317 5.31712C43.5543 5.42027 43.477 5.52987 43.3996 5.64592C43.3223 5.76196 43.2449 5.878 43.1675 5.99405L42.5873 6.9224C42.5615 6.98687 42.5293 7.05134 42.4906 7.11581C42.4519 7.18027 42.4197 7.24474 42.3939 7.30921C42.3552 7.37368 42.3165 7.43815 42.2779 7.50262C42.2392 7.55419 42.1876 7.60577 42.1231 7.65734C42.0587 7.70892 42.0006 7.79273 41.9491 7.90877V7.92811C41.9491 7.94101 41.9491 7.94745 41.9491 7.94745C41.962 7.94745 41.9684 7.9539 41.9684 7.9668C42.0329 7.92811 42.0909 7.88943 42.1425 7.85075C42.1941 7.81207 42.2456 7.77339 42.2972 7.73471C42.5938 7.51551 42.9225 7.32855 43.2836 7.17383C43.6575 7.0191 43.9927 6.84504 44.2893 6.65163C44.3538 6.61295 44.4118 6.56782 44.4634 6.51625C44.5149 6.46467 44.573 6.41954 44.6374 6.38086C44.7406 6.3035 44.8373 6.23258 44.9275 6.16811C45.0307 6.09075 45.1338 6.00694 45.237 5.91668C45.3917 5.81353 45.54 5.6846 45.6818 5.52987C45.8365 5.37515 45.9913 5.23976 46.146 5.12372C46.1718 5.09793 46.204 5.09793 46.2427 5.12372C46.2943 5.14951 46.3072 5.13016 46.2814 5.0657C46.2814 5.0528 46.2878 5.03346 46.3007 5.00767C46.3136 4.96899 46.333 4.9432 46.3587 4.93031C46.4619 4.82716 46.5393 4.75625 46.5908 4.71756C46.7842 4.57573 46.9647 4.40811 47.1324 4.21471C47.3 4.00841 47.4741 3.82145 47.6546 3.65383C47.7706 3.53778 47.8802 3.42174 47.9834 3.3057C48.0865 3.18965 48.1832 3.06071 48.2735 2.91888C48.2864 2.89309 48.2993 2.87375 48.3121 2.86086C48.325 2.84797 48.3315 2.83507 48.3315 2.82218C48.3315 2.75771 48.3444 2.69969 48.3702 2.64811C48.4089 2.58364 48.4411 2.51273 48.4669 2.43537ZM53.393 3.22833C53.509 3.13808 53.6444 3.13808 53.7992 3.22833C53.9281 3.2928 54.0377 3.38306 54.1279 3.4991C54.2311 3.60225 54.3149 3.7183 54.3794 3.84723C54.4181 3.93749 54.4245 4.04064 54.3987 4.15668C54.3987 4.24694 54.3923 4.33075 54.3794 4.40811C54.3665 4.48548 54.3536 4.57573 54.3407 4.67888C54.3665 4.71756 54.4116 4.74335 54.4761 4.75625V4.94965C54.4374 5.14306 54.3923 5.31068 54.3407 5.45251C54.3149 5.54277 54.2891 5.63302 54.2633 5.72328C54.2504 5.80064 54.2311 5.878 54.2053 5.95537C54.1795 6.0843 54.1408 6.20679 54.0893 6.32284C54.0377 6.42599 53.9797 6.52914 53.9152 6.63229C53.7605 6.95463 53.6057 7.27053 53.451 7.57998C53.2963 7.88943 53.148 8.21178 53.0062 8.54701C52.9675 8.65016 52.9159 8.74687 52.8515 8.83712C52.787 8.91449 52.7225 9.00474 52.6581 9.10789C52.6065 9.18526 52.5549 9.26262 52.5033 9.33998C52.4518 9.40445 52.426 9.48826 52.426 9.59141C52.426 9.6172 52.4002 9.66877 52.3486 9.74614C52.2841 9.84929 52.2197 9.94599 52.1552 10.0362C52.1036 10.1265 52.0585 10.2232 52.0198 10.3264C51.9167 10.5713 51.7555 10.7776 51.5363 10.9453C51.4331 11.0484 51.3364 11.1516 51.2462 11.2547C51.1688 11.345 51.0915 11.4481 51.0141 11.5642C50.8981 11.7318 50.7627 11.8929 50.6079 12.0477C50.4661 12.1895 50.3049 12.3184 50.1244 12.4345C50.0213 12.499 49.9246 12.5634 49.8343 12.6279C49.7441 12.6795 49.6474 12.7375 49.5442 12.802C49.4024 12.8922 49.2219 12.9373 49.0027 12.9373C48.8222 12.9373 48.6481 12.9309 48.4805 12.918C48.3257 12.9051 48.1581 12.8793 47.9776 12.8406C47.6811 12.7762 47.4812 12.673 47.3781 12.5312C47.262 12.3765 47.1911 12.1831 47.1653 11.951C47.1266 11.6673 47.1395 11.345 47.204 10.9839C47.2427 10.7519 47.2878 10.5198 47.3394 10.2877C47.3909 10.0556 47.4554 9.8235 47.5328 9.59141C47.5972 9.4109 47.6682 9.23683 47.7455 9.06921C47.8358 8.8887 47.926 8.70819 48.0163 8.52767C48.1066 8.32137 48.1968 8.12797 48.2871 7.94745C48.3902 7.75405 48.4934 7.56064 48.5965 7.36723C48.6868 7.14804 48.8028 6.9224 48.9446 6.69031C48.9704 6.66452 48.9833 6.65163 48.9833 6.65163C49.0478 6.47112 49.1316 6.30994 49.2348 6.16811C49.3379 6.02628 49.4475 5.88445 49.5635 5.74262C49.6151 5.67815 49.6603 5.62013 49.6989 5.56855C49.7376 5.50408 49.7827 5.43962 49.8343 5.37515C49.9761 5.16885 50.118 4.96899 50.2598 4.77559C50.4145 4.58218 50.5822 4.39522 50.7627 4.21471C50.8787 4.09866 50.9883 3.98262 51.0915 3.86657C51.2075 3.73764 51.3171 3.61515 51.4203 3.4991C51.446 3.48621 51.4589 3.46687 51.4589 3.44108C51.4718 3.41529 51.4912 3.4024 51.517 3.4024C51.6072 3.38951 51.6781 3.36372 51.7297 3.32504C51.7813 3.27346 51.8329 3.22833 51.8844 3.18965C51.9489 3.13808 52.0069 3.0994 52.0585 3.07361C52.1101 3.03493 52.1681 3.00269 52.2326 2.9769C52.3099 2.96401 52.3808 2.93822 52.4453 2.89954C52.5742 2.84797 52.7161 2.84152 52.8708 2.8802C53.0126 2.94467 53.1093 2.99624 53.1609 3.03493C53.2125 3.06071 53.2898 3.12518 53.393 3.22833ZM48.6352 11.7769C48.7899 11.764 48.9318 11.7318 49.0607 11.6802C49.1896 11.6157 49.3057 11.5384 49.4088 11.4481C49.7441 11.1516 50.0342 10.8357 50.2792 10.5004C50.4339 10.2941 50.5822 10.0878 50.724 9.88152C50.8658 9.67522 51.0077 9.46892 51.1495 9.26262C51.2913 9.05632 51.4331 8.84357 51.575 8.62438C51.7168 8.39229 51.8393 8.1602 51.9424 7.92811C52.0456 7.7476 52.1359 7.56064 52.2132 7.36723C52.3035 7.17383 52.3937 6.98687 52.484 6.80636C52.5871 6.60005 52.6838 6.38731 52.7741 6.16811C52.8644 5.94892 52.9417 5.72973 53.0062 5.51053C53.0578 5.34291 53.1029 5.17529 53.1416 5.00767C53.1803 4.82716 53.2189 4.64665 53.2576 4.46614C53.2834 4.40167 53.2834 4.3372 53.2576 4.27273C53.2576 4.24694 53.2512 4.23405 53.2383 4.23405C53.2254 4.22115 53.2125 4.20181 53.1996 4.17603C53.1738 4.20181 53.1351 4.2276 53.0835 4.25339C52.8772 4.45969 52.6581 4.6402 52.426 4.79493C52.3357 4.87229 52.2519 4.9561 52.1745 5.04635C52.0843 5.14951 51.9876 5.24621 51.8844 5.33647C51.7942 5.42672 51.691 5.51698 51.575 5.60723C51.4331 5.6846 51.3171 5.7813 51.2268 5.89734C51.1366 6.01339 51.0592 6.14233 50.9948 6.28416C50.9303 6.41309 50.8594 6.53559 50.782 6.65163C50.7046 6.78057 50.6144 6.90951 50.5112 7.03844C50.3694 7.14159 50.2792 7.27698 50.2405 7.4446C50.2147 7.50907 50.1953 7.57998 50.1824 7.65734C50.1696 7.72181 50.1502 7.78628 50.1244 7.85075C50.0986 7.92811 50.0664 8.00548 50.0277 8.08284C50.0019 8.1602 49.9697 8.23112 49.931 8.29559C49.8021 8.51478 49.6796 8.73397 49.5635 8.95317C49.4475 9.15947 49.3379 9.37222 49.2348 9.59141C49.1832 9.73324 49.1252 9.86863 49.0607 9.99756C48.9962 10.1136 48.9446 10.2361 48.906 10.365C48.8415 10.5713 48.7835 10.7841 48.7319 11.0033C48.6932 11.2096 48.661 11.4223 48.6352 11.6415C48.6223 11.6673 48.6159 11.6931 48.6159 11.7189C48.6287 11.7318 48.6352 11.7511 48.6352 11.7769ZM55.1167 11.0613C55.1425 11.0097 55.1941 10.9453 55.2715 10.8679C55.4133 10.6616 55.5551 10.4553 55.697 10.249C55.8517 10.0427 56.0064 9.83639 56.1611 9.63009C56.3803 9.30775 56.6253 8.9854 56.8961 8.66306C57.0766 8.44386 57.2442 8.22467 57.3989 8.00548C57.5666 7.77339 57.7406 7.54775 57.9211 7.32855C58.1145 7.08357 58.3144 6.85148 58.5207 6.63229C58.7399 6.4002 58.9591 6.16811 59.1783 5.93603C59.2041 5.91024 59.2298 5.8909 59.2556 5.878C59.2943 5.86511 59.3266 5.84577 59.3523 5.81998C59.4168 5.79419 59.4748 5.76841 59.5264 5.74262C59.5909 5.70394 59.6553 5.6717 59.7198 5.64592C59.8101 5.59434 59.8874 5.59434 59.9519 5.64592C59.9648 5.64592 59.9777 5.65236 59.9906 5.66526C60.0035 5.67815 60.0164 5.6846 60.0293 5.6846C60.1711 5.69749 60.2614 5.75551 60.3 5.85866C60.3516 5.94892 60.4096 6.03918 60.4741 6.12943C60.487 6.14233 60.4934 6.16167 60.4934 6.18745C60.4934 6.21324 60.4934 6.23903 60.4934 6.26482C60.4934 6.2906 60.487 6.32284 60.4741 6.36152C60.4741 6.38731 60.4805 6.4131 60.4934 6.43888C60.5063 6.52914 60.4805 6.60005 60.4161 6.65163C60.4032 6.66452 60.3774 6.70321 60.3387 6.76767C60.2614 6.9224 60.184 7.07712 60.1066 7.23185C60.0422 7.38657 59.9777 7.5413 59.9132 7.69603C59.8101 7.90233 59.7134 8.10218 59.6231 8.29559C59.5329 8.48899 59.4426 8.6824 59.3523 8.87581L59.1783 9.33998C59.1654 9.39156 59.1589 9.44313 59.1589 9.49471C59.1589 9.53339 59.1525 9.57852 59.1396 9.63009C59.1396 9.72035 59.1331 9.79126 59.1203 9.84284C59.0945 10.0362 59.0816 10.2297 59.0816 10.4231C59.0945 10.6036 59.1074 10.7905 59.1203 10.9839C59.1589 10.9839 59.1783 10.9839 59.1783 10.9839C59.2041 10.9453 59.2298 10.9066 59.2556 10.8679C59.2943 10.8163 59.3266 10.7647 59.3523 10.7132L59.8745 9.84284C59.9906 9.64943 60.1066 9.46247 60.2227 9.28196C60.3387 9.08855 60.4612 8.90159 60.5901 8.72108C60.7964 8.42452 60.9834 8.12797 61.151 7.83141C61.3315 7.53485 61.5056 7.23185 61.6732 6.9224L61.8473 6.69031C61.8731 6.66452 61.8924 6.63874 61.9053 6.61295C61.9182 6.58716 61.9311 6.56137 61.944 6.53559C61.9827 6.45822 62.0214 6.38731 62.06 6.32284C62.1116 6.24548 62.1503 6.16811 62.1761 6.09075C62.2405 5.92313 62.363 5.7813 62.5435 5.66526C62.6209 5.61368 62.6789 5.55566 62.7176 5.49119C62.8208 5.31068 62.9175 5.13661 63.0077 4.96899C63.1109 4.78848 63.214 4.60797 63.3172 4.42745L63.9554 3.26701C63.9812 3.21544 64.0005 3.17031 64.0134 3.13163C64.0392 3.09295 64.065 3.04782 64.0908 2.99625C64.1295 2.90599 64.1424 2.82863 64.1295 2.76416C64.1166 2.72548 64.1166 2.71903 64.1295 2.74482C64.1424 2.7706 64.1553 2.76416 64.1682 2.72548C64.1682 2.66101 64.2004 2.64167 64.2649 2.66745C64.3035 2.68035 64.3358 2.66745 64.3616 2.62877C64.3874 2.5772 64.4131 2.54496 64.4389 2.53207C64.4776 2.50628 64.5034 2.50628 64.5163 2.53207C64.5292 2.55786 64.5485 2.57075 64.5743 2.57075H64.671C64.671 2.58364 64.6839 2.64167 64.7097 2.74482C64.8129 2.69324 64.8902 2.64811 64.9418 2.60943C64.9676 2.66101 64.974 2.70614 64.9611 2.74482C64.9482 2.7706 64.9353 2.79639 64.9225 2.82218C64.9096 2.88665 64.9096 2.93178 64.9225 2.95756C64.9482 2.97046 64.9998 2.9898 65.0772 3.01559C65.0901 3.06716 65.0901 3.11229 65.0772 3.15097C65.0643 3.17676 65.0449 3.20899 65.0192 3.24767C64.8773 3.50555 64.7355 3.76987 64.5937 4.04064C64.4647 4.29852 64.3293 4.55639 64.1875 4.81427C63.9683 5.20108 63.7556 5.58789 63.5493 5.97471C63.343 6.34863 63.1367 6.72899 62.9304 7.11581L62.6983 7.52196C62.5951 7.72826 62.4855 7.92811 62.3695 8.12152C62.2663 8.30203 62.1503 8.48255 62.0214 8.66306C61.8666 8.86936 61.7248 9.07566 61.5959 9.28196C61.4669 9.48826 61.338 9.70101 61.209 9.9202C61.0801 10.1394 60.9512 10.365 60.8222 10.5971C60.6933 10.8163 60.5579 11.0355 60.4161 11.2547C60.3387 11.3836 60.2614 11.5126 60.184 11.6415C60.1066 11.7576 60.0228 11.8801 59.9326 12.009C59.8552 12.1121 59.7714 12.2217 59.6811 12.3378C59.6038 12.4538 59.52 12.5634 59.4297 12.6666C59.391 12.7053 59.3459 12.7439 59.2943 12.7826C59.2556 12.8213 59.2105 12.8664 59.1589 12.918C59.0687 13.0083 58.9462 13.0534 58.7915 13.0534C58.7528 13.0534 58.7077 13.0534 58.6561 13.0534C58.6174 13.0534 58.5723 13.0598 58.5207 13.0727C58.4304 13.0856 58.3402 13.0921 58.2499 13.0921C58.1726 13.0792 58.0952 13.0405 58.0178 12.976C57.992 12.9502 57.9534 12.9309 57.9018 12.918C57.8631 12.9051 57.8244 12.8922 57.7857 12.8793C57.76 12.8664 57.7277 12.86 57.689 12.86C57.6504 12.8471 57.6181 12.8277 57.5923 12.802C57.5666 12.7504 57.5408 12.6988 57.515 12.6472C57.4892 12.5957 57.4763 12.5441 57.4763 12.4925C57.4763 12.3765 57.4763 12.2604 57.4763 12.1444C57.4892 12.0154 57.5085 11.8929 57.5343 11.7769C57.6117 11.519 57.6761 11.2612 57.7277 11.0033C57.7793 10.7325 57.8309 10.4617 57.8824 10.191C57.8953 10.1007 57.9147 10.0105 57.9405 9.9202C57.9663 9.82995 57.992 9.73969 58.0178 9.64943C58.0178 9.58496 58.0114 9.54628 57.9985 9.53339C57.934 9.53339 57.8889 9.56562 57.8631 9.63009C57.7857 9.73324 57.7084 9.83639 57.631 9.93954C57.5537 10.0298 57.4827 10.1265 57.4183 10.2297C57.2249 10.4875 57.0315 10.7454 56.8381 11.0033C56.6575 11.2483 56.4706 11.4997 56.2772 11.7576C56.2385 11.8091 56.1934 11.8607 56.1418 11.9123C56.1031 11.9639 56.058 12.0154 56.0064 12.067C55.929 12.1702 55.8452 12.2733 55.755 12.3765C55.6776 12.4667 55.6003 12.5634 55.5229 12.6666C55.4197 12.7697 55.3166 12.8793 55.2134 12.9954C55.1103 13.0985 55.0071 13.2017 54.904 13.3048C54.8395 13.3693 54.7622 13.4144 54.6719 13.4402C54.5945 13.466 54.5043 13.4853 54.4011 13.4982C54.3367 13.4982 54.2657 13.4982 54.1884 13.4982C54.111 13.4982 54.0337 13.5047 53.9563 13.5176C53.8145 13.5305 53.6597 13.4918 53.4921 13.4015C53.4405 13.3757 53.3954 13.3499 53.3567 13.3242C53.3052 13.2984 53.2536 13.2726 53.202 13.2468C53.086 13.221 52.9957 13.1565 52.9312 13.0534C52.8539 12.9502 52.8281 12.8277 52.8539 12.6859C52.8797 12.6343 52.899 12.5828 52.9119 12.5312C52.9119 12.4796 52.9248 12.428 52.9506 12.3765C53.0279 12.1573 53.1053 11.9381 53.1827 11.7189C53.26 11.4997 53.3438 11.2805 53.4341 11.0613C53.5372 10.8034 53.6468 10.5584 53.7629 10.3264C53.866 10.0814 53.9821 9.83639 54.111 9.59141C54.2142 9.4109 54.3109 9.22394 54.4011 9.03053C54.5043 8.83712 54.6074 8.65016 54.7106 8.46965C54.8008 8.32782 54.8846 8.17954 54.962 8.02482C55.0523 7.87009 55.1425 7.72181 55.2328 7.57998C55.5293 7.06423 55.8066 6.56782 56.0644 6.09075C56.5286 5.26555 56.9605 4.42101 57.3603 3.55712C57.386 3.53134 57.3989 3.50555 57.3989 3.47976C57.4247 3.36372 57.4698 3.27991 57.5343 3.22833C57.6117 3.16386 57.7019 3.11874 57.8051 3.09295C57.8309 3.08006 57.8567 3.07361 57.8824 3.07361C57.9211 3.06071 57.9534 3.04782 57.9792 3.03493C58.0436 2.97046 58.1145 2.93822 58.1919 2.93822C58.2822 2.93822 58.366 2.93822 58.4433 2.93822C58.4691 2.93822 58.4949 2.95112 58.5207 2.9769C58.6367 3.05427 58.7334 3.15097 58.8108 3.26701C58.9011 3.37016 58.9591 3.49266 58.9849 3.63449C59.0235 3.86657 58.9849 4.05998 58.8688 4.21471C58.843 4.26628 58.8044 4.31786 58.7528 4.36943C58.7141 4.42101 58.6754 4.47258 58.6367 4.52416C58.5207 4.6531 58.4562 4.78848 58.4433 4.93031C58.4175 5.05925 58.3789 5.18174 58.3273 5.29778C58.2757 5.40093 58.2177 5.50408 58.1532 5.60723C58.0888 5.74907 58.0114 5.8909 57.9211 6.03273C57.8438 6.16167 57.7664 6.29705 57.689 6.43888C57.6246 6.54203 57.5537 6.65163 57.4763 6.76767C57.4118 6.87082 57.3474 6.98042 57.2829 7.09647C57.2313 7.17383 57.1797 7.25119 57.1282 7.32855C57.0895 7.40592 57.0508 7.48973 57.0121 7.57998C56.9477 7.70892 56.8832 7.83786 56.8187 7.9668C56.7671 8.09573 56.6962 8.22467 56.606 8.35361C56.5544 8.43097 56.5093 8.48899 56.4706 8.52767C56.3416 8.66951 56.232 8.82423 56.1418 8.99185C56.0515 9.15947 55.9677 9.33354 55.8904 9.51405C55.8259 9.66877 55.755 9.8235 55.6776 9.97822C55.6003 10.1201 55.51 10.2619 55.4068 10.4037C55.3424 10.4811 55.2844 10.5713 55.2328 10.6745C55.1812 10.7647 55.1296 10.8614 55.0781 10.9646V11.0226C55.0781 11.0226 55.0909 11.0355 55.1167 11.0613ZM63.7171 12.3184C63.7945 12.3184 63.859 12.3055 63.9105 12.2798C64.0266 12.2282 64.1362 12.1831 64.2393 12.1444C64.3425 12.0928 64.4521 12.0412 64.5681 11.9897C64.8905 11.8478 65.2128 11.7253 65.5352 11.6222C65.8704 11.5061 66.2056 11.403 66.5409 11.3127C66.7987 11.274 67.0373 11.2612 67.2565 11.274C67.3209 11.274 67.4048 11.2869 67.5079 11.3127C67.6111 11.3256 67.6691 11.3643 67.682 11.4288C67.682 11.4675 67.6949 11.4997 67.7207 11.5255C67.7593 11.5513 67.7851 11.5771 67.798 11.6028C67.7722 11.6415 67.7464 11.6738 67.7207 11.6995C67.7078 11.7253 67.7013 11.7705 67.7013 11.8349C67.7271 11.8994 67.6949 11.9574 67.6046 12.009C67.5144 12.0606 67.4757 12.1186 67.4886 12.1831C67.3596 12.2088 67.2307 12.2475 67.1018 12.2991C66.9857 12.3507 66.8632 12.3958 66.7343 12.4345C66.6053 12.4603 66.5215 12.499 66.4828 12.5505C66.4571 12.5892 66.4055 12.6214 66.3281 12.6472L65.4578 12.9954C65.2773 13.0598 65.1032 13.1243 64.9356 13.1888C64.768 13.2532 64.6068 13.3306 64.4521 13.4209C64.2716 13.5111 64.0846 13.5691 63.8912 13.5949C63.7107 13.6207 63.5173 13.6336 63.311 13.6336C63.2465 13.6207 63.1885 13.6078 63.1369 13.5949C63.0982 13.582 63.0531 13.5627 63.0015 13.5369C62.8984 13.4853 62.8017 13.4338 62.7114 13.3822C62.6212 13.3435 62.518 13.2984 62.402 13.2468C62.3633 13.2339 62.2924 13.2017 62.1892 13.1501C62.0732 13.0856 62.0345 12.9954 62.0732 12.8793C62.099 12.7375 62.1248 12.6021 62.1505 12.4732C62.1634 12.3313 62.1828 12.1895 62.2086 12.0477C62.2472 11.9316 62.2988 11.8091 62.3633 11.6802C62.3891 11.6157 62.4213 11.5577 62.46 11.5061C62.4858 11.4546 62.518 11.3965 62.5567 11.3321C62.6985 11.0226 62.8404 10.7067 62.9822 10.3844C63.124 10.0491 63.2723 9.72035 63.427 9.398C63.5173 9.2046 63.6075 9.01764 63.6978 8.83712C63.8009 8.65661 63.917 8.4761 64.0459 8.29559C64.1362 8.14086 64.2264 7.98614 64.3167 7.83141C64.4198 7.66379 64.5165 7.49617 64.6068 7.32855C64.7357 7.10936 64.8582 6.89661 64.9743 6.69031C65.0903 6.48401 65.2128 6.27771 65.3417 6.07141C65.432 5.95537 65.5223 5.84577 65.6125 5.74262C65.7028 5.62657 65.7866 5.50408 65.8639 5.37515C65.9671 5.24621 66.0638 5.09793 66.1541 4.93031C66.2314 4.78848 66.3023 4.64665 66.3668 4.50482C66.4313 4.35009 66.4893 4.18892 66.5409 4.0213C66.5667 3.91815 66.5989 3.82145 66.6376 3.73119C66.6891 3.64093 66.7278 3.54423 66.7536 3.44108C66.7794 3.38951 66.7923 3.34438 66.7923 3.3057C66.8052 3.25412 66.8245 3.1961 66.8503 3.13163C66.9277 3.04137 67.0179 2.9769 67.1211 2.93822C67.2371 2.88665 67.3467 2.83507 67.4499 2.7835C67.5015 2.75771 67.553 2.75126 67.6046 2.76416C67.6562 2.76416 67.7142 2.7706 67.7787 2.7835C67.8431 2.80929 67.9012 2.82863 67.9527 2.84152C68.0172 2.85441 68.0817 2.86086 68.1461 2.86086C68.2106 2.86086 68.2686 2.85441 68.3202 2.84152C68.3847 2.81573 68.4491 2.78994 68.5136 2.76416C68.7457 2.68679 68.9907 2.62877 69.2486 2.59009C69.5064 2.55141 69.7643 2.51273 70.0222 2.47405C70.2027 2.44826 70.3639 2.46115 70.5057 2.51273C70.6604 2.55141 70.8087 2.62877 70.9505 2.74482C70.9505 2.84797 70.957 2.91888 70.9699 2.95756C70.9957 2.98335 71.0666 3.03493 71.1826 3.11229C71.1568 3.12518 71.1375 3.13808 71.1246 3.15097C71.1117 3.15097 71.0924 3.15742 71.0666 3.17031C71.0408 3.27346 71.0601 3.35727 71.1246 3.42174C71.1891 3.47331 71.2278 3.54423 71.2407 3.63449C71.0472 3.67317 70.8474 3.71185 70.6411 3.75053C70.4477 3.78921 70.2543 3.82145 70.0609 3.84723C69.9319 3.86013 69.7643 3.87947 69.558 3.90526C69.3517 3.93104 69.1841 3.96328 69.0552 4.00196C68.9778 4.02775 68.9004 4.04709 68.8231 4.05998C68.7457 4.07288 68.6683 4.09222 68.591 4.118C68.5523 4.1309 68.5201 4.14379 68.4943 4.15668C68.4685 4.15668 68.4298 4.16313 68.3782 4.17603C68.3653 4.20181 68.3524 4.23405 68.3396 4.27273C68.3267 4.31141 68.3138 4.34364 68.3009 4.36943C68.2364 4.58863 68.1655 4.80137 68.0881 5.00767C68.0237 5.21397 67.9398 5.40738 67.8367 5.58789C67.7593 5.72972 67.6691 5.87156 67.5659 6.01339C67.4757 6.14233 67.3725 6.25837 67.2565 6.36152C67.1662 6.43888 67.0824 6.52914 67.005 6.63229C66.9406 6.72255 66.8954 6.81925 66.8697 6.9224C66.831 6.99976 66.7859 7.07712 66.7343 7.15449C66.6956 7.21896 66.6569 7.29632 66.6182 7.38658C66.644 7.38658 66.6634 7.39302 66.6763 7.40592C66.6891 7.40592 66.7085 7.40592 66.7343 7.40592C66.8632 7.36723 67.0179 7.32855 67.1985 7.28987C67.3016 7.26408 67.4499 7.25119 67.6433 7.25119C67.8367 7.2383 67.985 7.2254 68.0881 7.21251C68.346 7.18672 68.5974 7.23185 68.8424 7.34789C68.8682 7.42526 68.8875 7.50262 68.9004 7.57998C68.9133 7.64445 68.9713 7.68958 69.0745 7.71537C69.0358 7.72826 68.9971 7.74115 68.9585 7.75405C68.9327 7.76694 68.9069 7.77984 68.8811 7.79273C68.894 7.87009 68.9327 7.94745 68.9971 8.02482C69.01 8.0635 69.0294 8.13441 69.0552 8.23756C69.0294 8.25046 68.9971 8.2569 68.9585 8.2569C68.9198 8.2569 68.8875 8.26335 68.8618 8.27625C68.6812 8.32782 68.5007 8.37295 68.3202 8.41163C68.1397 8.45031 67.9592 8.49544 67.7787 8.54701C67.6884 8.5728 67.6046 8.59859 67.5272 8.62438C67.4499 8.63727 67.3725 8.65661 67.2952 8.6824C67.0889 8.72108 66.889 8.7791 66.6956 8.85647C66.5538 8.90804 66.4055 8.95317 66.2508 8.99185C66.096 9.01764 65.9413 9.01764 65.7866 8.99185C65.6576 8.97896 65.5545 9.02408 65.4771 9.12723C65.4127 9.25617 65.3417 9.37866 65.2644 9.49471C65.1999 9.61075 65.1354 9.73324 65.071 9.86218C65.0323 9.93954 64.9872 10.0169 64.9356 10.0943C64.8969 10.1716 64.8518 10.249 64.8002 10.3264C64.7486 10.4037 64.6971 10.4811 64.6455 10.5584C64.5939 10.6358 64.5488 10.7261 64.5101 10.8292C64.4972 10.855 64.4908 10.8679 64.4908 10.8679C64.4134 10.9324 64.3554 11.0097 64.3167 11.1C64.278 11.1773 64.2458 11.2612 64.22 11.3514C64.1555 11.4675 64.0911 11.5835 64.0266 11.6995C63.975 11.8156 63.917 11.9316 63.8525 12.0477C63.8267 12.0864 63.8009 12.1315 63.7752 12.1831C63.7623 12.2217 63.7429 12.2669 63.7171 12.3184ZM72.9166 3.9246C72.8651 3.9246 72.8135 3.93104 72.7619 3.94394C72.7103 3.94394 72.6652 3.9117 72.6265 3.84723C72.6523 3.82145 72.6717 3.80211 72.6846 3.78921C72.7103 3.77632 72.7361 3.75698 72.7619 3.73119C72.749 3.7183 72.7361 3.71185 72.7232 3.71185C72.6717 3.68606 72.6523 3.64738 72.6652 3.59581C72.7039 3.58291 72.7555 3.57646 72.8199 3.57646C72.936 3.57646 73.0262 3.53778 73.0907 3.46042C73.1423 3.42174 73.2068 3.38951 73.2841 3.36372C73.3744 3.33793 73.4324 3.29925 73.4582 3.24767C73.5355 3.14452 73.6258 3.0865 73.7289 3.07361C73.7547 3.07361 73.7676 3.06716 73.7676 3.05427C73.7805 3.04137 73.7999 3.02848 73.8257 3.01559C73.8514 2.9898 73.8772 2.9769 73.903 2.9769C73.9288 2.96401 73.9546 2.94467 73.9804 2.91888C74.0577 2.85441 74.148 2.83507 74.2511 2.86086C74.3027 2.87375 74.3672 2.86731 74.4446 2.84152C74.5348 2.81573 74.6186 2.78994 74.696 2.76416C74.7862 2.72548 74.87 2.68679 74.9474 2.64811C75.2311 2.54496 75.4696 2.48694 75.663 2.47405C75.8693 2.46115 76.1272 2.44181 76.4366 2.41603C76.5398 2.40313 76.6429 2.39668 76.7461 2.39668C76.8492 2.39668 76.9588 2.39024 77.0749 2.37734H77.2876C77.3263 2.39024 77.365 2.40313 77.4037 2.41603C77.4552 2.42892 77.5004 2.44826 77.5391 2.47405C77.6293 2.53852 77.7067 2.59009 77.7711 2.62877C77.8485 2.66745 77.9194 2.71903 77.9839 2.7835C78.2031 2.96401 78.3707 3.17031 78.4868 3.4024C78.4868 3.44108 78.5061 3.47976 78.5448 3.51844C78.6092 3.66027 78.635 3.80211 78.6221 3.94394C78.6221 4.07288 78.5899 4.20826 78.5254 4.35009C78.461 4.5306 78.3772 4.69822 78.274 4.85295C78.1709 4.99478 78.0613 5.13661 77.9452 5.27844C77.855 5.39449 77.7583 5.50408 77.6551 5.60723C77.552 5.69749 77.4488 5.79419 77.3457 5.89734C77.2425 6.00049 77.1329 6.0972 77.0169 6.18745C76.9137 6.27771 76.8106 6.37441 76.7074 6.47756C76.6816 6.56782 76.6172 6.61295 76.514 6.61295C76.4882 6.61295 76.4624 6.62584 76.4366 6.65163C76.4237 6.66452 76.4044 6.67742 76.3786 6.69031C76.1207 6.88372 75.9144 7.05134 75.7597 7.19317C75.605 7.32211 75.3858 7.47683 75.1021 7.65734C74.9474 7.77339 74.7927 7.88943 74.638 8.00548C74.4832 8.10863 74.3285 8.21822 74.1738 8.33427C74.0835 8.39874 73.9933 8.46321 73.903 8.52767C73.8257 8.59214 73.7354 8.65661 73.6322 8.72108C73.4775 8.82423 73.3744 8.91449 73.3228 8.99185C73.2712 9.06921 73.1745 9.16592 73.0327 9.28196C72.9811 9.35932 72.936 9.40445 72.8973 9.41734C72.9102 9.48181 72.9231 9.53339 72.936 9.57207C72.9489 9.61075 72.9682 9.64943 72.994 9.68811C73.0585 9.80416 73.1229 9.9202 73.1874 10.0362C73.2519 10.1394 73.3163 10.249 73.3808 10.365C73.4324 10.4295 73.4711 10.5004 73.4969 10.5778C73.5355 10.6551 73.5678 10.7261 73.5936 10.7905C73.6322 10.8679 73.6645 10.9453 73.6903 11.0226C73.7161 11.0871 73.7354 11.158 73.7483 11.2354C73.8128 11.3643 73.8772 11.4868 73.9417 11.6028C74.0191 11.706 74.1093 11.8091 74.2125 11.9123C74.2511 11.951 74.2898 11.9897 74.3285 12.0283C74.3801 12.067 74.4188 12.0992 74.4446 12.125C74.5477 12.1637 74.5993 12.2475 74.5993 12.3765C74.5735 12.3894 74.509 12.4151 74.4059 12.4538C74.3027 12.4796 74.2383 12.499 74.2125 12.5119C74.2254 12.5376 74.2705 12.5441 74.3478 12.5312C74.4252 12.5183 74.4639 12.5247 74.4639 12.5505C74.4381 12.5763 74.3736 12.615 74.2705 12.6666C74.1802 12.7182 74.1029 12.7375 74.0384 12.7246C74.0384 12.7117 74.0255 12.7053 73.9997 12.7053C73.8837 12.7697 73.7741 12.7762 73.6709 12.7246C73.5678 12.6601 73.4711 12.5957 73.3808 12.5312C73.2777 12.4667 73.1745 12.37 73.0714 12.2411C72.8909 12.0348 72.7426 11.8091 72.6265 11.5642C72.5878 11.4739 72.5427 11.3836 72.4911 11.2934C72.4396 11.2031 72.4009 11.1064 72.3751 11.0033C72.2848 10.7841 72.1559 10.5327 71.9883 10.249C71.9754 10.2232 71.9625 10.2103 71.9496 10.2103C71.9367 10.1974 71.9238 10.1781 71.9109 10.1523C71.898 10.1523 71.8851 10.1523 71.8722 10.1523C71.8594 10.1394 71.8465 10.1329 71.8336 10.1329C71.7562 10.1458 71.7046 10.1523 71.6788 10.1523C71.6659 10.1394 71.6402 10.1201 71.6015 10.0943C71.537 10.1072 71.4725 10.1201 71.4081 10.1329C71.3436 10.1458 71.2727 10.1652 71.1953 10.191C71.1309 10.2941 71.0728 10.4037 71.0213 10.5198C70.9826 10.6229 70.931 10.7261 70.8665 10.8292C70.7892 10.9839 70.7311 11.0935 70.6925 11.158C70.6667 11.2225 70.6344 11.2805 70.5958 11.3321C70.57 11.3836 70.5377 11.4417 70.4991 11.5061C70.4733 11.5706 70.4217 11.6802 70.3443 11.8349C70.2412 12.0154 70.1445 12.1895 70.0542 12.3571C69.964 12.5247 69.8737 12.6924 69.7835 12.86C69.7577 12.8987 69.7383 12.9373 69.7254 12.976C69.7254 13.0147 69.7125 13.0534 69.6868 13.0921C69.6223 13.0921 69.5707 13.1179 69.532 13.1694C69.5191 13.1952 69.5062 13.221 69.4933 13.2468C69.4804 13.2726 69.4676 13.2984 69.4547 13.3242C69.4289 13.3628 69.4095 13.3951 69.3966 13.4209C69.3837 13.4595 69.3451 13.4724 69.2806 13.4595C69.2806 13.4595 69.2613 13.4789 69.2226 13.5176C69.1968 13.5434 69.1774 13.5691 69.1646 13.5949C69.1517 13.6336 69.1259 13.6594 69.0872 13.6723L69.0292 13.6143C68.9002 13.6272 68.8229 13.7045 68.7971 13.8464C68.7326 13.8206 68.6681 13.7948 68.6037 13.769C68.5392 13.7561 68.4747 13.7303 68.4103 13.6916C68.3587 13.6658 68.3071 13.6465 68.2555 13.6336C68.1911 13.6336 68.1266 13.6207 68.0621 13.5949C68.0492 13.4273 68.075 13.2726 68.1395 13.1308C68.204 12.9889 68.2684 12.8471 68.3329 12.7053C68.4232 12.5247 68.5134 12.3507 68.6037 12.1831C68.6939 12.0154 68.7842 11.8414 68.8744 11.6609C68.9518 11.4932 69.0163 11.3708 69.0678 11.2934C69.1065 11.2031 69.1452 11.1258 69.1839 11.0613C69.2097 10.9968 69.2484 10.9259 69.2999 10.8486C69.3386 10.7583 69.4031 10.6294 69.4933 10.4617C69.6094 10.2039 69.7254 9.94599 69.8415 9.68811C69.9704 9.43024 70.1122 9.17881 70.267 8.93383C70.3314 8.83068 70.3959 8.73397 70.4604 8.64372C70.5248 8.55346 70.5893 8.45676 70.6538 8.35361C70.7827 8.13441 70.8988 7.91522 71.0019 7.69603C71.1051 7.47683 71.2276 7.25764 71.3694 7.03844C71.4725 6.85793 71.5692 6.67742 71.6595 6.4969C71.7626 6.3035 71.8658 6.11654 71.9689 5.93603C72.0592 5.7813 72.143 5.62657 72.2204 5.47185C72.2977 5.31712 72.388 5.16885 72.4911 5.02701C72.5427 4.93676 72.5685 4.84005 72.5685 4.7369C72.5943 4.67244 72.6265 4.62731 72.6652 4.60152C72.7039 4.49837 72.7426 4.39522 72.7813 4.29207C72.8328 4.17603 72.878 4.05353 72.9166 3.9246ZM72.3171 8.31493C72.4073 8.25046 72.4911 8.19244 72.5685 8.14086C72.6459 8.08929 72.7232 8.03771 72.8006 7.98614C72.9811 7.87009 73.1552 7.75405 73.3228 7.638C73.4904 7.52196 73.6516 7.40592 73.8063 7.28987C73.8579 7.26408 73.903 7.2383 73.9417 7.21251C73.9933 7.17383 74.0384 7.12225 74.0771 7.05778C74.0771 7.04489 74.0964 7.0191 74.1351 6.98042C74.264 6.87727 74.393 6.78057 74.5219 6.69031C74.6509 6.58716 74.7798 6.48401 74.9087 6.38086C74.9345 6.36797 74.9603 6.34863 74.9861 6.32284C75.0763 6.20679 75.1731 6.11654 75.2762 6.05207C75.418 5.96181 75.5212 5.85866 75.5857 5.74262C75.6114 5.69104 75.6308 5.65881 75.6437 5.64592C75.7984 5.51698 75.8951 5.42027 75.9338 5.35581C75.9854 5.29134 76.0885 5.18819 76.2432 5.04635C76.3206 4.9561 76.4044 4.87229 76.4947 4.79493C76.5849 4.70467 76.6816 4.61441 76.7848 4.52416C76.8363 4.45969 76.8815 4.40811 76.9202 4.36943C76.9717 4.31786 77.0169 4.25983 77.0555 4.19537C77.1716 4.07932 77.2296 3.98907 77.2296 3.9246C77.2425 3.86013 77.2554 3.80211 77.2683 3.75053C77.2812 3.68606 77.3005 3.62804 77.3263 3.57646C77.2618 3.53778 77.2232 3.51844 77.2103 3.51844C77.1974 3.50555 77.1587 3.4991 77.0942 3.4991C76.9008 3.4991 76.7139 3.512 76.5333 3.53778C76.3528 3.56357 76.1723 3.59581 75.9918 3.63449C75.9531 3.64738 75.9273 3.64738 75.9144 3.63449C75.9144 3.62159 75.9144 3.61515 75.9144 3.61515C75.9273 3.60225 75.9273 3.59581 75.9144 3.59581C75.9144 3.58291 75.8951 3.58291 75.8564 3.59581C75.7146 3.63449 75.5728 3.67962 75.4309 3.73119C75.302 3.76987 75.1666 3.815 75.0248 3.86657C74.9345 3.89236 74.8894 3.93749 74.8894 4.00196C74.8507 4.1309 74.7798 4.23405 74.6766 4.31141C74.5864 4.42745 74.5026 4.54994 74.4252 4.67888C74.3478 4.79493 74.2963 4.92386 74.2705 5.0657C74.2447 5.13016 74.2189 5.18819 74.1931 5.23976C74.1673 5.27844 74.1415 5.31712 74.1158 5.35581C73.9997 5.575 73.8708 5.7813 73.7289 5.97471C73.5871 6.16811 73.4582 6.37441 73.3421 6.59361C73.2777 6.69676 73.2003 6.79346 73.11 6.88372C73.0327 6.97397 72.9553 7.07068 72.878 7.17383C72.7619 7.35434 72.6588 7.5413 72.5685 7.73471C72.4783 7.91522 72.3944 8.10863 72.3171 8.31493ZM77.6371 12.3184C77.7145 12.3184 77.779 12.3055 77.8305 12.2798C77.9466 12.2282 78.0562 12.1831 78.1593 12.1444C78.2625 12.0928 78.3721 12.0412 78.4881 11.9897C78.8105 11.8478 79.1328 11.7253 79.4551 11.6222C79.7904 11.5061 80.1256 11.403 80.4609 11.3127C80.7187 11.274 80.9573 11.2612 81.1765 11.274C81.2409 11.274 81.3247 11.2869 81.4279 11.3127C81.531 11.3256 81.5891 11.3643 81.602 11.4288C81.602 11.4675 81.6149 11.4997 81.6406 11.5255C81.6793 11.5513 81.7051 11.5771 81.718 11.6028C81.6922 11.6415 81.6664 11.6738 81.6406 11.6995C81.6277 11.7253 81.6213 11.7705 81.6213 11.8349C81.6471 11.8994 81.6149 11.9574 81.5246 12.009C81.4343 12.0606 81.3957 12.1186 81.4085 12.1831C81.2796 12.2088 81.1507 12.2475 81.0217 12.2991C80.9057 12.3507 80.7832 12.3958 80.6543 12.4345C80.5253 12.4603 80.4415 12.499 80.4028 12.5505C80.377 12.5892 80.3255 12.6214 80.2481 12.6472L79.3778 12.9954C79.1973 13.0598 79.0232 13.1243 78.8556 13.1888C78.688 13.2532 78.5268 13.3306 78.3721 13.4209C78.1916 13.5111 78.0046 13.5691 77.8112 13.5949C77.6307 13.6207 77.4373 13.6336 77.231 13.6336C77.1665 13.6207 77.1085 13.6078 77.0569 13.5949C77.0182 13.582 76.9731 13.5627 76.9215 13.5369C76.8184 13.4853 76.7217 13.4338 76.6314 13.3822C76.5412 13.3435 76.438 13.2984 76.322 13.2468C76.2833 13.2339 76.2124 13.2017 76.1092 13.1501C75.9932 13.0856 75.9545 12.9954 75.9932 12.8793C76.019 12.7375 76.0447 12.6021 76.0705 12.4732C76.0834 12.3313 76.1028 12.1895 76.1285 12.0477C76.1672 11.9316 76.2188 11.8091 76.2833 11.6802C76.3091 11.6157 76.3413 11.5577 76.38 11.5061C76.4058 11.4546 76.438 11.3965 76.4767 11.3321C76.6185 11.0226 76.7603 10.7067 76.9022 10.3844C77.044 10.0491 77.1923 9.72035 77.347 9.398C77.4373 9.2046 77.5275 9.01764 77.6178 8.83712C77.7209 8.65661 77.837 8.4761 77.9659 8.29559C78.0562 8.14086 78.1464 7.98614 78.2367 7.83141C78.3398 7.66379 78.4365 7.49617 78.5268 7.32855C78.6557 7.10936 78.7782 6.89661 78.8943 6.69031C79.0103 6.48401 79.1328 6.27771 79.2617 6.07141C79.352 5.95537 79.4422 5.84577 79.5325 5.74262C79.6228 5.62657 79.7066 5.50408 79.7839 5.37515C79.8871 5.24621 79.9838 5.09793 80.074 4.93031C80.1514 4.78848 80.2223 4.64665 80.2868 4.50482C80.3513 4.35009 80.4093 4.18892 80.4609 4.0213C80.4866 3.91815 80.5189 3.82145 80.5576 3.73119C80.6091 3.64093 80.6478 3.54423 80.6736 3.44108C80.6994 3.38951 80.7123 3.34438 80.7123 3.3057C80.7252 3.25412 80.7445 3.1961 80.7703 3.13163C80.8477 3.04137 80.9379 2.9769 81.0411 2.93822C81.1571 2.88665 81.2667 2.83507 81.3699 2.7835C81.4214 2.75771 81.473 2.75126 81.5246 2.76416C81.5762 2.76416 81.6342 2.7706 81.6987 2.7835C81.7631 2.80929 81.8212 2.82863 81.8727 2.84152C81.9372 2.85441 82.0017 2.86086 82.0661 2.86086C82.1306 2.86086 82.1886 2.85441 82.2402 2.84152C82.3047 2.81573 82.3691 2.78994 82.4336 2.76416C82.6657 2.68679 82.9107 2.62877 83.1685 2.59009C83.4264 2.55141 83.6843 2.51273 83.9422 2.47405C84.1227 2.44826 84.2839 2.46115 84.4257 2.51273C84.5804 2.55141 84.7287 2.62877 84.8705 2.74482C84.8705 2.84797 84.877 2.91888 84.8899 2.95756C84.9157 2.98335 84.9866 3.03493 85.1026 3.11229C85.0768 3.12518 85.0575 3.13808 85.0446 3.15097C85.0317 3.15097 85.0124 3.15742 84.9866 3.17031C84.9608 3.27346 84.9801 3.35727 85.0446 3.42174C85.1091 3.47331 85.1477 3.54423 85.1606 3.63449C84.9672 3.67317 84.7674 3.71185 84.5611 3.75053C84.3677 3.78921 84.1743 3.82145 83.9809 3.84723C83.8519 3.86013 83.6843 3.87947 83.478 3.90526C83.2717 3.93104 83.1041 3.96328 82.9751 4.00196C82.8978 4.02775 82.8204 4.04709 82.7431 4.05998C82.6657 4.07288 82.5883 4.09222 82.511 4.118C82.4723 4.1309 82.4401 4.14379 82.4143 4.15668C82.3885 4.15668 82.3498 4.16313 82.2982 4.17603C82.2853 4.20181 82.2724 4.23405 82.2595 4.27273C82.2466 4.31141 82.2338 4.34364 82.2209 4.36943C82.1564 4.58863 82.0855 4.80137 82.0081 5.00767C81.9436 5.21397 81.8598 5.40738 81.7567 5.58789C81.6793 5.72972 81.5891 5.87156 81.4859 6.01339C81.3957 6.14233 81.2925 6.25837 81.1765 6.36152C81.0862 6.43888 81.0024 6.52914 80.925 6.63229C80.8606 6.72255 80.8154 6.81925 80.7896 6.9224C80.751 6.99976 80.7058 7.07712 80.6543 7.15449C80.6156 7.21896 80.5769 7.29632 80.5382 7.38658C80.564 7.38658 80.5833 7.39302 80.5962 7.40592C80.6091 7.40592 80.6285 7.40592 80.6543 7.40592C80.7832 7.36723 80.9379 7.32855 81.1184 7.28987C81.2216 7.26408 81.3699 7.25119 81.5633 7.25119C81.7567 7.2383 81.905 7.2254 82.0081 7.21251C82.266 7.18672 82.5174 7.23185 82.7624 7.34789C82.7882 7.42526 82.8075 7.50262 82.8204 7.57998C82.8333 7.64445 82.8913 7.68958 82.9945 7.71537C82.9558 7.72826 82.9171 7.74115 82.8784 7.75405C82.8527 7.76694 82.8269 7.77984 82.8011 7.79273C82.814 7.87009 82.8527 7.94745 82.9171 8.02482C82.93 8.0635 82.9494 8.13441 82.9751 8.23756C82.9494 8.25046 82.9171 8.2569 82.8784 8.2569C82.8398 8.2569 82.8075 8.26335 82.7817 8.27625C82.6012 8.32782 82.4207 8.37295 82.2402 8.41163C82.0597 8.45031 81.8792 8.49544 81.6987 8.54701C81.6084 8.5728 81.5246 8.59859 81.4472 8.62438C81.3699 8.63727 81.2925 8.65661 81.2151 8.6824C81.0088 8.72108 80.809 8.7791 80.6156 8.85647C80.4738 8.90804 80.3255 8.95317 80.1707 8.99185C80.016 9.01764 79.8613 9.01764 79.7066 8.99185C79.5776 8.97896 79.4745 9.02408 79.3971 9.12723C79.3327 9.25617 79.2617 9.37866 79.1844 9.49471C79.1199 9.61075 79.0554 9.73324 78.991 9.86218C78.9523 9.93954 78.9072 10.0169 78.8556 10.0943C78.8169 10.1716 78.7718 10.249 78.7202 10.3264C78.6686 10.4037 78.617 10.4811 78.5655 10.5584C78.5139 10.6358 78.4688 10.7261 78.4301 10.8292C78.4172 10.855 78.4107 10.8679 78.4107 10.8679C78.3334 10.9324 78.2754 11.0097 78.2367 11.1C78.198 11.1773 78.1658 11.2612 78.14 11.3514C78.0755 11.4675 78.011 11.5835 77.9466 11.6995C77.895 11.8156 77.837 11.9316 77.7725 12.0477C77.7467 12.0864 77.7209 12.1315 77.6951 12.1831C77.6822 12.2217 77.6629 12.2669 77.6371 12.3184ZM84.2837 13.2468C84.3094 13.221 84.3223 13.2017 84.3223 13.1888C84.2837 13.1243 84.2708 13.0921 84.2837 13.0921C84.2579 13.0663 84.2256 13.0598 84.187 13.0727C84.1225 13.0985 84.0645 13.1308 84.0129 13.1694C83.9613 13.2081 83.9226 13.2661 83.8968 13.3435C83.8711 13.3564 83.8453 13.3564 83.8195 13.3435C83.7937 13.3306 83.7679 13.3371 83.7421 13.3628C83.7163 13.3886 83.697 13.3693 83.6841 13.3048C83.6841 13.2403 83.6583 13.2146 83.6067 13.2275C83.5809 13.2403 83.5681 13.2468 83.5681 13.2468C83.5681 13.2339 83.5552 13.2339 83.5294 13.2468C83.4778 13.2339 83.4456 13.2081 83.4327 13.1694C83.4069 13.1308 83.3746 13.0985 83.336 13.0727C83.3102 13.0856 83.2908 13.0856 83.2779 13.0727C83.2522 13.0598 83.2199 13.0598 83.1812 13.0727C83.1812 13.034 83.1683 13.0018 83.1426 12.976C83.1297 12.8858 83.1168 12.8342 83.1039 12.8213C83.091 12.8084 83.0459 12.802 82.9685 12.802C82.8911 12.802 82.846 12.7955 82.8331 12.7826C82.8202 12.7568 82.8009 12.7117 82.7751 12.6472C82.7622 12.5828 82.7622 12.5376 82.7751 12.5119C82.788 12.4861 82.7944 12.4409 82.7944 12.3765C82.8073 12.312 82.8073 12.2669 82.7944 12.2411C82.7815 12.2024 82.7686 12.1702 82.7557 12.1444C82.7429 12.1186 82.7364 12.0928 82.7364 12.067C82.7235 12.0412 82.7364 11.9961 82.7751 11.9316C82.8782 11.7898 82.9556 11.6673 83.0072 11.5642C83.0587 11.461 83.1361 11.3321 83.2393 11.1773C83.3295 11.0097 83.4069 10.8421 83.4714 10.6745C83.5229 10.5069 83.6003 10.3328 83.7034 10.1523C83.8066 9.9331 83.9097 9.7139 84.0129 9.49471C84.1289 9.26262 84.2385 9.03053 84.3417 8.79844C84.4835 8.51478 84.6189 8.23756 84.7478 7.9668C84.8768 7.68313 84.9928 7.39302 85.096 7.09647C85.1604 6.91595 85.2314 6.74833 85.3087 6.59361C85.399 6.42599 85.4763 6.25837 85.5408 6.09075C85.7084 5.72973 85.876 5.37515 86.0437 5.02701C86.2113 4.66599 86.3853 4.30496 86.5659 3.94394C86.6303 3.815 86.6883 3.69251 86.7399 3.57646C86.7915 3.44753 86.8366 3.31214 86.8753 3.17031V3.09295C86.9785 2.96401 87.0816 2.84797 87.1848 2.74482C87.3008 2.64167 87.4426 2.57075 87.6103 2.53207C87.636 2.53207 87.6554 2.53207 87.6683 2.53207C87.6941 2.51918 87.7198 2.51918 87.7456 2.53207C87.8359 2.55786 87.9197 2.58364 87.9971 2.60943C88.0744 2.62233 88.1518 2.65456 88.2292 2.70613C88.371 2.7835 88.4677 2.82218 88.5193 2.82218C88.5708 2.82218 88.6804 2.79639 88.8481 2.74482C88.9899 2.70614 89.1317 2.66745 89.2735 2.62877C89.4283 2.59009 89.5766 2.55786 89.7184 2.53207C89.8989 2.50628 90.073 2.49339 90.2406 2.49339C90.4082 2.49339 90.5823 2.52562 90.7628 2.59009C90.8401 2.61588 90.924 2.65456 91.0142 2.70613C91.1174 2.75771 91.2012 2.81573 91.2656 2.8802C91.343 2.95756 91.4268 3.02848 91.5171 3.09295C91.6073 3.14452 91.6847 3.22189 91.7492 3.32504C91.8781 3.49266 91.9812 3.66672 92.0586 3.84723C92.1489 4.02775 92.1811 4.23405 92.1553 4.46614C92.1424 4.50482 92.136 4.56284 92.136 4.6402C92.136 4.82071 92.0973 4.97544 92.0199 5.10438C92.007 5.14306 91.9941 5.18174 91.9812 5.22042C91.9683 5.2591 91.9555 5.29778 91.9426 5.33647C91.7749 5.86511 91.5106 6.36797 91.1496 6.84504C90.9562 7.10291 90.7563 7.35434 90.55 7.59932C90.3437 7.83141 90.1181 8.05705 89.8731 8.27625C89.6797 8.45676 89.4863 8.65016 89.2929 8.85647C89.1124 9.04987 88.919 9.23683 88.7127 9.41734C88.4677 9.64943 88.2227 9.87507 87.9777 10.0943C87.7327 10.3135 87.4813 10.5262 87.2234 10.7325C87.1203 10.797 87.0236 10.8743 86.9333 10.9646C86.8431 11.0549 86.7528 11.1451 86.6626 11.2354C86.5981 11.2998 86.5336 11.3579 86.4692 11.4094C86.4176 11.461 86.3596 11.519 86.2951 11.5835C86.1275 11.7253 85.9985 11.8414 85.9083 11.9316C85.818 12.009 85.6955 12.1186 85.5408 12.2604C85.4892 12.2991 85.4377 12.3442 85.3861 12.3958C85.3474 12.4345 85.3023 12.4796 85.2507 12.5312C85.1862 12.5957 85.1218 12.6537 85.0573 12.7053C85.0057 12.7568 84.9541 12.8084 84.9026 12.86C84.851 12.8987 84.8059 12.9373 84.7672 12.976C84.7414 13.0147 84.6963 13.0212 84.6318 12.9954C84.606 13.0212 84.5673 13.0469 84.5157 13.0727C84.4771 13.0856 84.4448 13.105 84.419 13.1308C84.3933 13.1565 84.3739 13.1823 84.361 13.2081C84.3481 13.221 84.3288 13.2403 84.303 13.2661C84.2901 13.2661 84.2837 13.2597 84.2837 13.2468ZM85.1153 10.8679C85.1282 10.8808 85.1346 10.8872 85.1346 10.8872C85.1475 10.8872 85.1604 10.8937 85.1733 10.9066C85.2378 10.855 85.2829 10.8034 85.3087 10.7518C85.3474 10.7003 85.399 10.6487 85.4634 10.5971C85.7342 10.3392 85.9985 10.0878 86.2564 9.84284C86.5272 9.58496 86.7915 9.32064 87.0494 9.04987C87.2299 8.84357 87.4168 8.64372 87.6103 8.45031C87.8037 8.2569 88.0035 8.0635 88.2098 7.87009C88.2614 7.81852 88.3065 7.77339 88.3452 7.73471C88.3968 7.69603 88.4548 7.6509 88.5193 7.59932C88.8029 7.28987 89.093 6.96108 89.3896 6.61295C89.5701 6.39375 89.7377 6.17456 89.8924 5.95537C90.0601 5.73617 90.2083 5.49764 90.3373 5.23976C90.5436 4.87874 90.6338 4.49192 90.6081 4.07932C90.6209 4.01485 90.6145 3.94394 90.5887 3.86657C90.5629 3.80211 90.5436 3.75053 90.5307 3.71185C90.5178 3.66027 90.4985 3.60225 90.4727 3.53778C90.4469 3.53778 90.4211 3.54423 90.3953 3.55712C90.3695 3.55712 90.3437 3.55712 90.3179 3.55712C90.2406 3.53134 90.1697 3.52489 90.1052 3.53778C90.0536 3.53778 89.9956 3.55068 89.9311 3.57646C89.8022 3.60225 89.6797 3.63449 89.5637 3.67317C89.4476 3.69896 89.3187 3.72474 89.1768 3.75053C89.1124 3.76342 89.0479 3.77632 88.9834 3.78921C88.9319 3.80211 88.8738 3.815 88.8094 3.82789C88.7707 3.85368 88.732 3.87947 88.6933 3.90526C88.6546 3.91815 88.6289 3.94394 88.616 3.98262C88.5644 4.07287 88.5128 4.16313 88.4612 4.25339C88.4097 4.33075 88.3516 4.42101 88.2872 4.52416C88.2227 4.62731 88.1647 4.7369 88.1131 4.85295C88.0615 4.96899 88.01 5.09148 87.9584 5.22042C87.8939 5.37515 87.8166 5.52987 87.7263 5.6846C87.6489 5.83932 87.578 5.99405 87.5135 6.14877C87.4491 6.26482 87.3911 6.38731 87.3395 6.51625C87.2879 6.63229 87.2105 6.74189 87.1074 6.84504C87.0816 6.87082 87.0558 6.90951 87.03 6.96108C87.0171 6.99976 86.9978 7.03844 86.972 7.07712C86.9075 7.19317 86.8431 7.30921 86.7786 7.42526C86.727 7.5413 86.669 7.6509 86.6045 7.75405C86.5401 7.8572 86.4756 7.96035 86.4111 8.0635C86.3596 8.15375 86.3209 8.2569 86.2951 8.37295C86.2048 8.59214 86.1081 8.81134 86.005 9.03053C85.9018 9.23683 85.7922 9.44958 85.6762 9.66877C85.6246 9.74614 85.5859 9.8235 85.5601 9.90086C85.5344 9.97822 85.5021 10.0556 85.4634 10.1329C85.4248 10.2361 85.3796 10.3328 85.3281 10.4231C85.2894 10.5133 85.2442 10.61 85.1927 10.7132C85.1927 10.739 85.1669 10.7905 85.1153 10.8679ZM100.582 2.76416C100.672 2.73837 100.756 2.71903 100.833 2.70613C100.911 2.68035 100.995 2.65456 101.085 2.62877C101.227 2.60299 101.368 2.57075 101.51 2.53207C101.665 2.49339 101.82 2.46115 101.974 2.43537C102.039 2.42247 102.123 2.42892 102.226 2.45471C102.329 2.4676 102.426 2.48694 102.516 2.51273C102.619 2.52562 102.716 2.55141 102.806 2.59009C103.103 2.69324 103.335 2.86086 103.502 3.09295C103.709 3.37661 103.812 3.66027 103.812 3.94394C103.799 4.00841 103.786 4.07288 103.773 4.13734C103.773 4.20181 103.76 4.26628 103.734 4.33075C103.657 4.48548 103.567 4.6402 103.464 4.79493C103.361 4.93676 103.238 5.0657 103.096 5.18174C102.98 5.2591 102.883 5.35581 102.806 5.47185C102.742 5.575 102.664 5.6717 102.574 5.76196C102.484 5.83932 102.394 5.91668 102.303 5.99405C102.239 6.05852 102.168 6.12299 102.091 6.18745C102.026 6.25192 101.962 6.31639 101.897 6.38086C101.82 6.47112 101.742 6.54848 101.665 6.61295C101.588 6.67742 101.504 6.74833 101.414 6.8257L101.278 6.96108C101.304 6.98687 101.343 7.01266 101.394 7.03844C101.459 7.06423 101.53 7.08357 101.607 7.09647C101.697 7.09647 101.775 7.10936 101.839 7.13515C102.149 7.2254 102.439 7.40592 102.709 7.67668C102.916 7.88299 103.07 8.13441 103.174 8.43097C103.186 8.45676 103.193 8.48255 103.193 8.50833C103.206 8.52123 103.219 8.54057 103.232 8.56636C103.335 8.77266 103.335 8.97896 103.232 9.18526C103.154 9.31419 103.077 9.43669 103 9.55273C102.922 9.66877 102.832 9.78482 102.729 9.90086C102.6 10.0427 102.458 10.1781 102.303 10.307C102.161 10.4231 102.02 10.5391 101.878 10.6551C101.723 10.7712 101.568 10.8872 101.414 11.0033C101.272 11.1193 101.123 11.2289 100.969 11.3321C100.75 11.4868 100.524 11.6415 100.292 11.7962C100.06 11.951 99.8277 12.0992 99.5956 12.2411C99.4924 12.3184 99.3764 12.3894 99.2474 12.4538C99.1314 12.5183 99.0154 12.5828 98.8993 12.6472C98.7317 12.7117 98.5705 12.7891 98.4158 12.8793C98.2611 12.9567 98.1128 13.0405 97.971 13.1308C97.8549 13.1952 97.7453 13.2532 97.6422 13.3048C97.539 13.3564 97.4359 13.4273 97.3327 13.5176C97.3198 13.5434 97.294 13.5562 97.2554 13.5562C97.2296 13.5562 97.2038 13.5627 97.178 13.5756L96.4817 13.7497C96.4559 13.7239 96.443 13.711 96.443 13.711C96.4301 13.6336 96.4108 13.582 96.385 13.5562C96.3721 13.5434 96.3334 13.5434 96.269 13.5562C96.1658 13.5691 96.0562 13.6014 95.9402 13.6529L95.8435 13.5562C95.8177 13.582 95.7984 13.5949 95.7855 13.5949C95.7726 13.6078 95.7597 13.6207 95.7468 13.6336C95.6565 13.6207 95.5727 13.6143 95.4954 13.6143C95.418 13.6143 95.3406 13.6143 95.2633 13.6143C95.2117 13.6143 95.1601 13.5949 95.1085 13.5562C95.057 13.5434 94.9925 13.5369 94.9151 13.5369C94.8636 13.3693 94.8636 13.2146 94.9151 13.0727C94.9796 12.8793 95.0441 12.6859 95.1085 12.4925C95.173 12.2862 95.2439 12.0864 95.3213 11.8929C95.3471 11.8285 95.3729 11.7705 95.3986 11.7189C95.4115 11.6544 95.4309 11.5899 95.4567 11.5255C95.534 11.3708 95.5921 11.216 95.6307 11.0613C95.6307 11.0226 95.6436 10.9839 95.6694 10.9453C95.6823 10.9066 95.7017 10.8679 95.7274 10.8292C95.8951 10.4553 96.0691 10.0943 96.2496 9.74614C96.443 9.398 96.6429 9.04343 96.8492 8.6824C97.0297 8.34716 97.2102 8.01837 97.3907 7.69603C97.5712 7.36079 97.7453 7.02555 97.9129 6.69031C98.145 6.25192 98.3384 5.78775 98.4932 5.29778C98.5318 5.15595 98.577 5.02057 98.6285 4.89163C98.6801 4.76269 98.7317 4.62731 98.7833 4.48548C98.7962 4.42101 98.809 4.35654 98.8219 4.29207C98.8477 4.21471 98.8735 4.14379 98.8993 4.07932C98.9251 4.01485 98.9509 3.94394 98.9767 3.86657C99.0154 3.78921 99.0476 3.7183 99.0734 3.65383C99.0734 3.61515 99.0798 3.58291 99.0927 3.55712C99.1056 3.51844 99.1185 3.47976 99.1314 3.44108C99.1572 3.24767 99.241 3.06716 99.3828 2.89954C99.5247 2.71903 99.6858 2.59654 99.8663 2.53207C99.905 2.51918 99.9695 2.51273 100.06 2.51273C100.15 2.53852 100.234 2.57075 100.311 2.60943C100.401 2.63522 100.492 2.68679 100.582 2.76416ZM96.9266 12.2991C96.9781 12.312 97.0168 12.312 97.0426 12.2991C97.0684 12.2733 97.1006 12.2475 97.1393 12.2217C97.3327 12.1186 97.5261 12.0154 97.7195 11.9123C97.9129 11.7962 98.1063 11.6802 98.2997 11.5642C98.5576 11.3836 98.8155 11.2031 99.0734 11.0226C99.3441 10.8292 99.6085 10.6423 99.8663 10.4617C99.9566 10.4102 100.047 10.3392 100.137 10.249C100.24 10.1458 100.343 10.0556 100.447 9.97822C100.563 9.88797 100.672 9.79126 100.775 9.68811C100.943 9.54628 101.091 9.398 101.22 9.24328C101.362 9.08855 101.497 8.93383 101.626 8.7791C101.665 8.74042 101.697 8.69529 101.723 8.64372C101.813 8.48899 101.833 8.34716 101.781 8.21822C101.755 8.12797 101.71 8.07639 101.646 8.0635C101.581 8.0506 101.523 8.04416 101.472 8.04416C101.433 8.03126 101.381 8.02482 101.317 8.02482C100.995 7.99903 100.711 8.04416 100.466 8.1602C100.247 8.25046 100.008 8.29559 99.7503 8.29559C99.6343 8.29559 99.5182 8.30203 99.4022 8.31493C99.299 8.32782 99.1959 8.34716 99.0927 8.37295C99.0025 8.38584 98.9315 8.43097 98.88 8.50833C98.8284 8.61148 98.7639 8.71463 98.6866 8.81778C98.6221 8.90804 98.5512 8.9983 98.4738 9.08855C98.2675 9.32064 98.0806 9.59786 97.9129 9.9202C97.8485 10.0749 97.7775 10.2297 97.7002 10.3844C97.6228 10.5391 97.5455 10.6874 97.4681 10.8292C97.2489 11.2418 97.0684 11.648 96.9266 12.0477C96.9266 12.0864 96.9201 12.125 96.9072 12.1637C96.8943 12.2024 96.9008 12.2475 96.9266 12.2991ZM100.098 6.07141C100.227 6.01984 100.337 5.93603 100.427 5.81998C100.479 5.7813 100.517 5.74262 100.543 5.70394C100.582 5.66526 100.621 5.62657 100.659 5.58789C100.866 5.42027 101.059 5.25266 101.24 5.08504C101.433 4.90452 101.613 4.71756 101.781 4.52416C101.91 4.36943 102.026 4.21471 102.129 4.05998C102.207 3.96972 102.226 3.85368 102.187 3.71185C101.981 3.71185 101.788 3.75698 101.607 3.84723C101.375 3.95038 101.13 4.07932 100.872 4.23405C100.782 4.28562 100.737 4.3372 100.737 4.38877C100.698 4.5306 100.64 4.66599 100.563 4.79493C100.498 4.92386 100.427 5.04636 100.35 5.1624C100.247 5.29134 100.176 5.42672 100.137 5.56855C100.111 5.71038 100.086 5.85866 100.06 6.01339C100.06 6.02628 100.073 6.04562 100.098 6.07141ZM104.77 14.0784C104.809 14.0784 104.848 14.0849 104.886 14.0978C104.899 14.072 104.912 14.0462 104.925 14.0204C104.938 14.0075 104.951 13.9882 104.964 13.9624C105.028 13.8464 105.067 13.7561 105.08 13.6916C105.093 13.6401 105.125 13.5562 105.176 13.4402C105.189 13.3757 105.189 13.3242 105.176 13.2855H105.196C105.209 13.2855 105.215 13.2855 105.215 13.2855C105.215 13.2726 105.222 13.2661 105.234 13.2661V13.2468C105.273 13.221 105.28 13.1888 105.254 13.1501C105.318 13.1501 105.35 13.1114 105.35 13.034C105.363 12.9954 105.408 12.9245 105.486 12.8213C105.512 12.7568 105.544 12.6988 105.583 12.6472C105.634 12.5828 105.647 12.499 105.621 12.3958C105.621 12.3313 105.653 12.2798 105.718 12.2411C105.744 12.2153 105.757 12.1895 105.757 12.1637C105.77 12.125 105.789 12.0928 105.815 12.067C105.84 12.0154 105.873 11.9574 105.911 11.8929C105.95 11.8285 105.989 11.764 106.027 11.6995C106.066 11.6093 106.105 11.5319 106.143 11.4675C106.195 11.3901 106.234 11.3127 106.259 11.2354C106.285 11.1451 106.324 11.0677 106.376 11.0033C106.427 10.9259 106.472 10.8421 106.511 10.7518C106.511 10.739 106.511 10.7261 106.511 10.7132C106.524 10.7003 106.53 10.6809 106.53 10.6551C106.543 10.6294 106.55 10.6036 106.55 10.5778C106.562 10.552 106.582 10.5327 106.608 10.5198C106.672 10.494 106.711 10.4617 106.724 10.4231C106.749 10.3715 106.782 10.3199 106.82 10.2683V10.249C106.846 10.2103 106.853 10.1716 106.84 10.1329C106.827 10.0943 106.84 10.062 106.878 10.0362C106.93 10.0105 106.982 9.95888 107.033 9.88152C107.059 9.82995 107.078 9.77192 107.091 9.70745C107.117 9.64299 107.143 9.57852 107.168 9.51405C107.194 9.48826 107.214 9.46247 107.227 9.43669C107.239 9.4109 107.259 9.38511 107.285 9.35932C107.401 9.21749 107.491 9.13368 107.555 9.10789C107.62 9.08211 107.652 9.02408 107.652 8.93383C107.691 8.81778 107.742 8.68885 107.807 8.54701C107.858 8.48255 107.91 8.41163 107.961 8.33427C108.026 8.24401 108.084 8.16665 108.136 8.10218C108.2 7.99903 108.245 7.90233 108.271 7.81207C108.31 7.72181 108.361 7.61866 108.426 7.50262C108.49 7.41236 108.548 7.32211 108.6 7.23185C108.651 7.14159 108.709 7.04489 108.774 6.94174C108.903 6.72255 109.025 6.5098 109.141 6.3035C109.27 6.0843 109.399 5.86511 109.528 5.64592C109.554 5.60723 109.58 5.575 109.605 5.54921C109.631 5.51053 109.651 5.4654 109.663 5.41383C109.638 5.38804 109.612 5.38804 109.586 5.41383C109.522 5.45251 109.464 5.49764 109.412 5.54921C109.373 5.58789 109.328 5.62657 109.277 5.66526C109.173 5.76841 109.057 5.87156 108.928 5.97471C108.812 6.06496 108.696 6.16167 108.58 6.26482C108.49 6.34218 108.393 6.41954 108.29 6.4969C108.187 6.56137 108.097 6.62584 108.019 6.69031C107.968 6.74189 107.897 6.8128 107.807 6.90306C107.729 6.98042 107.646 7.06423 107.555 7.15449C107.465 7.24474 107.375 7.335 107.285 7.42526C107.207 7.50262 107.136 7.56709 107.072 7.61866C106.943 7.72181 106.807 7.83141 106.666 7.94745C106.537 8.0506 106.401 8.1602 106.259 8.27625C106.195 8.34071 106.124 8.39874 106.047 8.45031C105.969 8.48899 105.892 8.54057 105.815 8.60504C105.776 8.63082 105.744 8.65661 105.718 8.6824C105.692 8.69529 105.66 8.70174 105.621 8.70174C105.544 8.71463 105.473 8.72753 105.408 8.74042C105.344 8.74042 105.267 8.72753 105.176 8.70174C105.138 8.68885 105.112 8.67595 105.099 8.66306C105.086 8.63727 105.067 8.62438 105.041 8.62438C104.977 8.63727 104.893 8.62438 104.79 8.5857C104.725 8.53412 104.667 8.46321 104.616 8.37295C104.577 8.28269 104.525 8.20533 104.461 8.14086C104.255 8.01192 104.158 7.87654 104.171 7.73471C104.196 7.59288 104.235 7.48973 104.287 7.42526C104.351 7.34789 104.403 7.24474 104.441 7.11581C104.545 6.83214 104.693 6.50335 104.886 6.12943C105.093 5.75551 105.28 5.44606 105.447 5.20108C105.55 5.02057 105.628 4.85295 105.679 4.69822C105.744 4.5306 105.828 4.35654 105.931 4.17603C106.111 3.91815 106.247 3.63449 106.337 3.32504C106.363 3.26057 106.388 3.20255 106.414 3.15097C106.453 3.0865 106.485 3.02848 106.511 2.9769C106.588 2.83507 106.653 2.69969 106.704 2.57075C106.756 2.44181 106.814 2.31288 106.878 2.18394C106.93 2.10657 106.982 2.04211 107.033 1.99053C107.11 1.96474 107.181 1.9583 107.246 1.97119C107.323 1.98408 107.394 1.97764 107.459 1.95185C107.562 1.91317 107.652 1.91317 107.729 1.95185C107.807 1.97764 107.884 2.02276 107.961 2.08723C108.039 2.1646 108.103 2.23551 108.155 2.29998C108.206 2.36445 108.245 2.44181 108.271 2.53207C108.284 2.62233 108.264 2.69324 108.213 2.74482C108.161 2.83507 108.136 2.93822 108.136 3.05427C108.11 3.15742 108.071 3.25412 108.019 3.34438C107.981 3.42174 107.936 3.4991 107.884 3.57646C107.833 3.67962 107.787 3.77632 107.749 3.86657C107.71 3.94394 107.671 4.03419 107.633 4.13734C107.594 4.27918 107.53 4.41456 107.439 4.5435C107.401 4.60797 107.368 4.67244 107.343 4.7369C107.33 4.78848 107.297 4.8465 107.246 4.91097C107.194 4.98833 107.136 5.07214 107.072 5.1624C107.02 5.23976 106.969 5.31068 106.917 5.37515C106.853 5.49119 106.749 5.65881 106.608 5.878C106.479 6.0972 106.382 6.25837 106.318 6.36152C106.266 6.45178 106.214 6.53559 106.163 6.61295C106.124 6.69031 106.085 6.76767 106.047 6.84504C106.047 6.84504 106.034 6.89016 106.008 6.98042C106.098 6.94174 106.143 6.91595 106.143 6.90306C106.247 6.8128 106.363 6.72899 106.492 6.65163C106.621 6.56137 106.737 6.46467 106.84 6.36152C107.085 6.15522 107.362 5.90379 107.671 5.60723C107.981 5.29778 108.252 5.03346 108.484 4.81427C108.767 4.55639 109.051 4.30496 109.335 4.05998C109.618 3.815 109.902 3.57002 110.186 3.32504C110.315 3.20899 110.424 3.0994 110.514 2.99625C110.618 2.8931 110.734 2.78994 110.863 2.68679C110.901 2.66101 110.946 2.62877 110.998 2.59009C111.062 2.53852 111.108 2.48694 111.133 2.43537L111.249 2.31932C111.262 2.28064 111.307 2.22262 111.385 2.14526C111.462 2.055 111.527 2.00987 111.578 2.00987C111.643 1.99698 111.694 1.99698 111.733 2.00987C111.784 2.00987 111.842 2.00987 111.907 2.00987C111.92 2.00987 111.92 2.03566 111.907 2.08723C111.894 2.13881 111.894 2.17104 111.907 2.18394H112.023C111.997 2.14526 111.978 2.13236 111.965 2.14526C111.952 2.15815 111.933 2.17104 111.907 2.18394L111.965 2.06789C111.991 2.06789 112.004 2.08723 112.004 2.12592C112.017 2.1646 112.036 2.18394 112.062 2.18394C112.139 2.18394 112.197 2.20972 112.236 2.2613C112.262 2.32577 112.287 2.358 112.313 2.358C112.416 2.40958 112.487 2.45471 112.526 2.49339C112.565 2.53207 112.597 2.59009 112.623 2.66745C112.635 2.69324 112.635 2.71903 112.623 2.74482C112.623 2.7706 112.629 2.79639 112.642 2.82218C112.693 2.92533 112.681 3.02848 112.603 3.13163C112.513 3.28636 112.416 3.43463 112.313 3.57646C112.21 3.7183 112.107 3.86013 112.004 4.00196C111.952 4.07932 111.907 4.15668 111.868 4.23405C111.842 4.29852 111.797 4.37588 111.733 4.46614C111.668 4.56929 111.598 4.67888 111.52 4.79493C111.443 4.91097 111.365 5.02057 111.288 5.12372C111.185 5.27844 111.095 5.41383 111.017 5.52987C110.94 5.63302 110.83 5.81353 110.688 6.07141C110.598 6.32929 110.482 6.56782 110.34 6.78701C110.199 7.00621 110.07 7.20606 109.954 7.38658C109.915 7.39947 109.863 7.46394 109.799 7.57998C109.747 7.69603 109.676 7.83141 109.586 7.98614C109.496 8.14086 109.393 8.29559 109.277 8.45031C109.161 8.60504 109.038 8.72753 108.909 8.81778C108.767 8.90804 108.69 8.95962 108.677 8.97251C108.664 8.9854 108.671 9.04342 108.696 9.14658C108.632 9.32709 108.555 9.48181 108.464 9.61075C108.374 9.73969 108.31 9.80416 108.271 9.80416C108.206 9.89441 108.155 9.96533 108.116 10.0169C108.078 10.0556 108.039 10.1007 108 10.1523C107.974 10.191 107.942 10.2425 107.903 10.307C107.878 10.3586 107.839 10.4295 107.787 10.5198C107.762 10.5971 107.736 10.6358 107.71 10.6358V10.6551C107.736 10.6036 107.749 10.5584 107.749 10.5198C107.749 10.4811 107.762 10.436 107.787 10.3844C107.8 10.3715 107.813 10.3586 107.826 10.3457C107.839 10.3328 107.833 10.307 107.807 10.2683C107.742 10.3844 107.658 10.5133 107.555 10.6551C107.53 10.6938 107.51 10.7325 107.497 10.7712C107.484 10.797 107.465 10.8292 107.439 10.8679C107.413 10.9324 107.362 11.0033 107.285 11.0806C107.246 11.158 107.246 11.2483 107.285 11.3514C107.194 11.403 107.13 11.4546 107.091 11.5061C107.091 11.5061 107.078 11.5319 107.052 11.5835L107.072 11.5642C107.059 11.5899 107.052 11.6093 107.052 11.6222C107.052 11.6351 107.046 11.6544 107.033 11.6802V11.6609C107.007 11.7124 106.994 11.7447 106.994 11.7576V11.7382C106.943 11.7511 106.93 11.7898 106.956 11.8543C106.891 11.8672 106.846 11.9187 106.82 12.009C106.704 12.1895 106.595 12.4087 106.492 12.6666C106.466 12.6924 106.459 12.7117 106.472 12.7246C106.498 12.7375 106.504 12.7568 106.492 12.7826C106.492 12.7955 106.472 12.802 106.434 12.802C106.395 12.802 106.369 12.8084 106.356 12.8213C106.318 12.86 106.292 12.8987 106.279 12.9373C106.201 13.0534 106.143 13.1694 106.105 13.2855C106.079 13.4144 106.027 13.5434 105.95 13.6723C105.911 13.7497 105.892 13.7883 105.892 13.7883C105.905 13.7883 105.892 13.8206 105.853 13.885C105.802 13.9753 105.776 14.0204 105.776 14.0204C105.776 14.0333 105.763 14.0849 105.737 14.1751C105.737 14.2267 105.699 14.2719 105.621 14.3105C105.557 14.3492 105.505 14.3814 105.467 14.4072C105.454 14.433 105.441 14.4524 105.428 14.4653C105.428 14.4782 105.421 14.4975 105.408 14.5233C105.396 14.4975 105.376 14.4717 105.35 14.4459C105.196 14.6006 105.035 14.6587 104.867 14.62C104.712 14.5942 104.648 14.5362 104.674 14.4459V14.2332C104.674 14.2074 104.68 14.188 104.693 14.1751C104.719 14.2396 104.744 14.2654 104.77 14.2525C104.796 14.2009 104.796 14.1558 104.77 14.1171C104.757 14.1429 104.744 14.1558 104.732 14.1558C104.719 14.1687 104.706 14.1816 104.693 14.1945C104.706 14.13 104.706 14.1042 104.693 14.1171C104.693 14.1429 104.706 14.13 104.732 14.0784H104.712C104.699 14.0784 104.719 14.0913 104.77 14.1171C104.77 14.0913 104.77 14.0784 104.77 14.0784ZM109.412 7.98614C109.425 7.98614 109.438 7.97969 109.451 7.9668C109.489 7.9539 109.496 7.92167 109.47 7.87009H109.451C109.386 7.87009 109.373 7.90233 109.412 7.9668V7.98614ZM109.315 8.08284C109.328 8.08284 109.335 8.08929 109.335 8.10218C109.348 8.08929 109.354 8.08284 109.354 8.08284C109.354 8.06995 109.36 8.05705 109.373 8.04416H109.354L109.315 8.08284ZM106.878 12.1057C106.93 12.0541 106.956 12.0154 106.956 11.9897C106.969 11.9639 106.969 11.9445 106.956 11.9316C106.956 11.9187 106.956 11.8994 106.956 11.8736C106.969 11.8478 106.975 11.8285 106.975 11.8156C106.975 11.7898 106.982 11.764 106.994 11.7382V11.7576C107.02 11.7447 107.033 11.7124 107.033 11.6609V11.6802C107.085 11.6673 107.098 11.6286 107.072 11.5642L107.052 11.5835H107.188C107.214 11.6351 107.214 11.6802 107.188 11.7189C107.149 11.7834 107.11 11.8478 107.072 11.9123C107.046 11.9639 107.014 12.0154 106.975 12.067C106.962 12.0928 106.93 12.1057 106.878 12.1057ZM105.002 13.6336V13.6723C104.989 13.6981 104.983 13.711 104.983 13.711C104.919 13.7368 104.899 13.8141 104.925 13.9431C104.899 13.9173 104.873 13.8915 104.848 13.8657C104.835 13.8399 104.815 13.8141 104.79 13.7883C104.828 13.8141 104.848 13.7948 104.848 13.7303C104.873 13.7045 104.893 13.6787 104.906 13.6529C104.931 13.6401 104.964 13.6336 105.002 13.6336ZM107.401 11.1967C107.388 11.2869 107.362 11.3579 107.323 11.4094C107.297 11.461 107.252 11.519 107.188 11.5835C107.201 11.5577 107.207 11.5384 107.207 11.5255C107.207 11.5126 107.214 11.4932 107.227 11.4675C107.239 11.4417 107.246 11.4223 107.246 11.4094C107.259 11.3965 107.272 11.3772 107.285 11.3514C107.31 11.3256 107.33 11.2998 107.343 11.274C107.368 11.2483 107.388 11.2225 107.401 11.1967ZM107.594 10.9259C107.581 11.0033 107.53 11.0935 107.439 11.1967C107.439 11.1967 107.426 11.1967 107.401 11.1967C107.413 11.1709 107.42 11.1516 107.42 11.1387C107.42 11.1129 107.426 11.0871 107.439 11.0613C107.452 11.0484 107.459 11.0355 107.459 11.0226C107.472 10.9968 107.484 10.9775 107.497 10.9646C107.536 10.9646 107.568 10.9517 107.594 10.9259ZM107.671 10.7518C107.671 10.7905 107.646 10.8486 107.594 10.9259C107.581 10.8872 107.575 10.8486 107.575 10.8099C107.588 10.7712 107.62 10.7518 107.671 10.7518ZM106.724 12.7633C106.711 12.7762 106.679 12.7955 106.627 12.8213C106.64 12.7697 106.672 12.7504 106.724 12.7633ZM106.646 12.5505C106.672 12.5505 106.685 12.5376 106.685 12.5119C106.724 12.4732 106.762 12.4603 106.801 12.4732C106.775 12.499 106.762 12.5183 106.762 12.5312C106.711 12.5828 106.672 12.5892 106.646 12.5505ZM106.762 12.3378C106.788 12.3249 106.807 12.3055 106.82 12.2798C106.833 12.254 106.853 12.2346 106.878 12.2217C106.853 12.2862 106.833 12.3249 106.82 12.3378C106.82 12.3507 106.801 12.3507 106.762 12.3378ZM106.492 13.1888C106.479 13.2017 106.466 13.221 106.453 13.2468C106.44 13.2597 106.427 13.2726 106.414 13.2855C106.388 13.2597 106.388 13.2403 106.414 13.2275C106.453 13.2146 106.479 13.2017 106.492 13.1888ZM105.467 12.7053C105.454 12.7182 105.434 12.7246 105.408 12.7246C105.421 12.7117 105.434 12.7053 105.447 12.7053H105.467ZM106.994 11.7382C106.982 11.764 106.975 11.7898 106.975 11.8156C106.975 11.8285 106.969 11.8478 106.956 11.8736V11.8543C106.93 11.7898 106.943 11.7511 106.994 11.7382ZM104.79 13.7883C104.79 13.8141 104.796 13.8399 104.809 13.8657C104.822 13.8915 104.802 13.9173 104.751 13.9431C104.764 13.9173 104.77 13.8915 104.77 13.8657C104.77 13.8399 104.777 13.8141 104.79 13.7883ZM104.732 14.0784C104.732 14.0527 104.732 14.0269 104.732 14.0011C104.744 13.9882 104.751 13.9688 104.751 13.9431C104.751 13.9688 104.751 13.9882 104.751 14.0011C104.764 14.0269 104.77 14.0527 104.77 14.0784H104.712H104.732ZM105.002 13.6336V13.5949V13.6143V13.6336ZM105.234 13.2468V13.2661C105.209 13.2403 105.202 13.221 105.215 13.2081C105.228 13.1952 105.234 13.1759 105.234 13.1501C105.247 13.1759 105.247 13.1952 105.234 13.2081C105.234 13.221 105.234 13.2339 105.234 13.2468ZM105.234 13.2468C105.234 13.2339 105.234 13.221 105.234 13.2081C105.247 13.1952 105.247 13.1759 105.234 13.1501H105.254C105.28 13.1888 105.273 13.221 105.234 13.2468ZM106.085 13.711V13.7303V13.711ZM106.221 13.5756H106.182H106.201H106.221ZM106.259 13.4789C106.208 13.5047 106.195 13.5369 106.221 13.5756C106.195 13.524 106.208 13.4918 106.259 13.4789ZM106.259 13.4789C106.247 13.4531 106.24 13.4402 106.24 13.4402V13.4209L106.259 13.4402V13.4789ZM106.259 13.2081L106.24 13.1888C106.253 13.1759 106.259 13.1759 106.259 13.1888V13.2081ZM106.376 13.0534H106.318C106.33 13.0405 106.337 13.034 106.337 13.034C106.35 13.0469 106.363 13.0534 106.376 13.0534ZM106.414 12.9567C106.401 12.9825 106.395 13.0018 106.395 13.0147C106.395 13.0147 106.388 13.0276 106.376 13.0534C106.376 13.0147 106.388 12.9889 106.414 12.976V12.9567ZM106.434 12.802C106.421 12.8406 106.414 12.8922 106.414 12.9567V12.976C106.414 12.9502 106.414 12.9245 106.414 12.8987C106.427 12.86 106.434 12.8277 106.434 12.802ZM106.492 13.1888C106.492 13.1759 106.498 13.163 106.511 13.1501C106.485 13.163 106.472 13.1694 106.472 13.1694C106.485 13.1694 106.492 13.1759 106.492 13.1888ZM106.53 12.9954V12.976V12.9567V12.9954ZM106.646 12.6859C106.633 12.6988 106.64 12.7117 106.666 12.7246C106.704 12.7246 106.724 12.7375 106.724 12.7633C106.698 12.7375 106.672 12.7246 106.646 12.7246C106.621 12.7117 106.621 12.6988 106.646 12.6859ZM106.646 12.5505C106.672 12.615 106.672 12.6601 106.646 12.6859V12.5505ZM106.801 12.4732C106.775 12.4474 106.762 12.4023 106.762 12.3378C106.788 12.3507 106.801 12.3958 106.801 12.4732ZM106.878 12.1057C106.93 12.1573 106.93 12.196 106.878 12.2217V12.1057ZM107.71 10.6358C107.71 10.7003 107.697 10.739 107.671 10.7518C107.646 10.7132 107.658 10.6809 107.71 10.6551V10.6358ZM107.71 10.6551C107.658 10.6809 107.646 10.7132 107.671 10.7518C107.62 10.7518 107.588 10.7712 107.575 10.8099C107.575 10.8486 107.581 10.8872 107.594 10.9259C107.568 10.9517 107.536 10.9646 107.497 10.9646C107.484 10.9388 107.478 10.9195 107.478 10.9066C107.478 10.8937 107.459 10.8808 107.42 10.8679H107.439C107.465 10.8292 107.484 10.797 107.497 10.7712C107.51 10.7325 107.53 10.6938 107.555 10.6551C107.658 10.5133 107.742 10.3844 107.807 10.2683C107.833 10.307 107.839 10.3328 107.826 10.3457C107.813 10.3586 107.8 10.3715 107.787 10.3844C107.762 10.436 107.749 10.4811 107.749 10.5198C107.749 10.5584 107.736 10.6036 107.71 10.6551ZM107.497 10.9646C107.484 10.9775 107.472 10.9968 107.459 11.0226C107.459 11.0355 107.452 11.0484 107.439 11.0613C107.426 11.0871 107.42 11.1129 107.42 11.1387C107.42 11.1516 107.413 11.1709 107.401 11.1967C107.388 11.2225 107.368 11.2483 107.343 11.274C107.33 11.2998 107.31 11.3256 107.285 11.3514C107.246 11.2483 107.246 11.158 107.285 11.0806C107.362 11.0033 107.413 10.9324 107.439 10.8679H107.42C107.459 10.9066 107.484 10.9388 107.497 10.9646ZM107.285 11.3514C107.272 11.3772 107.259 11.3965 107.246 11.4094C107.246 11.4223 107.239 11.4417 107.227 11.4675C107.214 11.4932 107.207 11.5126 107.207 11.5255C107.207 11.5384 107.201 11.5577 107.188 11.5835H107.052C107.078 11.5319 107.091 11.5061 107.091 11.5061C107.13 11.4546 107.194 11.403 107.285 11.3514ZM109.412 7.98614V7.9668C109.373 7.90233 109.386 7.87009 109.451 7.87009H109.47C109.496 7.92167 109.489 7.9539 109.451 7.9668C109.438 7.97969 109.425 7.98614 109.412 7.98614ZM104.693 14.1945C104.706 14.1816 104.719 14.1687 104.732 14.1558C104.744 14.1558 104.757 14.1429 104.77 14.1171C104.796 14.1558 104.796 14.2009 104.77 14.2525C104.744 14.2654 104.719 14.2396 104.693 14.1751V14.1945ZM111.907 2.18394C111.933 2.17104 111.952 2.15815 111.965 2.14526C111.978 2.13236 111.997 2.14526 112.023 2.18394H111.907ZM109.315 8.08284L109.354 8.04416H109.373C109.36 8.05705 109.354 8.06995 109.354 8.08284C109.354 8.08284 109.348 8.08929 109.335 8.10218C109.335 8.08929 109.328 8.08284 109.315 8.08284ZM104.712 14.0784H104.77C104.757 14.0913 104.757 14.1042 104.77 14.1171C104.719 14.0913 104.699 14.0784 104.712 14.0784ZM107.033 11.6609C107.033 11.7124 107.02 11.7447 106.994 11.7576C106.994 11.7447 107.007 11.7124 107.033 11.6609ZM107.072 11.5642C107.098 11.6286 107.085 11.6673 107.033 11.6802C107.046 11.6544 107.052 11.6351 107.052 11.6222C107.052 11.6093 107.059 11.5899 107.072 11.5642ZM107.497 10.9646C107.484 10.9388 107.459 10.9066 107.42 10.8679C107.459 10.8808 107.478 10.8937 107.478 10.9066C107.478 10.9195 107.484 10.9388 107.497 10.9646Z" fill="white"/>
<path d="M34.5776 17.2888C34.5776 20.7082 33.5636 24.0508 31.6639 26.8939C29.7642 29.7371 27.0641 31.953 23.9049 33.2616C20.7458 34.5701 17.2696 34.9125 13.9159 34.2454C10.5622 33.5783 7.48165 31.9317 5.06376 29.5138C2.64588 27.0959 0.999303 24.0154 0.332211 20.6617C-0.334881 17.308 0.00748043 13.8318 1.31603 10.6727C2.62458 7.51354 4.84052 4.8134 7.68365 2.91369C10.5268 1.01397 13.8694 0 17.2888 0C19.5592 0 21.8074 0.447186 23.9049 1.31603C26.0025 2.18487 27.9084 3.45835 29.5138 5.06377C31.1192 6.66918 32.3927 8.57508 33.2616 10.6727C34.1304 12.7702 34.5776 15.0184 34.5776 17.2888Z" fill="white"/>
<path d="M24.3812 10.3245C23.9828 10.3258 23.6011 10.4846 23.3194 10.7663C23.0377 11.048 22.8788 11.4297 22.8776 11.8281V20.0381C22.899 20.2075 22.8842 20.3795 22.834 20.5427C22.7839 20.7059 22.6996 20.8566 22.5867 20.9847C22.4738 21.1127 22.335 21.2153 22.1794 21.2856C22.0238 21.3559 21.855 21.3922 21.6843 21.3922C21.5135 21.3922 21.3448 21.3559 21.1892 21.2856C21.0336 21.2153 20.8947 21.1127 20.7818 20.9847C20.6689 20.8566 20.5846 20.7059 20.5345 20.5427C20.4843 20.3795 20.4695 20.2075 20.4909 20.0381V14.5393C20.51 13.9742 20.4151 13.411 20.212 12.8833C20.0088 12.3557 19.7016 11.8742 19.3086 11.4678C18.9155 11.0613 18.4447 10.738 17.9242 10.5172C17.4036 10.2965 16.844 10.1827 16.2785 10.1827C15.7131 10.1827 15.1535 10.2965 14.6329 10.5172C14.1123 10.738 13.6415 11.0613 13.2485 11.4678C12.8555 11.8742 12.5482 12.3557 12.3451 12.8833C12.142 13.411 12.0471 13.9742 12.0661 14.5393V20.0381C12.0293 20.3286 11.8878 20.5957 11.6681 20.7893C11.4484 20.9829 11.1656 21.0897 10.8728 21.0897C10.58 21.0897 10.2972 20.9829 10.0775 20.7893C9.85783 20.5957 9.71631 20.3286 9.67949 20.0381C9.67949 19.6394 9.52105 19.2569 9.23908 18.9749C8.9571 18.693 8.57468 18.5345 8.1759 18.5345C7.77713 18.5345 7.39467 18.693 7.11269 18.9749C6.83072 19.2569 6.67231 19.6394 6.67231 20.0381C6.65328 20.6032 6.74816 21.1664 6.95129 21.6941C7.15442 22.2218 7.46166 22.7032 7.8547 23.1097C8.24774 23.5162 8.71855 23.8394 9.23911 24.0602C9.75966 24.281 10.3193 24.3947 10.8847 24.3947C11.4502 24.3947 12.0098 24.281 12.5304 24.0602C13.0509 23.8394 13.5217 23.5162 13.9148 23.1097C14.3078 22.7032 14.615 22.2218 14.8182 21.6941C15.0213 21.1664 15.1162 20.6032 15.0971 20.0381V14.5393C15.0757 14.3699 15.0905 14.1979 15.1407 14.0347C15.1908 13.8715 15.2751 13.7209 15.388 13.5928C15.5009 13.4647 15.6398 13.3621 15.7954 13.2918C15.951 13.2215 16.1197 13.1852 16.2905 13.1852C16.4612 13.1852 16.63 13.2215 16.7856 13.2918C16.9412 13.3621 17.08 13.4647 17.1929 13.5928C17.3058 13.7209 17.3901 13.8715 17.4403 14.0347C17.4904 14.1979 17.5052 14.3699 17.4838 14.5393V20.0381C17.4838 20.5916 17.5928 21.1397 17.8046 21.6511C18.0164 22.1624 18.3269 22.6271 18.7183 23.0184C19.1096 23.4098 19.5743 23.7203 20.0857 23.9321C20.597 24.1439 21.1451 24.2529 21.6986 24.2529C22.2521 24.2529 22.8002 24.1439 23.3115 23.9321C23.8229 23.7203 24.2875 23.4098 24.6789 23.0184C25.0703 22.6271 25.3807 22.1624 25.5925 21.6511C25.8044 21.1397 25.9134 20.5916 25.9134 20.0381V11.8281C25.9121 11.4289 25.7527 11.0465 25.4699 10.7646C25.1872 10.4828 24.8042 10.3245 24.405 10.3245" fill="#1A2138"/>
<path d="M49.6469 15.9989C49.3743 16.0208 49.1204 16.1463 48.9375 16.3497C48.7546 16.553 48.6566 16.8186 48.6636 17.092V26.1135C48.6636 28.4381 46.9643 30.357 44.7495 30.357C42.5347 30.357 40.7925 28.4476 40.7925 26.1135C40.802 25.9751 40.783 25.8362 40.7365 25.7055C40.6901 25.5747 40.6173 25.4549 40.5226 25.3535C40.4279 25.2521 40.3134 25.1712 40.1862 25.1159C40.0589 25.0607 39.9217 25.0321 39.7829 25.0321C39.6442 25.0321 39.5069 25.0607 39.3797 25.1159C39.2524 25.1712 39.1379 25.2521 39.0432 25.3535C38.9485 25.4549 38.8757 25.5747 38.8293 25.7055C38.7829 25.8362 38.7639 25.9751 38.7734 26.1135C38.7734 29.6362 41.37 32.2519 44.7495 32.2519C48.129 32.2519 50.7018 29.388 50.7018 25.8892V17.092C50.7045 16.8128 50.5983 16.5436 50.4059 16.3413C50.2134 16.139 49.9497 16.0197 49.6707 16.0085" fill="white"/>
<path d="M67.7557 17.3358C67.7557 17.0677 67.6761 16.8056 67.5272 16.5827C67.3782 16.3598 67.1665 16.186 66.9188 16.0834C66.6711 15.9808 66.3985 15.954 66.1356 16.0063C65.8726 16.0586 65.6311 16.1877 65.4415 16.3773C65.2519 16.5669 65.1228 16.8084 65.0705 17.0714C65.0182 17.3343 65.045 17.6069 65.1476 17.8546C65.2502 18.1023 65.424 18.314 65.6469 18.463C65.8698 18.6119 66.1319 18.6914 66.4 18.6914C66.7596 18.6914 67.1044 18.5486 67.3586 18.2944C67.6128 18.0402 67.7557 17.6954 67.7557 17.3358Z" fill="white"/>
<path d="M57.8945 20.166C56.6993 20.166 55.531 20.5204 54.5372 21.1844C53.5435 21.8485 52.7689 22.7922 52.3115 23.8964C51.8542 25.0006 51.7345 26.2157 51.9677 27.3879C52.2009 28.5601 52.7764 29.6369 53.6215 30.482C54.4666 31.3271 55.5434 31.9027 56.7156 32.1358C57.8878 32.369 59.1028 32.2493 60.2071 31.792C61.3113 31.3346 62.255 30.56 62.9191 29.5663C63.5831 28.5725 63.9375 27.4042 63.9375 26.209C63.9375 24.6063 63.3008 23.0692 62.1676 21.936C61.0343 20.8027 59.4972 20.166 57.8945 20.166ZM57.8945 30.3044C57.0845 30.3044 56.2927 30.0643 55.6192 29.6142C54.9457 29.1642 54.4208 28.5246 54.1108 27.7762C53.8008 27.0279 53.7197 26.2044 53.8777 25.41C54.0358 24.6155 54.4258 23.8858 54.9986 23.313C55.5713 22.7403 56.3011 22.3502 57.0955 22.1922C57.89 22.0342 58.7134 22.1153 59.4618 22.4253C60.2101 22.7352 60.8498 23.2602 61.2998 23.9337C61.7498 24.6072 61.99 25.399 61.99 26.209C61.99 27.2952 61.5585 28.3369 60.7905 29.1049C60.0224 29.873 58.9807 30.3044 57.8945 30.3044Z" fill="white"/>
<path d="M88.6097 20.1614H88.5094C88.3089 20.1614 88.1085 20.1614 87.9128 20.2044C86.8354 20.3479 85.8277 20.8177 85.0249 21.5504V21.1686C85.0073 20.9128 84.8933 20.6733 84.706 20.4984C84.5186 20.3234 84.2718 20.2261 84.0154 20.2261C83.759 20.2261 83.5122 20.3234 83.3248 20.4984C83.1375 20.6733 83.0235 20.9128 83.0059 21.1686V28.3285V29.0445C83.0059 29.3538 82.8833 29.6506 82.665 29.8697C82.4467 30.0889 82.1505 30.2127 81.8412 30.2139C81.5365 30.2114 81.2451 30.0886 81.0305 29.8723C80.816 29.6559 80.6956 29.3635 80.6956 29.0588V25.455C80.6893 24.0513 80.1283 22.7071 79.1348 21.7155C78.1414 20.7238 76.7961 20.1652 75.3925 20.1614H75.2922C75.087 20.1614 74.8913 20.1614 74.6956 20.2044C73.6263 20.3517 72.6274 20.8213 71.8316 21.5504V21.1686C71.8316 20.9002 71.725 20.6428 71.5352 20.453C71.3455 20.2633 71.0881 20.1567 70.8197 20.1567C70.5513 20.1567 70.2939 20.2633 70.1042 20.453C69.9144 20.6428 69.8077 20.9002 69.8077 21.1686V29.0636C69.7887 29.3614 69.657 29.6409 69.4393 29.8451C69.2216 30.0493 68.9344 30.163 68.6359 30.163C68.3374 30.163 68.0502 30.0493 67.8325 29.8451C67.6148 29.6409 67.4831 29.3614 67.4641 29.0636V20.1614H65.4307V29.2784C65.4357 30.0738 65.7562 30.8348 66.3218 31.3941C66.8874 31.9535 67.6519 32.2655 68.4474 32.2617C70.0416 32.2617 71.7887 31.0111 71.8698 29.4407C71.8698 29.4407 71.8698 29.4407 71.8698 29.412V25.8082C71.8698 25.6507 71.8698 25.5027 71.8698 25.3547C71.8913 24.5891 72.1715 23.8534 72.6647 23.2674C73.1579 22.6814 73.8351 22.2798 74.5858 22.128C74.8026 22.084 75.0233 22.0616 75.2445 22.0612C76.1422 22.065 77.002 22.4232 77.6367 23.058C78.2715 23.6927 78.6298 24.5526 78.6335 25.4502V29.0254C78.6286 29.1065 78.6286 29.1878 78.6335 29.2688C78.6309 29.2862 78.6309 29.3039 78.6335 29.3213C78.7076 30.1117 79.0713 30.8467 79.6547 31.3851C80.238 31.9234 80.9997 32.2271 81.7934 32.2378C82.3258 32.2009 82.8444 32.0516 83.315 31.7999C83.7856 31.5481 84.1975 31.1996 84.5238 30.7772C84.868 30.2562 85.0506 29.6451 85.0488 29.0206V25.7939C85.0488 25.6364 85.0488 25.4884 85.0727 25.3404C85.0931 24.5752 85.3723 23.8396 85.8647 23.2535C86.3571 22.6675 87.0337 22.2656 87.7839 22.1137C88.0024 22.07 88.2246 22.0476 88.4474 22.0469C89.1383 22.0465 89.8128 22.2576 90.3803 22.6518C90.9477 23.046 91.3809 23.6045 91.6216 24.2521C91.7736 24.6383 91.8513 25.0496 91.8507 25.4645V32.2665H93.9175V25.4789C93.9175 24.0686 93.3573 22.7161 92.3601 21.7189C91.3629 20.7217 90.0104 20.1614 88.6001 20.1614" fill="white"/>
<path d="M105.665 20.2189C105.21 20.2373 104.779 20.4298 104.462 20.7568C104.145 21.0837 103.965 21.52 103.961 21.9755V26.2714C103.987 26.6097 103.942 26.9497 103.831 27.27C103.719 27.5904 103.542 27.8842 103.312 28.133C103.081 28.3819 102.802 28.5805 102.491 28.7162C102.18 28.852 101.844 28.9221 101.505 28.9221C101.166 28.9221 100.83 28.852 100.519 28.7162C100.208 28.5805 99.9288 28.3819 99.6982 28.133C99.4676 27.8842 99.291 27.5904 99.1793 27.27C99.0676 26.9497 99.0233 26.6097 99.0491 26.2714V21.9755C99.0491 21.5261 98.8706 21.0951 98.5528 20.7773C98.235 20.4595 97.804 20.281 97.3546 20.281C96.9052 20.281 96.4742 20.4595 96.1564 20.7773C95.8386 21.0951 95.6601 21.5261 95.6601 21.9755V26.2714C95.6378 27.0531 95.7724 27.8312 96.0561 28.5599C96.3398 29.2885 96.7667 29.9529 97.3117 30.5136C97.8566 31.0744 98.5085 31.5201 99.2288 31.8245C99.949 32.1289 100.723 32.2857 101.505 32.2857C102.287 32.2857 103.061 32.1289 103.781 31.8245C104.501 31.5201 105.153 31.0744 105.698 30.5136C106.243 29.9529 106.67 29.2885 106.954 28.5599C107.238 27.8312 107.372 27.0531 107.35 26.2714V21.9755C107.348 21.5225 107.172 21.0875 106.858 20.7606C106.545 20.4337 106.117 20.2397 105.665 20.2189Z" fill="white"/>
<path d="M113.889 25.0113C112.763 24.7726 111.87 24.5817 111.87 23.8991C111.87 23.4218 112.223 22.8872 113.216 22.8872C113.868 22.8969 114.507 23.0709 115.073 23.3932C115.469 23.6274 115.917 23.7602 116.376 23.7798C116.713 23.7849 117.039 23.6561 117.281 23.4217C117.524 23.1873 117.663 22.8664 117.67 22.5292C117.67 21.1497 115.908 20.2189 113.283 20.2189C110.734 20.2189 108.734 21.8371 108.734 23.8991C108.734 26.6342 111.121 27.1449 112.892 27.522C113.942 27.7464 114.763 27.923 114.763 28.5721C114.763 28.9874 114.467 29.4886 113.054 29.4886C112.399 29.4923 111.757 29.3102 111.202 28.9636C110.859 28.738 110.461 28.6108 110.052 28.596C109.87 28.59 109.69 28.6214 109.521 28.6881C109.352 28.7549 109.199 28.8557 109.071 28.9842C108.943 29.1127 108.843 29.2662 108.777 29.4351C108.711 29.604 108.68 29.7847 108.686 29.9659C108.686 31.2834 110.51 32.2046 113.121 32.2046C116.028 32.2046 118.061 30.6294 118.061 28.386C118.061 25.9134 115.675 25.3979 113.889 25.0208" fill="white"/>
</g>
</svg>
