<svg width="26" height="25" viewBox="0 0 26 25" fill="none" xmlns="http://www.w3.org/2000/svg">
<g clip-path="url(#clip0_8_482)">
<path d="M25.1302 17.0277V23.4091C25.1228 23.4208 25.1112 23.4312 25.11 23.4434C25.0169 24.172 24.349 24.8816 23.3669 24.862C22.6965 24.8485 22.5282 24.8595 21.8571 24.8595C19.0322 24.8595 16.6482 24.8491 13.8226 24.8651C12.7855 24.8706 12.0343 24.0685 12.0459 23.0963C12.0686 21.1659 12.0514 19.2355 12.0545 17.3044C12.0545 17.1642 12.0643 17.0204 12.0961 16.8844C12.2828 16.1014 12.9343 15.5914 13.7565 15.5822C14.19 15.5773 14.1826 15.5785 14.6161 15.5834C14.7128 15.5846 14.7753 15.5497 14.8377 15.4848C15.0686 15.273 15.0912 15.243 15.3961 14.9424C15.8382 14.5065 16.3035 14.1918 16.871 14.1826C18.0392 14.1636 19.208 14.1648 20.3761 14.1826C20.8892 14.1899 21.33 14.4495 21.7065 14.8065C22.0035 15.0881 22.0426 15.1616 22.4284 15.4879C22.4737 15.5571 22.5214 15.584 22.6041 15.5834C23.0424 15.5791 22.9775 15.5761 23.4153 15.5834C24.0784 15.5938 24.5951 15.8742 24.9214 16.4577C25.0188 16.6322 25.0622 16.8373 25.1302 17.0283V17.0277ZM18.6226 22.931C20.2677 22.9206 21.611 22.0151 21.6098 19.953C21.6086 18.2663 20.2622 16.9653 18.6202 16.9671C16.9653 16.9689 15.6343 18.2718 15.6343 19.942C15.6343 21.6244 16.9788 22.9224 18.6226 22.9316V22.931Z" fill="#515A67"/>
<path d="M3.13287 4.99045C3.3441 4.41433 3.69002 3.97474 4.32491 3.84004C4.45226 3.8131 4.58573 3.80698 4.71614 3.80698C6.19226 3.80453 7.66838 3.80392 9.14451 3.80576C10.1014 3.80698 10.748 4.45596 10.7498 5.41963C10.7529 6.87678 10.7529 8.33392 10.7498 9.79167C10.748 10.7633 10.0892 11.4227 9.12369 11.4239C7.67573 11.4258 6.22777 11.4245 4.77981 11.4239C3.96308 11.4239 3.47389 11.078 3.1843 10.3005C3.17573 10.2778 3.15002 10.2613 3.13287 10.2423C3.13287 8.49188 3.13287 6.74086 3.13287 4.99045ZM6.89451 10.028C7.60042 10.028 8.30573 10.02 9.01104 10.0323C9.26144 10.0366 9.35879 9.968 9.35696 9.69861C9.34532 8.28739 9.34655 6.87616 9.35573 5.46494C9.35757 5.22065 9.28226 5.13371 9.03369 5.13494C7.61328 5.14351 6.19226 5.14412 4.77185 5.13494C4.51655 5.1331 4.44859 5.23657 4.44981 5.46923C4.45532 6.88045 4.45532 8.29167 4.44981 9.7029C4.44859 9.94045 4.52696 10.0372 4.77736 10.0329C5.48267 10.02 6.18859 10.0286 6.89389 10.0286L6.89451 10.028Z" fill="#515A67"/>
<path d="M3.13287 15.5136C3.15002 15.4806 3.17267 15.4493 3.1843 15.4144C3.43165 14.6957 3.92451 14.3161 4.67451 14.3118C6.1794 14.3026 7.68491 14.3002 9.18981 14.3118C10.1229 14.3191 10.748 14.9718 10.7498 15.9116C10.7529 17.3693 10.7529 18.8277 10.7498 20.2855C10.748 21.2589 10.1033 21.9208 9.12981 21.9269C7.66226 21.9361 6.19471 21.9324 4.72777 21.9281C3.89206 21.9257 3.39675 21.4659 3.13349 20.7085C3.13349 18.9765 3.13349 17.2451 3.13349 15.513L3.13287 15.5136ZM9.35145 18.1151C9.35145 17.4097 9.35206 16.7044 9.35145 15.9985C9.35145 15.6471 9.33063 15.6269 8.98593 15.6263C7.60349 15.6257 6.22042 15.6257 4.83798 15.6263C4.50859 15.6263 4.45471 15.674 4.4541 15.9942C4.45165 17.4049 4.45594 18.8161 4.45042 20.2267C4.44981 20.4538 4.52757 20.5451 4.76328 20.5438C6.19287 20.5371 7.62247 20.5359 9.05206 20.5444C9.29145 20.5457 9.3594 20.4593 9.35573 20.2304C9.34471 19.5251 9.35144 18.8197 9.35206 18.1138L9.35145 18.1151Z" fill="#515A67"/>
<path d="M21.0771 7.62858C21.0771 8.3345 21.0808 9.04042 21.0765 9.74573C21.0704 10.7976 20.4361 11.4233 19.3831 11.4239C17.9529 11.4239 16.5227 11.4245 15.0918 11.4239C14.1288 11.4239 13.4743 10.8227 13.4602 9.86267C13.4382 8.35716 13.4388 6.85103 13.4602 5.34614C13.4737 4.39593 14.1178 3.80634 15.0735 3.80573C16.5318 3.8045 17.9908 3.8045 19.4492 3.80573C20.4239 3.80634 21.0606 4.42471 21.0747 5.39818C21.0851 6.14144 21.0765 6.88471 21.0771 7.62858ZM17.2225 10.028C17.9278 10.028 18.6331 10.0188 19.3378 10.0329C19.6035 10.0384 19.7045 9.95756 19.7027 9.68083C19.6923 8.28001 19.6929 6.8792 19.7027 5.47777C19.7045 5.21818 19.6133 5.13307 19.3574 5.13491C17.9467 5.14348 16.5367 5.14287 15.1261 5.13491C14.8763 5.13369 14.7771 5.20593 14.779 5.47287C14.79 6.88287 14.7882 8.29348 14.7802 9.7041C14.779 9.94961 14.8616 10.0359 15.1065 10.0316C15.8118 10.0206 16.5165 10.0274 17.2218 10.028H17.2225Z" fill="#515A67"/>
<path d="M5.46186 9.05261C5.46186 8.40485 5.46186 7.7773 5.46186 7.14975C5.46186 6.88648 5.46738 6.62322 5.46003 6.36057C5.45574 6.21118 5.49431 6.1371 5.66268 6.13832C6.53635 6.14506 7.41003 6.14261 8.28431 6.14506C8.31064 6.14506 8.33697 6.16036 8.3786 6.17322V9.05261H5.46248H5.46186Z" fill="#515A67"/>
<path d="M5.48022 19.56V16.661H8.37859V19.56H5.48022Z" fill="#515A67"/>
<path d="M15.7573 9.04652V6.1604H18.723V9.04652H15.7573Z" fill="#515A67"/>
<path d="M10.4222 0.872437H4.77551C2.14224 0.872437 0 3.01468 0 5.64795V11.3522H0.00122449C0.0146939 11.8139 0.392449 12.1837 0.857143 12.1837C1.32184 12.1837 1.69898 11.8139 1.71306 11.3522H1.71429V5.64795C1.71429 3.95999 3.08755 2.58672 4.77551 2.58672H10.4222C10.8955 2.58672 11.2794 2.20284 11.2794 1.72958C11.2794 1.25631 10.8955 0.872437 10.4222 0.872437Z" fill="#515A67"/>
<path d="M20.3547 0.872437H14.708C14.2347 0.872437 13.8508 1.25631 13.8508 1.72958C13.8508 2.20284 14.2347 2.58672 14.708 2.58672H20.3547C22.0427 2.58672 23.4159 3.95999 23.4159 5.64795V11.3522H23.4172C23.4306 11.8139 23.8084 12.1837 24.2731 12.1837C24.7378 12.1837 25.1149 11.8139 25.129 11.3522H25.1302V5.64795C25.1302 3.01468 22.988 0.872437 20.3547 0.872437Z" fill="#515A67"/>
<path d="M10.4222 23.1582H4.77551C3.08755 23.1582 1.71429 21.7849 1.71429 20.097V14.3927C1.71429 13.9194 1.33041 13.5355 0.857143 13.5355C0.383878 13.5355 0 13.9194 0 14.3927V20.097C0 22.7302 2.14224 24.8725 4.77551 24.8725H10.4222C10.8955 24.8725 11.2794 24.4886 11.2794 24.0153C11.2794 23.5421 10.8955 23.1582 10.4222 23.1582Z" fill="#515A67"/>
</g>
<defs>
<clipPath id="clip0_8_482">
<rect width="25.1302" height="24" fill="white" transform="translate(0 0.872437)"/>
</clipPath>
</defs>
</svg>
