<svg width="18" height="18" viewBox="0 0 18 18" fill="none" xmlns="http://www.w3.org/2000/svg">
<path d="M4.00941 0C4.07132 0.0516582 4.17132 0.0892278 4.19513 0.154975C4.23799 0.267684 4.26656 0.403873 4.24275 0.516582C4.20942 0.662165 4.07608 0.737304 3.91894 0.746696C3.51417 0.770177 3.11416 0.788962 2.70939 0.807747C2.64749 0.812443 2.58082 0.812443 2.48082 0.817139C2.54273 0.868797 2.57606 0.901671 2.61416 0.929848C4.28561 2.10859 5.95706 3.28734 7.62375 4.47078C7.72375 4.54123 7.7809 4.52244 7.86661 4.4567C8.72377 3.80392 9.58092 3.15585 10.4381 2.50777C10.7047 2.30584 10.7952 2.29644 11.0809 2.46081C12.9524 3.54094 14.8191 4.61637 16.6905 5.69649C16.9096 5.82329 16.9953 5.98296 16.9382 6.16611C16.862 6.41501 16.5953 6.50894 16.3477 6.36335C15.8429 6.07689 15.3429 5.78572 14.8429 5.49456C13.5476 4.74786 12.2524 4.00116 10.9571 3.24977C10.8476 3.18403 10.7762 3.19342 10.6762 3.26856C9.81902 3.92603 8.95234 4.5788 8.09043 5.23157C7.81423 5.4429 7.70471 5.4429 7.42375 5.24566C5.67134 4.01525 3.9237 2.78015 2.17605 1.54505C2.12843 1.51218 2.08081 1.4793 1.99986 1.42765C2.06177 1.74699 2.11415 2.02876 2.16653 2.31523C2.19034 2.44203 2.21891 2.56882 2.23796 2.69562C2.28082 2.93513 2.16653 3.12297 1.957 3.16524C1.72843 3.2122 1.54747 3.0901 1.49509 2.8412C1.36652 2.19782 1.24271 1.55444 1.1189 0.911063C1.09985 0.812443 1.0808 0.713823 1.06175 0.619899C1.00461 0.319342 1.15699 0.126797 1.46652 0.112709C2.04748 0.0798355 2.62844 0.0610506 3.2094 0.0328734C3.3094 0.0281772 3.4094 0.0140886 3.50941 0C3.67608 0 3.84274 0 4.00941 0Z" fill="black"/>
<path d="M13.7002 12.5663C13.7907 12.5663 13.8573 12.5663 13.9288 12.5663C15.105 12.5663 16.2812 12.5663 17.4574 12.5663C17.886 12.5663 18.0003 12.6744 18.0003 13.0923C18.0003 14.5575 18.0003 16.0228 18.0003 17.4833C18.0003 17.8824 17.8812 17.9999 17.4812 17.9999C11.8287 17.9999 6.17152 17.9999 0.519055 17.9999C0.119049 17.9999 0 17.8824 0 17.488C0 13.3741 0 9.26492 0 5.15105C0 4.75187 0.114287 4.63916 0.519055 4.63916C1.87146 4.63916 3.22862 4.63916 4.58102 4.63916C4.9334 4.63916 5.06674 4.76596 5.06674 5.11817C5.06674 6.70079 5.06674 8.28341 5.06674 9.86134C5.06674 9.93648 5.06674 10.0116 5.06674 10.1008C6.25723 10.1008 7.43344 10.1008 8.63822 10.1008C8.63822 10.0398 8.63822 9.97405 8.63822 9.91299C8.63822 9.39172 8.63822 8.87044 8.63822 8.34916C8.63822 8.01103 8.77155 7.87484 9.10966 7.87484C10.4811 7.87484 11.8526 7.87484 13.224 7.87484C13.5573 7.87484 13.7002 8.01573 13.7002 8.34446C13.7002 9.67349 13.7002 11.0025 13.7002 12.3315C13.7002 12.4067 13.7002 12.4771 13.7002 12.5663ZM4.29054 17.2438C4.29054 13.2849 4.29054 9.34475 4.29054 5.39525C3.11433 5.39525 1.94765 5.39525 0.776202 5.39525C0.776202 9.34945 0.776202 13.2943 0.776202 17.2438C1.94765 17.2438 3.10957 17.2438 4.29054 17.2438ZM12.9192 17.2391C12.9192 14.3603 12.9192 11.5003 12.9192 8.64032C11.7383 8.64032 10.5763 8.64032 9.4049 8.64032C9.4049 11.5097 9.4049 14.3697 9.4049 17.2391C10.5763 17.2391 11.7383 17.2391 12.9192 17.2391ZM8.61441 17.2438C8.61441 15.1164 8.61441 12.9937 8.61441 10.8804C7.43344 10.8804 6.26676 10.8804 5.10484 10.8804C5.10484 13.0078 5.10484 15.1258 5.10484 17.2438C6.28104 17.2438 7.44296 17.2438 8.61441 17.2438ZM17.2288 13.3318C16.0431 13.3318 14.8764 13.3318 13.7145 13.3318C13.7145 14.6421 13.7145 15.9382 13.7145 17.2391C14.8907 17.2391 16.0574 17.2391 17.2288 17.2391C17.2288 15.9288 17.2288 14.6374 17.2288 13.3318Z" fill="black"/>
</svg>
