<svg width="24" height="24" viewBox="0 0 24 24" fill="none" xmlns="http://www.w3.org/2000/svg">
<path d="M11.4735 20.9998C11.1479 20.9502 10.8173 20.9106 10.4967 20.8561C7.34105 20.2761 4.79147 17.7977 4.16535 14.6897C3.79969 12.8705 4.04012 11.1257 4.88163 9.46513C4.93172 9.37095 4.95176 9.25199 4.95176 9.14789C4.95677 7.45264 4.95677 5.76234 4.95677 4.06708C4.95677 3.98777 4.95677 3.9035 4.9768 3.82915C5.02188 3.66557 5.13709 3.5813 5.3074 3.59617C5.47269 3.61104 5.56787 3.70523 5.5879 3.8688C5.59792 3.9382 5.59291 4.00264 5.59291 4.07204C5.59291 5.40544 5.59291 6.7438 5.59291 8.0772C5.59291 8.14164 5.59291 8.20608 5.59291 8.32505C7.26091 6.27785 9.3747 5.18238 11.9894 5.17742C14.6091 5.17247 16.7229 6.26794 18.4009 8.32009C18.4009 8.216 18.4009 8.15651 18.4009 8.09207C18.4009 6.74876 18.4009 5.4104 18.4009 4.06708C18.4009 3.99768 18.3959 3.92829 18.4059 3.86385C18.426 3.70027 18.5211 3.60609 18.6864 3.59122C18.8517 3.57635 18.9669 3.6507 19.012 3.80932C19.0321 3.88367 19.0371 3.96794 19.0371 4.04725C19.0371 5.74746 19.0371 7.44768 19.0421 9.14789C19.0421 9.2619 19.0721 9.38087 19.1222 9.48C21.5265 14.1246 18.7666 19.8002 13.5923 20.8362C13.2366 20.9056 12.881 20.9453 12.5204 20.9949C12.1747 20.9998 11.8241 20.9998 11.4735 20.9998ZM19.3526 13.0837C19.3526 9.06362 16.0717 5.8119 12.0044 5.80199C7.95215 5.79208 4.65122 9.04875 4.6412 13.0737C4.63118 17.0938 7.93211 20.3703 11.9944 20.3703C16.0517 20.3653 19.3476 17.0987 19.3526 13.0837Z" fill="black"/>
<path d="M9.43982 3.43259C9.43982 3.08065 9.43982 2.72871 9.43982 2.37677C9.43982 2.1438 9.56504 2.00005 9.7604 2.00501C9.95074 2.00501 10.076 2.15371 10.076 2.38669C10.076 3.08561 10.076 3.77957 10.076 4.4785C10.076 4.70651 9.94072 4.85522 9.75038 4.85522C9.56004 4.85522 9.43982 4.70651 9.43982 4.47354C9.43982 4.12656 9.43982 3.77957 9.43982 3.43259Z" fill="black"/>
<path d="M14.554 3.42263C14.554 3.76961 14.554 4.11164 14.554 4.45862C14.554 4.70646 14.4288 4.85517 14.2334 4.85021C14.0381 4.84526 13.9178 4.69655 13.9178 4.4487C13.9178 3.76465 13.9178 3.07565 13.9178 2.39159C13.9178 2.14871 14.0431 2 14.2434 2C14.4388 2.00496 14.554 2.13879 14.554 2.38168C14.554 2.73362 14.554 3.07565 14.554 3.42263Z" fill="black"/>
<path d="M12.32 3.28395C12.32 3.57145 12.325 3.86391 12.32 4.15141C12.3149 4.3943 12.1997 4.52813 12.0044 4.52813C11.804 4.52813 11.6838 4.39926 11.6788 4.15637C11.6738 3.5665 11.6738 2.97167 11.6788 2.3818C11.6788 2.14387 11.799 2.00508 11.9944 2.00012C12.1947 1.99516 12.3149 2.14387 12.32 2.39171C12.32 2.69408 12.32 2.98654 12.32 3.28395Z" fill="black"/>
<path d="M7.83704 4.86508C7.83704 5.06336 7.84205 5.26163 7.83704 5.45495C7.83203 5.66314 7.71182 5.79202 7.52649 5.79698C7.33113 5.80193 7.2009 5.6681 7.2009 5.44999C7.19589 5.04849 7.19589 4.64698 7.2009 4.25043C7.2009 4.04719 7.33614 3.9084 7.51146 3.90344C7.69679 3.89849 7.83203 4.04224 7.83704 4.25538C7.84205 4.45862 7.83704 4.66185 7.83704 4.86508Z" fill="black"/>
<path d="M16.1569 4.8403C16.1569 4.64202 16.1519 4.44375 16.1569 4.25043C16.1619 4.04719 16.2871 3.9084 16.4674 3.90344C16.6528 3.89849 16.793 4.04224 16.793 4.25538C16.798 4.65689 16.798 5.0584 16.793 5.45495C16.793 5.66314 16.6678 5.79202 16.4825 5.79698C16.2871 5.80193 16.1619 5.6681 16.1569 5.44999C16.1569 5.24676 16.1569 5.04353 16.1569 4.8403Z" fill="black"/>
<path d="M16.1569 2.63455C16.1569 2.53046 16.1519 2.42636 16.1569 2.31731C16.1669 2.13886 16.2921 2.00998 16.4624 2.00503C16.6277 2.00007 16.778 2.12399 16.788 2.29748C16.798 2.5255 16.798 2.75352 16.788 2.98153C16.778 3.15503 16.6277 3.27399 16.4574 3.26408C16.2921 3.25416 16.1719 3.1352 16.1569 2.96666C16.1569 2.95675 16.1569 2.94188 16.1569 2.93196C16.1569 2.83283 16.1569 2.73369 16.1569 2.63455Z" fill="black"/>
<path d="M7.83698 2.64432C7.83698 2.75337 7.84199 2.86738 7.83698 2.97643C7.82195 3.14497 7.69172 3.26393 7.53143 3.26393C7.36613 3.26889 7.22087 3.15488 7.21086 2.98635C7.19583 2.75337 7.19583 2.51544 7.21086 2.28247C7.21586 2.12385 7.36113 2.00488 7.52141 2.00488C7.69172 2.00488 7.82195 2.13376 7.83698 2.31221C7.84199 2.42126 7.83698 2.53031 7.83698 2.64432Z" fill="black"/>
<path d="M8.65832 16.415C8.73345 15.9738 8.8186 15.4484 8.90376 14.9229C8.92379 14.8089 8.9288 14.69 8.96387 14.576C9.05904 14.2637 8.94884 14.0406 8.71342 13.8225C8.28264 13.421 7.8719 12.9947 7.46618 12.5684C7.19068 12.2809 7.13057 11.929 7.26081 11.5523C7.39104 11.1904 7.65151 10.9723 8.03219 10.9029C8.2576 10.8632 8.48801 10.8335 8.71842 10.7988C9.10913 10.7393 9.49482 10.6749 9.88552 10.6253C10.0909 10.6005 10.2061 10.4964 10.2912 10.318C10.5467 9.76777 10.8172 9.22747 11.0727 8.67726C11.258 8.27575 11.5485 8.02295 12.0043 8.02295C12.4551 8.02295 12.7407 8.27575 12.921 8.6723C13.1764 9.22252 13.4469 9.76282 13.7024 10.313C13.7875 10.4964 13.9077 10.6005 14.1231 10.6303C14.7292 10.7096 15.3303 10.8087 15.9364 10.9029C16.3371 10.9673 16.6076 11.1854 16.7378 11.5671C16.8731 11.9587 16.7879 12.3156 16.4974 12.613C16.0616 13.0641 15.6158 13.5102 15.17 13.9464C15.0147 14.1001 14.9747 14.2587 15.0097 14.4669C15.1199 15.0865 15.2251 15.7061 15.3253 16.3307C15.3904 16.752 15.2602 17.104 14.9045 17.3518C14.5639 17.5897 14.2033 17.5699 13.8476 17.3716C13.3367 17.0891 12.8158 16.8214 12.3099 16.529C12.0995 16.4051 11.9192 16.4001 11.7038 16.524C11.1829 16.8264 10.6469 17.1089 10.1109 17.3865C9.41468 17.7434 8.64329 17.2725 8.65832 16.415ZM9.29446 16.4596C9.28945 16.8066 9.54491 16.9652 9.82541 16.8115C10.3814 16.5141 10.9324 16.2167 11.4834 15.9143C11.824 15.726 12.1546 15.726 12.5002 15.9094C13.0412 16.2068 13.5822 16.4943 14.1231 16.7917C14.2584 16.866 14.3936 16.9255 14.5439 16.8165C14.6942 16.7074 14.7142 16.5538 14.6891 16.3852C14.589 15.7755 14.4938 15.1658 14.3786 14.5561C14.3035 14.1398 14.3986 13.7928 14.7092 13.4904C15.145 13.0641 15.5707 12.6279 16.0015 12.1967C16.1217 12.0727 16.1918 11.9389 16.1368 11.7654C16.0817 11.582 15.9364 11.5275 15.7661 11.5027C15.185 11.4184 14.609 11.3193 14.023 11.2449C13.5972 11.1904 13.3117 10.9822 13.1314 10.6005C12.8709 10.0404 12.5954 9.48523 12.3299 8.9251C12.2598 8.7764 12.1796 8.64752 11.9943 8.64752C11.809 8.64752 11.7238 8.77144 11.6537 8.92015C11.3832 9.49515 11.1027 10.0701 10.8272 10.6451C10.6719 10.9723 10.4215 11.1755 10.0608 11.2301C9.46477 11.3242 8.86369 11.4085 8.26261 11.4977C8.08228 11.5225 7.91699 11.5572 7.85187 11.7604C7.78675 11.9538 7.8719 12.0926 8.00214 12.2214C8.43792 12.6576 8.86869 13.0938 9.30448 13.5301C9.56995 13.7977 9.67013 14.115 9.61504 14.4768C9.58999 14.6503 9.55493 14.8188 9.52988 14.9874C9.45475 15.493 9.3746 15.9936 9.29446 16.4596Z" fill="black"/>
<path d="M12.1546 6.43652C15.2251 6.46626 17.9099 8.62747 18.5761 11.7553C18.8917 13.2374 18.6963 14.6699 18.0201 16.0331C17.9199 16.2313 17.7747 16.3057 17.5993 16.2512C17.399 16.1867 17.3339 15.9835 17.4441 15.7604C17.7196 15.1954 17.9249 14.6055 18.0051 13.9809C18.2956 11.6462 17.5242 9.71799 15.6408 8.2904C13.512 6.67445 10.6368 6.67445 8.43788 8.21605C8.35273 8.27553 8.25255 8.33006 8.15237 8.33501C8.01212 8.34493 7.90693 8.26066 7.85684 8.12187C7.80675 7.97316 7.85684 7.84428 7.98207 7.76497C8.34772 7.53695 8.70336 7.29407 9.08405 7.1057C10.0007 6.64471 10.9774 6.43652 12.1546 6.43652Z" fill="black"/>
<path d="M11.9142 19.736C8.75851 19.8004 5.83325 17.3517 5.35239 14.0554C5.16205 12.7369 5.34237 11.4729 5.9134 10.2634C5.93343 10.2237 5.94846 10.1841 5.9685 10.1444C6.0787 9.93127 6.249 9.85692 6.41931 9.94118C6.59963 10.0304 6.63469 10.1989 6.54954 10.417C6.37423 10.878 6.16886 11.3341 6.05866 11.8099C5.31232 14.9972 7.46118 18.2985 10.692 18.9578C12.4602 19.3196 14.0881 18.9776 15.5657 17.9515C15.5908 17.9317 15.6158 17.9119 15.6409 17.897C15.8062 17.7979 15.9915 17.8276 16.0917 17.9664C16.1969 18.1151 16.1818 18.2985 16.0165 18.4076C15.706 18.6157 15.3954 18.8239 15.0648 18.9925C14.1482 19.4733 13.1664 19.7013 11.9142 19.736Z" fill="black"/>
</svg>
