<svg width="172" height="8" viewBox="0 0 172 8" fill="none" xmlns="http://www.w3.org/2000/svg">
    <path
        d="M14.3205 23.9654L14.0757 24.1286L14.1631 24.2597H14.3205V23.9654ZM12.1174 20.6608L12.3622 20.4976L12.255 20.3367L12.0648 20.3713L12.1174 20.6608ZM5.08446 19.531L4.93948 19.787L4.94184 19.7883L5.08446 19.531ZM1.35613 15.8874L1.10141 16.0347L1.10357 16.0383L1.35613 15.8874ZM1.35613 5.35205L1.10277 5.20247L1.10222 5.20342L1.35613 5.35205ZM15.3656 1.70846L15.2217 1.96506L15.223 1.9658L15.3656 1.70846ZM19.0657 5.35205L18.811 5.49934L18.8118 5.50068L19.0657 5.35205ZM19.4329 15.153L19.6982 15.2802L19.6988 15.2788L19.4329 15.153ZM16.7214 18.5989L16.5371 18.3695L16.3104 18.5516L16.4898 18.7805L16.7214 18.5989ZM20.9298 23.9654V24.2597H21.5345L21.1614 23.7839L20.9298 23.9654ZM6.86389 14.3339L6.64274 14.528L6.64475 14.5302L6.86389 14.3339ZM13.5579 14.3057L13.339 14.1091L13.3368 14.1116L13.5579 14.3057ZM13.5579 6.87727L13.3367 7.07138L13.341 7.07608L13.5579 6.87727ZM6.86389 6.87727L7.08304 7.0736L7.08503 7.07134L6.86389 6.87727ZM14.5653 23.8022L12.3622 20.4976L11.8726 20.824L14.0757 24.1286L14.5653 23.8022ZM12.0648 20.3713C11.461 20.4811 10.8478 20.536 10.225 20.536V21.1245C10.8827 21.1245 11.5311 21.0664 12.1701 20.9503L12.0648 20.3713ZM10.225 20.536C8.40853 20.536 6.7444 20.1146 5.22708 19.2736L4.94184 19.7883C6.55029 20.6798 8.31321 21.1245 10.225 21.1245V20.536ZM5.22944 19.275C3.71098 18.4151 2.50525 17.2368 1.6087 15.7365L1.10357 16.0383C2.05235 17.6261 3.33217 18.8768 4.93949 19.787L5.22944 19.275ZM1.61083 15.7401C0.735054 14.2257 0.294597 12.5167 0.294597 10.6056H-0.293839C-0.293839 12.6111 0.169541 14.4233 1.10144 16.0347L1.61083 15.7401ZM0.294597 10.6056C0.294597 8.69444 0.735061 6.99545 1.61005 5.50068L1.10222 5.20342C0.169534 6.79675 -0.293839 8.60013 -0.293839 10.6056H0.294597ZM1.60949 5.50162C2.50595 3.98314 3.7108 2.80614 5.22708 1.9658L4.94184 1.45112C3.33235 2.34313 2.05165 3.59519 1.10277 5.20247L1.60949 5.50162ZM5.22708 1.9658C6.7444 1.12487 8.40853 0.703409 10.225 0.703409V0.114974C8.31321 0.114974 6.55029 0.55969 4.94184 1.45112L5.22708 1.9658ZM10.225 0.703409C12.0609 0.703409 13.7244 1.12512 15.2217 1.96506L15.5096 1.45186C13.9187 0.559443 12.1551 0.114974 10.225 0.114974V0.703409ZM15.223 1.9658C16.7387 2.80584 17.9336 3.98211 18.811 5.49934L19.3204 5.20476C18.3901 3.59622 17.1183 2.34343 15.5082 1.45112L15.223 1.9658ZM18.8118 5.50068C19.6868 6.99545 20.1272 8.69444 20.1272 10.6056H20.7157C20.7157 8.60013 20.2523 6.79675 19.3196 5.20342L18.8118 5.50068ZM20.1272 10.6056C20.1272 12.2031 19.8062 13.6756 19.1669 15.0272L19.6988 15.2788C20.3776 13.8436 20.7157 12.2845 20.7157 10.6056H20.1272ZM19.1676 15.0258C18.5269 16.3621 17.6502 17.4754 16.5371 18.3695L16.9056 18.8283C18.0898 17.8771 19.0208 16.6931 19.6982 15.2802L19.1676 15.0258ZM16.4898 18.7805L20.6983 24.147L21.1614 23.7839L16.9529 18.4173L16.4898 18.7805ZM20.9298 23.6712H14.3205V24.2597H20.9298V23.6712ZM5.35514 10.6056C5.35514 12.2198 5.77421 13.5383 6.64275 14.528L7.08503 14.1399C6.33419 13.2843 5.94358 12.1172 5.94358 10.6056H5.35514ZM6.64475 14.5302C7.52034 15.5077 8.72675 15.9839 10.225 15.9839V15.3955C8.86117 15.3955 7.82681 14.9679 7.08303 14.1376L6.64475 14.5302ZM10.225 15.9839C11.7079 15.9839 12.9048 15.496 13.7791 14.4997L13.3368 14.1116C12.5916 14.9607 11.5667 15.3955 10.225 15.3955V15.9839ZM13.7768 14.5023C14.6649 13.5132 15.0949 12.2037 15.0949 10.6056H14.5065C14.5065 12.0956 14.108 13.2528 13.339 14.1091L13.7768 14.5023ZM15.0949 10.6056C15.0949 8.9723 14.6662 7.65086 13.7748 6.67846L13.341 7.07608C14.1067 7.91136 14.5065 9.07547 14.5065 10.6056H15.0949ZM13.7791 6.68321C12.9048 5.68699 11.7079 5.19906 10.225 5.19906V5.78749C11.5667 5.78749 12.5916 6.22222 13.3368 7.07134L13.7791 6.68321ZM10.225 5.19906C8.72476 5.19906 7.51776 5.6861 6.64275 6.68321L7.08503 7.07134C7.82939 6.22311 8.86316 5.78749 10.225 5.78749V5.19906ZM6.64475 6.68096C5.77354 7.65346 5.35514 8.97396 5.35514 10.6056H5.94358C5.94358 9.07381 6.33486 7.90876 7.08303 7.07359L6.64475 6.68096ZM31.8442 20.6325L31.5852 20.772L31.6685 20.9268H31.8442V20.6325ZM27.8899 13.2889L28.149 13.1494L28.0657 12.9946H27.8899V13.2889ZM27.2968 13.2889V12.9946H27.0026V13.2889H27.2968ZM27.2968 20.6325V20.9268H27.591V20.6325H27.2968ZM21.7608 20.6325H21.4666V20.9268H21.7608V20.6325ZM21.7608 0.719885V0.425668H21.4666V0.719885H21.7608ZM34.5557 1.56723L34.4224 1.82952L34.4259 1.83128L34.5557 1.56723ZM37.0695 3.85507L36.8147 4.0021L36.8159 4.00424L37.0695 3.85507ZM36.7871 10.6903L36.5491 10.5173L36.5486 10.5181L36.7871 10.6903ZM33.5389 12.8652L33.4537 12.5836L33.0984 12.6911L33.2842 13.0125L33.5389 12.8652ZM38.0299 20.6325V20.9268H38.5398L38.2846 20.4853L38.0299 20.6325ZM27.2968 9.50405H27.0026V9.79827H27.2968V9.50405ZM31.7312 8.9674L31.5286 8.75409L31.7312 8.9674ZM31.703 5.91695L31.495 6.12499L31.5001 6.13019L31.5056 6.13512L31.703 5.91695ZM27.2968 5.35205V5.05783H27.0026V5.35205H27.2968ZM32.1033 20.493L28.149 13.1494L27.6309 13.4284L31.5852 20.772L32.1033 20.493ZM27.8899 12.9946H27.2968V13.5831H27.8899V12.9946ZM27.0026 13.2889V20.6325H27.591V13.2889H27.0026ZM27.2968 20.3383H21.7608V20.9268H27.2968V20.3383ZM22.055 20.6325V0.719885H21.4666V20.6325H22.055ZM21.7608 1.0141H30.4885V0.425668H21.7608V1.0141ZM30.4885 1.0141C32.0554 1.0141 33.3628 1.29071 34.4224 1.82949L34.6891 1.30497C33.5268 0.713956 32.1226 0.425668 30.4885 0.425668V1.0141ZM34.4259 1.83128C35.4897 2.35416 36.2817 3.07828 36.8147 4.0021L37.3244 3.70804C36.7276 2.67355 35.8437 1.87244 34.6855 1.30319L34.4259 1.83128ZM36.8159 4.00424C37.3521 4.91569 37.6227 5.94615 37.6227 7.10323H38.2111C38.2111 5.85009 37.9168 4.7151 37.3231 3.70589L36.8159 4.00424ZM37.6227 7.10323C37.6227 8.40069 37.2635 9.53498 36.5491 10.5173L37.025 10.8634C37.817 9.7744 38.2111 8.51729 38.2111 7.10323H37.6227ZM36.5486 10.5181C35.8588 11.4731 34.8353 12.1655 33.4537 12.5836L33.6241 13.1468C35.1047 12.6987 36.2466 11.9412 37.0256 10.8626L36.5486 10.5181ZM33.2842 13.0125L37.7751 20.7798L38.2846 20.4853L33.7936 12.7179L33.2842 13.0125ZM38.0299 20.3383H31.8442V20.9268H38.0299V20.3383ZM27.2968 9.79827H30.0365V9.20983H27.2968V9.79827ZM30.0365 9.79827C30.8314 9.79827 31.4823 9.60975 31.9339 9.1807L31.5286 8.75409C31.227 9.04058 30.7481 9.20983 30.0365 9.20983V9.79827ZM31.9339 9.1807C32.3853 8.75181 32.5904 8.14664 32.5904 7.41393H32.0019C32.0019 8.03697 31.8303 8.46744 31.5286 8.75409L31.9339 9.1807ZM32.5904 7.41393C32.5904 6.70871 32.3697 6.12343 31.9004 5.69877L31.5056 6.13512C31.8271 6.426 32.0019 6.83871 32.0019 7.41393H32.5904ZM31.911 5.7089C31.4611 5.25894 30.8188 5.05783 30.0365 5.05783V5.64627C30.7231 5.64627 31.1917 5.82176 31.495 6.12499L31.911 5.7089ZM30.0365 5.05783H27.2968V5.64627H30.0365V5.05783ZM27.0026 5.35205V9.50405H27.591V5.35205H27.0026ZM44.0236 5.40854L43.7643 5.26943L43.7637 5.27058L44.0236 5.40854ZM47.5259 1.82144L47.6702 2.07788L47.6726 2.0765L47.5259 1.82144ZM58.9934 2.52756L58.8111 2.75856L58.8127 2.7598L58.9934 2.52756ZM62.2698 7.92233V8.21655H62.6339L62.5574 7.86053L62.2698 7.92233ZM56.3101 7.92233L56.0443 8.04857L56.1241 8.21655H56.3101V7.92233ZM54.8131 6.19939L54.6552 6.44764L54.6585 6.44971L54.8131 6.19939ZM49.5596 6.99025L49.3339 6.80145L49.3336 6.8019L49.5596 6.99025ZM49.5596 14.3339L49.3316 14.52L49.3359 14.525L49.5596 14.3339ZM54.8131 15.0965L54.6585 14.8462L54.6552 14.8483L54.8131 15.0965ZM56.3101 13.3736V13.0794H56.1241L56.0443 13.2474L56.3101 13.3736ZM62.2698 13.3736L62.5574 13.4354L62.6339 13.0794H62.2698V13.3736ZM58.9934 18.7966L59.174 19.0289L59.1756 19.0276L58.9934 18.7966ZM47.5259 19.5027L47.3793 19.7578L47.3817 19.7592L47.5259 19.5027ZM44.0236 15.9156L43.763 16.0523L43.765 16.0561L44.0236 15.9156ZM43.1033 10.6338C43.1033 8.71711 43.4992 7.02382 44.2835 5.54649L43.7637 5.27058C42.9286 6.8437 42.5148 8.63395 42.5148 10.6338H43.1033ZM44.2828 5.54765C45.0853 4.05211 46.2132 2.89742 47.6702 2.07787L47.3817 1.565C45.8259 2.44014 44.6189 3.67686 43.7643 5.26943L44.2828 5.54765ZM47.6726 2.0765C49.1289 1.23911 50.8095 0.816389 52.723 0.816389V0.227954C50.7199 0.227954 48.9357 0.671415 47.3793 1.56638L47.6726 2.0765ZM52.723 0.816389C55.1529 0.816389 57.176 1.46864 58.8111 2.75855L59.1756 2.29657C57.4213 0.912629 55.2642 0.227954 52.723 0.227954V0.816389ZM58.8127 2.7598C60.448 4.03169 61.5057 5.76713 61.9821 7.98414L62.5574 7.86053C62.0547 5.52069 60.9281 3.65962 59.174 2.29532L58.8127 2.7598ZM62.2698 7.62812H56.3101V8.21655H62.2698V7.62812ZM56.5759 7.7961C56.1965 6.99743 55.6613 6.37746 54.9677 5.94908L54.6585 6.44971C55.2454 6.81218 55.7082 7.34084 56.0443 8.04857L56.5759 7.7961ZM54.9711 5.95118C54.2968 5.52206 53.5155 5.31204 52.6383 5.31204V5.90047C53.418 5.90047 54.0867 6.08587 54.6552 6.44761L54.9711 5.95118ZM52.6383 5.31204C51.2771 5.31204 50.1658 5.80721 49.3339 6.80145L49.7852 7.17906C50.4974 6.32796 51.4385 5.90047 52.6383 5.90047V5.31204ZM49.3336 6.8019C48.5246 7.77261 48.1356 9.06052 48.1356 10.6338H48.724C48.724 9.15672 49.0881 8.01557 49.7856 7.17861L49.3336 6.8019ZM48.1356 10.6338C48.1356 12.2253 48.5243 13.5309 49.3317 14.52L49.7875 14.1479C49.0885 13.2916 48.724 12.1305 48.724 10.6338H48.1356ZM49.3359 14.525C50.1685 15.4998 51.2793 15.9839 52.6383 15.9839V15.3955C51.4364 15.3955 50.4947 14.9757 49.7833 14.1428L49.3359 14.525ZM52.6383 15.9839C53.5155 15.9839 54.2968 15.7739 54.9711 15.3448L54.6552 14.8483C54.0867 15.2101 53.418 15.3955 52.6383 15.3955V15.9839ZM54.9677 15.3469C55.6613 14.9185 56.1965 14.2985 56.5759 13.4998L56.0443 13.2474C55.7082 13.9551 55.2454 14.4837 54.6585 14.8462L54.9677 15.3469ZM56.3101 13.6678H62.2698V13.0794H56.3101V13.6678ZM61.9821 13.3118C61.5057 15.529 60.4477 17.2746 58.8111 18.5656L59.1756 19.0276C60.9285 17.6448 62.0547 15.775 62.5574 13.4354L61.9821 13.3118ZM58.8127 18.5644C57.1776 19.8362 55.1539 20.4795 52.723 20.4795V21.068C55.2632 21.068 57.4198 20.3933 59.174 19.0289L58.8127 18.5644ZM52.723 20.4795C50.8084 20.4795 49.127 20.0657 47.6702 19.2463L47.3817 19.7592C48.9377 20.6344 50.721 21.068 52.723 21.068V20.4795ZM47.6726 19.2477C46.2133 18.4086 45.0846 17.2526 44.2821 15.7752L43.765 16.0561C44.6196 17.6292 45.8258 18.8645 47.3793 19.7578L47.6726 19.2477ZM44.2841 15.779C43.4994 14.2825 43.1033 12.5698 43.1033 10.6338H42.5148C42.5148 12.6521 42.9284 14.4607 43.763 16.0523L44.2841 15.779ZM68.1206 19.531L67.9756 19.787L67.978 19.7883L68.1206 19.531ZM64.3923 15.8874L64.1376 16.0347L64.1397 16.0383L64.3923 15.8874ZM64.3923 5.35205L64.1389 5.20247L64.1384 5.20342L64.3923 5.35205ZM78.4017 1.70846L78.2578 1.96506L78.2591 1.9658L78.4017 1.70846ZM82.1018 5.35205L81.8471 5.49934L81.8479 5.50068L82.1018 5.35205ZM82.1018 15.8874L82.3557 16.036L82.3565 16.0347L82.1018 15.8874ZM78.4017 19.531L78.5444 19.7883L78.5467 19.787L78.4017 19.531ZM76.5941 14.3057L76.3751 14.1091L76.3729 14.1116L76.5941 14.3057ZM76.5941 6.87727L76.3729 7.07138L76.3772 7.07608L76.5941 6.87727ZM69.9 6.87727L70.1192 7.0736L70.1212 7.07134L69.9 6.87727ZM69.9 14.3339L69.6789 14.528L69.6809 14.5302L69.9 14.3339ZM73.2612 20.536C71.4447 20.536 69.7805 20.1146 68.2632 19.2736L67.978 19.7883C69.5864 20.6798 71.3493 21.1245 73.2612 21.1245V20.536ZM68.2656 19.275C66.7471 18.4151 65.5414 17.2368 64.6448 15.7365L64.1397 16.0383C65.0885 17.6261 66.3683 18.8768 67.9756 19.787L68.2656 19.275ZM64.647 15.7401C63.7712 14.2257 63.3307 12.5167 63.3307 10.6056H62.7423C62.7423 12.6111 63.2057 14.4233 64.1376 16.0347L64.647 15.7401ZM63.3307 10.6056C63.3307 8.69444 63.7712 6.99545 64.6462 5.50068L64.1384 5.20342C63.2057 6.79675 62.7423 8.60013 62.7423 10.6056H63.3307ZM64.6456 5.50162C65.5421 3.98314 66.7469 2.80614 68.2632 1.9658L67.978 1.45112C66.3685 2.34313 65.0878 3.59519 64.1389 5.20247L64.6456 5.50162ZM68.2632 1.9658C69.7805 1.12487 71.4447 0.703409 73.2612 0.703409V0.114974C71.3493 0.114974 69.5864 0.55969 67.978 1.45112L68.2632 1.9658ZM73.2612 0.703409C75.0971 0.703409 76.7605 1.12512 78.2578 1.96506L78.5457 1.45186C76.9549 0.559443 75.1913 0.114974 73.2612 0.114974V0.703409ZM78.2591 1.9658C79.7748 2.80584 80.9697 3.98211 81.8471 5.49934L82.3565 5.20476C81.4263 3.59622 80.1544 2.34343 78.5444 1.45112L78.2591 1.9658ZM81.8479 5.50068C82.7229 6.99545 83.1634 8.69444 83.1634 10.6056H83.7518C83.7518 8.60013 83.2884 6.79675 82.3557 5.20342L81.8479 5.50068ZM83.1634 10.6056C83.1634 12.5167 82.7229 14.2257 81.8471 15.7401L82.3565 16.0347C83.2884 14.4233 83.7518 12.6111 83.7518 10.6056H83.1634ZM81.8479 15.7388C80.9704 17.2379 79.7747 18.4154 78.2568 19.275L78.5467 19.787C80.1546 18.8765 81.4256 17.625 82.3557 16.036L81.8479 15.7388ZM78.2591 19.2736C76.7418 20.1146 75.0777 20.536 73.2612 20.536V21.1245C75.173 21.1245 76.9359 20.6798 78.5444 19.7883L78.2591 19.2736ZM73.2612 15.9839C74.744 15.9839 75.941 15.496 76.8152 14.4997L76.3729 14.1116C75.6278 14.9607 74.6028 15.3955 73.2612 15.3955V15.9839ZM76.813 14.5023C77.7011 13.5132 78.1311 12.2037 78.1311 10.6056H77.5426C77.5426 12.0956 77.1441 13.2528 76.3752 14.1091L76.813 14.5023ZM78.1311 10.6056C78.1311 8.9723 77.7023 7.65086 76.8109 6.67846L76.3772 7.07608C77.1428 7.91136 77.5426 9.07547 77.5426 10.6056H78.1311ZM76.8152 6.68321C75.941 5.68699 74.744 5.19906 73.2612 5.19906V5.78749C74.6028 5.78749 75.6278 6.22222 76.3729 7.07134L76.8152 6.68321ZM73.2612 5.19906C71.7609 5.19906 70.5539 5.6861 69.6789 6.68321L70.1212 7.07134C70.8655 6.22311 71.8993 5.78749 73.2612 5.78749V5.19906ZM69.6809 6.68096C68.8097 7.65346 68.3913 8.97396 68.3913 10.6056H68.9797C68.9797 9.07381 69.371 7.90876 70.1192 7.07359L69.6809 6.68096ZM68.3913 10.6056C68.3913 12.2198 68.8103 13.5383 69.6789 14.528L70.1212 14.1399C69.3703 13.2843 68.9797 12.1172 68.9797 10.6056H68.3913ZM69.6809 14.5302C70.5565 15.5077 71.7629 15.9839 73.2612 15.9839V15.3955C71.8973 15.3955 70.8629 14.9679 70.1192 14.1376L69.6809 14.5302ZM103.213 20.6325V20.9268H103.507V20.6325H103.213ZM97.6773 20.6325L97.432 20.795L97.5192 20.9268H97.6773V20.6325ZM90.3053 9.50405L90.5506 9.34156L90.0111 8.52715V9.50405H90.3053ZM90.3053 20.6325V20.9268H90.5996V20.6325H90.3053ZM84.7693 20.6325H84.4751V20.9268H84.7693V20.6325ZM84.7693 0.719885V0.425668H84.4751V0.719885H84.7693ZM90.3053 0.719885L90.5516 0.558825L90.4645 0.425668H90.3053V0.719885ZM97.6773 11.9896L97.431 12.1507L97.9715 12.9768V11.9896H97.6773ZM97.6773 0.719885V0.425668H97.383V0.719885H97.6773ZM103.213 0.719885H103.507V0.425668H103.213V0.719885ZM103.213 20.3383H97.6773V20.9268H103.213V20.3383ZM97.9225 20.4701L90.5506 9.34156L90.0601 9.66653L97.432 20.795L97.9225 20.4701ZM90.0111 9.50405V20.6325H90.5996V9.50405H90.0111ZM90.3053 20.3383H84.7693V20.9268H90.3053V20.3383ZM85.0636 20.6325V0.719885H84.4751V20.6325H85.0636ZM84.7693 1.0141H90.3053V0.425668H84.7693V1.0141ZM90.0591 0.880945L97.431 12.1507L97.9235 11.8285L90.5516 0.558825L90.0591 0.880945ZM97.9715 11.9896V0.719885H97.383V11.9896H97.9715ZM97.6773 1.0141H103.213V0.425668H97.6773V1.0141ZM102.919 0.719885V20.6325H103.507V0.719885H102.919ZM120.188 0.719885H120.482V0.425668H120.188V0.719885ZM120.188 5.12609V5.42031H120.482V5.12609H120.188ZM114.878 5.12609V4.83187H114.584V5.12609H114.878ZM114.878 20.6325V20.9268H115.172V20.6325H114.878ZM109.342 20.6325H109.048V20.9268H109.342V20.6325ZM109.342 5.12609H109.636V4.83187H109.342V5.12609ZM104.088 5.12609H103.794V5.42031H104.088V5.12609ZM104.088 0.719885V0.425668H103.794V0.719885H104.088ZM119.894 0.719885V5.12609H120.482V0.719885H119.894ZM120.188 4.83187H114.878V5.42031H120.188V4.83187ZM114.584 5.12609V20.6325H115.172V5.12609H114.584ZM114.878 20.3383H109.342V20.9268H114.878V20.3383ZM109.636 20.6325V5.12609H109.048V20.6325H109.636ZM109.342 4.83187H104.088V5.42031H109.342V4.83187ZM104.383 5.12609V0.719885H103.794V5.12609H104.383ZM104.088 1.0141H120.188V0.425668H104.088V1.0141ZM131.143 20.6325L130.884 20.772L130.967 20.9268H131.143V20.6325ZM127.188 13.2889L127.447 13.1494L127.364 12.9946H127.188V13.2889ZM126.595 13.2889V12.9946H126.301V13.2889H126.595ZM126.595 20.6325V20.9268H126.889V20.6325H126.595ZM121.059 20.6325H120.765V20.9268H121.059V20.6325ZM121.059 0.719885V0.425668H120.765V0.719885H121.059ZM133.854 1.56723L133.721 1.82952L133.724 1.83128L133.854 1.56723ZM136.368 3.85507L136.113 4.0021L136.114 4.00424L136.368 3.85507ZM136.086 10.6903L135.848 10.5173L135.847 10.5181L136.086 10.6903ZM132.837 12.8652L132.752 12.5836L132.397 12.6911L132.583 13.0125L132.837 12.8652ZM137.328 20.6325V20.9268H137.838L137.583 20.4853L137.328 20.6325ZM126.595 9.50405H126.301V9.79827H126.595V9.50405ZM131.03 8.9674L130.827 8.75409L131.03 8.9674ZM131.001 5.91695L130.793 6.12499L130.799 6.13019L130.804 6.13512L131.001 5.91695ZM126.595 5.35205V5.05783H126.301V5.35205H126.595ZM131.402 20.493L127.447 13.1494L126.929 13.4284L130.884 20.772L131.402 20.493ZM127.188 12.9946H126.595V13.5831H127.188V12.9946ZM126.301 13.2889V20.6325H126.889V13.2889H126.301ZM126.595 20.3383H121.059V20.9268H126.595V20.3383ZM121.353 20.6325V0.719885H120.765V20.6325H121.353ZM121.059 1.0141H129.787V0.425668H121.059V1.0141ZM129.787 1.0141C131.354 1.0141 132.661 1.29071 133.721 1.82949L133.988 1.30497C132.825 0.713956 131.421 0.425668 129.787 0.425668V1.0141ZM133.724 1.83128C134.788 2.35416 135.58 3.07828 136.113 4.0021L136.623 3.70804C136.026 2.67355 135.142 1.87244 133.984 1.30319L133.724 1.83128ZM136.114 4.00424C136.651 4.91569 136.921 5.94615 136.921 7.10323H137.51C137.51 5.85009 137.215 4.7151 136.622 3.70589L136.114 4.00424ZM136.921 7.10323C136.921 8.40069 136.562 9.53498 135.848 10.5173L136.323 10.8634C137.115 9.7744 137.51 8.51729 137.51 7.10323H136.921ZM135.847 10.5181C135.157 11.4731 134.134 12.1655 132.752 12.5836L132.923 13.1468C134.403 12.6987 135.545 11.9412 136.324 10.8626L135.847 10.5181ZM132.583 13.0125L137.074 20.7798L137.583 20.4853L133.092 12.7179L132.583 13.0125ZM137.328 20.3383H131.143V20.9268H137.328V20.3383ZM126.595 9.79827H129.335V9.20983H126.595V9.79827ZM129.335 9.79827C130.13 9.79827 130.781 9.60975 131.232 9.1807L130.827 8.75409C130.525 9.04058 130.047 9.20983 129.335 9.20983V9.79827ZM131.232 9.1807C131.684 8.75181 131.889 8.14664 131.889 7.41393H131.3C131.3 8.03697 131.129 8.46744 130.827 8.75409L131.232 9.1807ZM131.889 7.41393C131.889 6.70871 131.668 6.12343 131.199 5.69877L130.804 6.13512C131.126 6.426 131.3 6.83871 131.3 7.41393H131.889ZM131.21 5.7089C130.76 5.25894 130.117 5.05783 129.335 5.05783V5.64627C130.022 5.64627 130.49 5.82176 130.793 6.12499L131.21 5.7089ZM129.335 5.05783H126.595V5.64627H129.335V5.05783ZM126.301 5.35205V9.50405H126.889V5.35205H126.301ZM142.962 19.531L142.817 19.787L142.82 19.7883L142.962 19.531ZM139.234 15.8874L138.979 16.0347L138.981 16.0383L139.234 15.8874ZM139.234 5.35205L138.981 5.20247L138.98 5.20342L139.234 5.35205ZM153.243 1.70846L153.099 1.96506L153.101 1.9658L153.243 1.70846ZM156.943 5.35205L156.689 5.49934L156.69 5.50068L156.943 5.35205ZM156.943 15.8874L157.197 16.036L157.198 16.0347L156.943 15.8874ZM153.243 19.531L153.386 19.7883L153.388 19.787L153.243 19.531ZM151.436 14.3057L151.217 14.1091L151.215 14.1116L151.436 14.3057ZM151.436 6.87727L151.214 7.07138L151.219 7.07608L151.436 6.87727ZM144.742 6.87727L144.961 7.0736L144.963 7.07134L144.742 6.87727ZM144.742 14.3339L144.52 14.528L144.523 14.5302L144.742 14.3339ZM148.103 20.536C146.286 20.536 144.622 20.1146 143.105 19.2736L142.82 19.7883C144.428 20.6798 146.191 21.1245 148.103 21.1245V20.536ZM143.107 19.275C141.589 18.4151 140.383 17.2368 139.486 15.7365L138.981 16.0383C139.93 17.6261 141.21 18.8768 142.817 19.787L143.107 19.275ZM139.489 15.7401C138.613 14.2257 138.172 12.5167 138.172 10.6056H137.584C137.584 12.6111 138.047 14.4233 138.979 16.0347L139.489 15.7401ZM138.172 10.6056C138.172 8.69444 138.613 6.99545 139.488 5.50068L138.98 5.20342C138.047 6.79675 137.584 8.60013 137.584 10.6056H138.172ZM139.487 5.50162C140.384 3.98314 141.589 2.80614 143.105 1.9658L142.82 1.45112C141.21 2.34313 139.929 3.59519 138.981 5.20247L139.487 5.50162ZM143.105 1.9658C144.622 1.12487 146.286 0.703409 148.103 0.703409V0.114974C146.191 0.114974 144.428 0.55969 142.82 1.45112L143.105 1.9658ZM148.103 0.703409C149.939 0.703409 151.602 1.12512 153.099 1.96506L153.387 1.45186C151.796 0.559443 150.033 0.114974 148.103 0.114974V0.703409ZM153.101 1.9658C154.616 2.80584 155.811 3.98211 156.689 5.49934L157.198 5.20476C156.268 3.59622 154.996 2.34343 153.386 1.45112L153.101 1.9658ZM156.69 5.50068C157.565 6.99545 158.005 8.69444 158.005 10.6056H158.593C158.593 8.60013 158.13 6.79675 157.197 5.20342L156.69 5.50068ZM158.005 10.6056C158.005 12.5167 157.565 14.2257 156.689 15.7401L157.198 16.0347C158.13 14.4233 158.593 12.6111 158.593 10.6056H158.005ZM156.69 15.7388C155.812 17.2379 154.616 18.4154 153.098 19.275L153.388 19.787C154.996 18.8765 156.267 17.625 157.197 16.036L156.69 15.7388ZM153.101 19.2736C151.583 20.1146 149.919 20.536 148.103 20.536V21.1245C150.015 21.1245 151.778 20.6798 153.386 19.7883L153.101 19.2736ZM148.103 15.9839C149.586 15.9839 150.783 15.496 151.657 14.4997L151.215 14.1116C150.469 14.9607 149.444 15.3955 148.103 15.3955V15.9839ZM151.655 14.5023C152.543 13.5132 152.973 12.2037 152.973 10.6056H152.384C152.384 12.0956 151.986 13.2528 151.217 14.1091L151.655 14.5023ZM152.973 10.6056C152.973 8.9723 152.544 7.65086 151.653 6.67846L151.219 7.07608C151.984 7.91136 152.384 9.07547 152.384 10.6056H152.973ZM151.657 6.68321C150.783 5.68699 149.586 5.19906 148.103 5.19906V5.78749C149.444 5.78749 150.469 6.22222 151.215 7.07134L151.657 6.68321ZM148.103 5.19906C146.603 5.19906 145.396 5.6861 144.521 6.68321L144.963 7.07134C145.707 6.22311 146.741 5.78749 148.103 5.78749V5.19906ZM144.523 6.68096C143.651 7.65346 143.233 8.97396 143.233 10.6056H143.821C143.821 9.07381 144.213 7.90876 144.961 7.07359L144.523 6.68096ZM143.233 10.6056C143.233 12.2198 143.652 13.5383 144.521 14.528L144.963 14.1399C144.212 13.2843 143.821 12.1172 143.821 10.6056H143.233ZM144.523 14.5302C145.398 15.5077 146.605 15.9839 148.103 15.9839V15.3955C146.739 15.3955 145.705 14.9679 144.961 14.1376L144.523 14.5302ZM165.147 16.3958H164.853V16.69H165.147V16.3958ZM171.333 16.3958H171.627V16.1016H171.333V16.3958ZM171.333 20.6325V20.9268H171.627V20.6325H171.333ZM159.611 20.6325H159.317V20.9268H159.611V20.6325ZM159.611 0.719885V0.425668H159.317V0.719885H159.611ZM165.147 0.719885H165.441V0.425668H165.147V0.719885ZM165.147 16.69H171.333V16.1016H165.147V16.69ZM171.038 16.3958V20.6325H171.627V16.3958H171.038ZM171.333 20.3383H159.611V20.9268H171.333V20.3383ZM159.905 20.6325V0.719885H159.317V20.6325H159.905ZM159.611 1.0141H165.147V0.425668H159.611V1.0141ZM164.853 0.719885V16.3958H165.441V0.719885H164.853Z"
        fill="#00E5B3" />
</svg>