<svg width="172" height="24" viewBox="0 0 172 24" fill="none" xmlns="http://www.w3.org/2000/svg">
<path d="M14.3205 23.5641L12.1174 20.2594C11.4961 20.3724 10.8652 20.4289 10.225 20.4289C8.36087 20.4289 6.64734 19.9958 5.08446 19.1297C3.52158 18.2446 2.2788 17.0301 1.35613 15.4861C0.452297 13.9232 0.000379071 12.1626 0.000379071 10.2043C0.000379071 8.24595 0.452297 6.49477 1.35613 4.95071C2.2788 3.38783 3.52158 2.1733 5.08446 1.30712C6.64734 0.440944 8.36087 0.0078551 10.225 0.0078551C12.108 0.0078551 13.8215 0.440944 15.3656 1.30712C16.9285 2.1733 18.1618 3.38783 19.0657 4.95071C19.9695 6.49477 20.4214 8.24595 20.4214 10.2043C20.4214 11.8425 20.0919 13.3583 19.4329 14.7517C18.7738 16.1263 17.87 17.2749 16.7214 18.1976L20.9298 23.5641H14.3205ZM5.64936 10.2043C5.64936 11.7671 6.0542 13.0099 6.86389 13.9326C7.67358 14.8364 8.79396 15.2883 10.225 15.2883C11.6373 15.2883 12.7482 14.827 13.5579 13.9043C14.3864 12.9817 14.8007 11.7483 14.8007 10.2043C14.8007 8.62255 14.3864 7.37977 13.5579 6.47594C12.7482 5.55327 11.6373 5.09194 10.225 5.09194C8.79396 5.09194 7.67358 5.55327 6.86389 6.47594C6.0542 7.37977 5.64936 8.62255 5.64936 10.2043ZM31.8442 20.2312L27.8899 12.8875H27.2968V20.2312H21.7608V0.318548H30.4885C32.089 0.318548 33.4448 0.600998 34.5557 1.1659C35.6667 1.71196 36.5046 2.47458 37.0695 3.45373C37.6344 4.41406 37.9169 5.49678 37.9169 6.7019C37.9169 8.05765 37.5403 9.25335 36.7871 10.289C36.0527 11.3058 34.97 12.0308 33.5389 12.4639L38.0299 20.2312H31.8442ZM27.2968 9.10271H30.0365C30.7897 9.10271 31.3546 8.92383 31.7312 8.56606C32.1078 8.20829 32.2961 7.69047 32.2961 7.01259C32.2961 6.37237 32.0984 5.87338 31.703 5.51561C31.3264 5.13901 30.7709 4.95071 30.0365 4.95071H27.2968V9.10271ZM42.809 10.2325C42.809 8.27419 43.2139 6.53243 44.0236 5.0072C44.8521 3.46315 46.0196 2.26745 47.5259 1.4201C49.0323 0.553923 50.7647 0.120835 52.723 0.120835C55.2086 0.120835 57.2987 0.789297 58.9934 2.12622C60.6881 3.44432 61.7802 5.24258 62.2698 7.521H56.3101C55.9523 6.7678 55.4533 6.19349 54.8131 5.79806C54.1917 5.40263 53.4668 5.20492 52.6383 5.20492C51.3578 5.20492 50.3316 5.66625 49.5596 6.58892C48.8064 7.49275 48.4298 8.70728 48.4298 10.2325C48.4298 11.7766 48.8064 13.0099 49.5596 13.9326C50.3316 14.8364 51.3578 15.2883 52.6383 15.2883C53.4668 15.2883 54.1917 15.0906 54.8131 14.6952C55.4533 14.2998 55.9523 13.7255 56.3101 12.9723H62.2698C61.7802 15.2507 60.6881 17.0584 58.9934 18.3953C57.2987 19.7134 55.2086 20.3724 52.723 20.3724C50.7647 20.3724 49.0323 19.9488 47.5259 19.1014C46.0196 18.2352 44.8521 17.0395 44.0236 15.5143C43.2139 13.9702 42.809 12.2097 42.809 10.2325ZM73.2612 20.4289C71.397 20.4289 69.6835 19.9958 68.1206 19.1297C66.5577 18.2446 65.3149 17.0301 64.3923 15.4861C63.4884 13.9232 63.0365 12.1626 63.0365 10.2043C63.0365 8.24595 63.4884 6.49477 64.3923 4.95071C65.3149 3.38783 66.5577 2.1733 68.1206 1.30712C69.6835 0.440944 71.397 0.0078551 73.2612 0.0078551C75.1442 0.0078551 76.8577 0.440944 78.4017 1.30712C79.9646 2.1733 81.198 3.38783 82.1018 4.95071C83.0057 6.49477 83.4576 8.24595 83.4576 10.2043C83.4576 12.1626 83.0057 13.9232 82.1018 15.4861C81.198 17.0301 79.9646 18.2446 78.4017 19.1297C76.8389 19.9958 75.1253 20.4289 73.2612 20.4289ZM73.2612 15.2883C74.6734 15.2883 75.7844 14.827 76.5941 13.9043C77.4226 12.9817 77.8368 11.7483 77.8368 10.2043C77.8368 8.62255 77.4226 7.37977 76.5941 6.47594C75.7844 5.55327 74.6734 5.09194 73.2612 5.09194C71.8301 5.09194 70.7097 5.55327 69.9 6.47594C69.0903 7.37977 68.6855 8.62255 68.6855 10.2043C68.6855 11.7671 69.0903 13.0099 69.9 13.9326C70.7097 14.8364 71.8301 15.2883 73.2612 15.2883ZM103.213 20.2312H97.6773L90.3053 9.10271V20.2312H84.7693V0.318548H90.3053L97.6773 11.5883V0.318548H103.213V20.2312ZM120.188 0.318548V4.72475H114.878V20.2312H109.342V4.72475H104.088V0.318548H120.188ZM131.143 20.2312L127.188 12.8875H126.595V20.2312H121.059V0.318548H129.787C131.387 0.318548 132.743 0.600998 133.854 1.1659C134.965 1.71196 135.803 2.47458 136.368 3.45373C136.933 4.41406 137.215 5.49678 137.215 6.7019C137.215 8.05765 136.839 9.25335 136.086 10.289C135.351 11.3058 134.268 12.0308 132.837 12.4639L137.328 20.2312H131.143ZM126.595 9.10271H129.335C130.088 9.10271 130.653 8.92383 131.03 8.56606C131.406 8.20829 131.595 7.69047 131.595 7.01259C131.595 6.37237 131.397 5.87338 131.001 5.51561C130.625 5.13901 130.069 4.95071 129.335 4.95071H126.595V9.10271ZM148.103 20.4289C146.239 20.4289 144.525 19.9958 142.962 19.1297C141.399 18.2446 140.157 17.0301 139.234 15.4861C138.33 13.9232 137.878 12.1626 137.878 10.2043C137.878 8.24595 138.33 6.49477 139.234 4.95071C140.157 3.38783 141.399 2.1733 142.962 1.30712C144.525 0.440944 146.239 0.0078551 148.103 0.0078551C149.986 0.0078551 151.699 0.440944 153.243 1.30712C154.806 2.1733 156.04 3.38783 156.943 4.95071C157.847 6.49477 158.299 8.24595 158.299 10.2043C158.299 12.1626 157.847 13.9232 156.943 15.4861C156.04 17.0301 154.806 18.2446 153.243 19.1297C151.68 19.9958 149.967 20.4289 148.103 20.4289ZM148.103 15.2883C149.515 15.2883 150.626 14.827 151.436 13.9043C152.264 12.9817 152.678 11.7483 152.678 10.2043C152.678 8.62255 152.264 7.37977 151.436 6.47594C150.626 5.55327 149.515 5.09194 148.103 5.09194C146.672 5.09194 145.551 5.55327 144.742 6.47594C143.932 7.37977 143.527 8.62255 143.527 10.2043C143.527 11.7671 143.932 13.0099 144.742 13.9326C145.551 14.8364 146.672 15.2883 148.103 15.2883ZM165.147 15.9945H171.333V20.2312H159.611V0.318548H165.147V15.9945Z" fill="white"/>
</svg>
