<svg width="26" height="25" viewBox="0 0 26 25" fill="none" xmlns="http://www.w3.org/2000/svg">
<g clip-path="url(#clip0_8_476)">
<path d="M23.1471 17.1021C23.5205 16.2702 23.7938 15.3819 23.9598 14.4355C24.5796 10.9087 23.7483 7.72773 21.4544 4.96996C19.715 2.8781 17.4793 1.56365 14.8018 1.07935C11.4938 0.480562 8.45434 1.18064 5.76369 3.20956C3.42489 4.97356 1.98157 7.32255 1.41275 10.1996C1.33483 10.594 1.30366 10.998 1.24912 11.3978C1.23653 11.4925 1.21855 11.586 1.20237 11.6801V13.0263C1.26231 13.468 1.30606 13.9128 1.38578 14.3509C1.5626 15.3279 1.84431 16.2444 2.22852 17.0997C2.7356 16.8378 3.30262 16.6778 3.9032 16.6484C1.73762 16.7587 0 18.5652 0 20.7578C0 23.0211 1.8515 24.8726 4.11478 24.8726H21.265C23.5283 24.8726 25.3798 23.0211 25.3798 20.7578C25.3798 19.1718 24.4699 17.789 23.1465 17.1027L23.1471 17.1021ZM12.7136 4.22372C14.7245 4.22852 16.3399 5.86784 16.3339 7.89796C16.3279 9.9017 14.6951 11.517 12.68 11.5129C10.6601 11.5087 9.04293 9.88013 9.04653 7.853C9.04952 5.84027 10.6882 4.21893 12.7142 4.22372H12.7136ZM6.6382 16.1365C7.81659 14.2526 9.4595 13.0089 11.67 12.6037C13.271 12.3106 14.7563 12.6829 16.1343 13.5136C17.2911 14.2107 18.1866 15.1625 18.8705 16.3277C18.9322 16.4332 18.9849 16.5381 19.0299 16.6418H6.36188C6.441 16.4668 6.5375 16.2971 6.6382 16.1365ZM7.3131 21.8744C7.16925 22.122 6.88634 22.1765 6.58305 22.0093C6.35109 21.8816 6.12332 21.7474 5.83921 21.5849C5.83921 21.9158 5.84461 22.1897 5.83802 22.4636C5.83022 22.7963 5.64501 23.0037 5.3675 23.0055C5.08998 23.0073 4.90118 22.7981 4.89398 22.4678C4.88799 22.1915 4.89279 21.9152 4.89279 21.5867C4.6818 21.7054 4.50918 21.8013 4.33835 21.899C3.86124 22.1729 3.57713 22.1639 3.4111 21.8678C3.24687 21.5741 3.37035 21.3482 3.84386 21.0749C4.01648 20.9748 4.18851 20.8735 4.39949 20.75C4.13816 20.5983 3.91039 20.4677 3.68502 20.334C3.36076 20.1416 3.26365 19.8791 3.4189 19.6237C3.57593 19.3654 3.84206 19.3222 4.17053 19.5057C4.37971 19.6225 4.5865 19.7448 4.79449 19.8635C4.80947 19.8719 4.83045 19.8701 4.89219 19.8791C4.89219 19.6016 4.88859 19.3288 4.89338 19.0561C4.89938 18.6935 5.0702 18.5041 5.37649 18.5095C5.66659 18.5149 5.82843 18.7025 5.83921 19.0501C5.84341 19.1844 5.84041 19.3193 5.84041 19.4535C5.84041 19.5872 5.84041 19.7208 5.84041 19.918C6.10474 19.7664 6.33131 19.6357 6.55968 19.5069C6.88514 19.3228 7.15666 19.366 7.31071 19.6237C7.46415 19.8803 7.36825 20.141 7.04398 20.3358C6.82221 20.4689 6.59744 20.5965 6.33011 20.7518C6.60523 20.91 6.83839 21.0407 7.06676 21.1773C7.36885 21.3584 7.45995 21.6227 7.3137 21.8744H7.3131ZM12.1915 21.8816C12.0453 22.1268 11.7683 22.1741 11.4603 22.0033C11.2421 21.8828 11.0263 21.7582 10.8087 21.6371C10.7961 21.6299 10.7734 21.6407 10.7284 21.6467C10.7284 21.9188 10.732 22.1945 10.7272 22.4702C10.7218 22.7849 10.5168 23.0085 10.2453 23.0061C9.98516 23.0037 9.77898 22.7933 9.76519 22.4924C9.7526 22.2149 9.76279 21.9362 9.76279 21.5981C9.47149 21.7605 9.23054 21.9332 8.96141 22.0303C8.80438 22.0872 8.57002 22.0794 8.43396 21.9961C8.32307 21.9284 8.25474 21.7024 8.26553 21.5538C8.27452 21.4303 8.40638 21.2882 8.52087 21.2067C8.75223 21.0425 9.00817 20.9136 9.28628 20.7512C9.02615 20.6001 8.80318 20.4725 8.582 20.3424C8.25054 20.147 8.15284 19.9001 8.29909 19.6345C8.45014 19.3618 8.72106 19.3187 9.0699 19.5152C9.28508 19.6363 9.49846 19.761 9.761 19.912C9.761 19.6303 9.7604 19.3954 9.761 19.1604C9.76279 18.7295 9.92283 18.5137 10.2411 18.5101C10.5696 18.5065 10.7266 18.7115 10.7278 19.1454C10.7278 19.3852 10.7278 19.6249 10.7278 19.9174C11.0155 19.7538 11.2541 19.6147 11.4962 19.4817C11.7803 19.3252 12.0566 19.3852 12.1957 19.6267C12.3378 19.8731 12.2568 20.1326 11.9739 20.307C11.7378 20.4527 11.4962 20.5893 11.2205 20.7518C11.4734 20.9004 11.703 21.0335 11.9308 21.1696C12.2526 21.362 12.3467 21.6221 12.1909 21.8834L12.1915 21.8816ZM16.8254 21.1737C17.1316 21.3578 17.2269 21.6149 17.0849 21.8666C16.9374 22.1286 16.6581 22.1789 16.3345 21.9979C16.1115 21.8738 15.8909 21.7456 15.6224 21.5927C15.6224 21.9014 15.626 22.1573 15.6218 22.4133C15.6158 22.7753 15.4198 23.0079 15.1315 23.0055C14.8414 23.0031 14.6592 22.7729 14.6562 22.4055C14.6544 22.1651 14.6532 21.9254 14.6496 21.685C14.6496 21.67 14.6322 21.6557 14.6064 21.6149C14.3787 21.745 14.1503 21.8786 13.9183 22.0069C13.6126 22.1759 13.3315 22.1244 13.1889 21.8768C13.0408 21.6203 13.1295 21.3632 13.4328 21.1803C13.6546 21.0467 13.8788 20.9172 14.1011 20.7853C14.1083 20.7812 14.1113 20.7698 14.1353 20.7314C13.8944 20.5893 13.651 20.4503 13.4119 20.3052C13.1277 20.1326 13.0444 19.8749 13.1871 19.6279C13.3267 19.3852 13.5977 19.3258 13.8854 19.4787C14.0124 19.5458 14.1353 19.6207 14.2606 19.6921C14.3763 19.7574 14.4919 19.8215 14.6562 19.9138C14.6562 19.6046 14.6538 19.333 14.6562 19.0609C14.6598 18.7169 14.8222 18.5227 15.1099 18.5107C15.4102 18.4987 15.6086 18.6977 15.62 19.0417C15.629 19.3157 15.6218 19.5908 15.6218 19.9108C15.8975 19.7544 16.1277 19.6219 16.3596 19.4931C16.6683 19.321 16.935 19.3726 17.0807 19.6297C17.2269 19.8875 17.1382 20.138 16.8307 20.3256C16.6102 20.4605 16.3866 20.5905 16.1648 20.7236C16.1588 20.7272 16.1576 20.7386 16.1427 20.7734C16.368 20.9058 16.5976 21.0383 16.8254 21.1749V21.1737ZM21.9657 21.8792C21.8122 22.1376 21.5317 22.1729 21.1847 21.9763C20.9701 21.8547 20.7561 21.7324 20.4912 21.5807C20.4912 21.9062 20.4954 22.1795 20.49 22.4528C20.484 22.7897 20.3084 22.9965 20.0303 23.0049C19.7444 23.0139 19.5514 22.7975 19.5448 22.4492C19.5394 22.1831 19.5436 21.9164 19.5436 21.5837C19.2517 21.751 19.0221 21.887 18.7877 22.0153C18.4869 22.1795 18.2027 22.1166 18.0637 21.8624C17.9282 21.6137 18.0163 21.3632 18.3046 21.1875C18.5336 21.0485 18.7644 20.9124 18.9939 20.7746C19.0005 20.7704 19.0029 20.7578 19.0167 20.7302C18.7823 20.5929 18.545 20.4563 18.3112 20.3148C18.0181 20.1374 17.9282 19.8899 18.0631 19.6441C18.2063 19.3828 18.4743 19.3204 18.7782 19.4841C19.0197 19.6141 19.2577 19.7526 19.5442 19.9138C19.5442 19.5914 19.5394 19.3169 19.5454 19.0429C19.5532 18.6971 19.7204 18.5119 20.0141 18.5095C20.3096 18.5077 20.4822 18.6929 20.49 19.0345C20.496 19.3103 20.4912 19.5866 20.4912 19.921C20.7615 19.7658 20.9899 19.6339 21.2194 19.5039C21.5461 19.3193 21.814 19.3648 21.9687 19.6291C22.1191 19.8863 22.0208 20.1422 21.6942 20.3388C21.5791 20.4083 21.4616 20.4725 21.3453 20.5402C21.2386 20.6025 21.1325 20.6667 20.9947 20.7494C21.235 20.892 21.455 21.0233 21.6756 21.1534C22.022 21.3584 22.1239 21.6125 21.9657 21.8792Z" fill="#515A67"/>
</g>
<defs>
<clipPath id="clip0_8_476">
<rect width="25.3798" height="24" fill="white" transform="translate(0 0.872437)"/>
</clipPath>
</defs>
</svg>
